<svg viewBox="0 0 800 800" xmlns="http://www.w3.org/2000/svg"><path d="M287.34512326863916,239.66956565719045 L276.1799669818143,246.03913247202732 M276.16982381860277,241.19183077324845 L276.1799669818143,246.03913247202732 M287.33590628020403,234.82280652628586 L276.16982381860277,241.19183077324845 M287.34512326863916,239.66956565719045 L287.33590628020403,234.82280652628586 M253.83486285644864,258.78670447681446 L270.510638854471,268.35477439735945 M253.83486285644864,258.78670447681446 L29.293574783634426,386.8843952146512 M45.9686194644857,396.53754731700826 L29.293574783634426,386.8843952146512 M23.4047754341193,409.418415242737 L45.9686194644857,396.53754731700826 M6.729840732563218,399.75669255992875 L23.4047754341193,409.418415242737 M6.729840732563218,399.75669255992875 L-4.5595375226830015,406.1971262849462 M-4.5595375226830015,406.1971262849462 L511.9055259454736,705.5790995446002 M511.9055259454736,705.5790995446002 L523.1955422496492,699.0051437562315 M506.18632838967466,689.1497344062736 L523.1955422496492,699.0051437562315 M528.751221179677,676.0194902997557 L506.18632838967466,689.1497344062736 M545.7603967047792,685.8660701214008 L528.751221179677,676.0194902997557 M545.7603967047792,685.8660701214008 L770.3015872564972,555.1201243596793 M753.2931635932916,545.3611909902754 L770.3015872564972,555.1201243596793 M775.6372514547777,532.3594306588996 L753.2931635932916,545.3611909902754 M792.6455634757242,542.1096638037247 L775.6372514547777,532.3594306588996 M792.6455634757242,542.1096638037247 L803.8100803494194,535.6087838803694 M803.8100803494194,535.6087838803694 L287.34512326863916,239.66956565719045 M292.8557796514764,255.59875609654668 L276.1799669818143,246.03913247202732 M270.510638854471,268.35477439735945 L292.8557796514764,255.59875609654668 M292.8470138437156,250.75064053334833 L292.8557796514764,255.59875609654668 M276.16982381860277,241.19183077324845 L292.8470138437156,250.75064053334833 M292.8470138437156,250.75064053334833 L270.5000182361154,263.5055736588537 M270.5000182361154,263.5055736588537 L253.82286489175243,253.93831762218892 M253.82286489175243,253.93831762218892 L29.262847618279295,382.0251555827231 M29.262847618279295,382.0251555827231 L45.939269463288895,391.6774936567563 M45.939269463288895,391.6774936567563 L23.37353422202068,404.55727620042603 M23.37353422202068,404.55727620042603 L6.697222383761471,394.89636755529733 M6.697222383761471,394.89636755529733 L-4.593102717969941,401.3362585892657 M-4.593102717969941,401.3362585892657 L511.91504293754946,700.6932674911478 M511.91504293754946,700.6932674911478 L523.2060062478333,694.1198543618533 M523.2060062478333,694.1198543618533 L506.1953594044272,684.265259008721 M506.1953594044272,684.265259008721 L528.7621436676222,671.1361002457486 M528.7621436676222,671.1361002457486 L545.7727521664908,680.9818660582291 M545.7727521664908,680.9818660582291 L770.3326718863243,550.2467742830897 M770.3326718863243,550.2467742830897 L753.3228154383905,540.4886549911482 M753.3228154383905,540.4886549911482 L775.668757846787,527.4879800980681 M775.668757846787,527.4879800980681 L792.6785026244511,537.2373991640322 M792.6785026244511,537.2373991640322 L803.8439455128441,530.737061959845 M803.8439455128441,530.737061959845 L287.33590628020403,234.82280652628586 M803.8100803494194,535.6087838803694 L803.8439455128441,530.737061959845 M270.510638854471,268.35477439735945 L270.5000182361154,263.5055736588537 M253.83486285644864,258.78670447681446 L253.82286489175243,253.93831762218892 M792.6455634757242,542.1096638037247 L792.6785026244511,537.2373991640322 M775.668757846787,527.4879800980681 L775.6372514547777,532.3594306588996 M753.2931635932916,545.3611909902754 L753.3228154383905,540.4886549911482 M770.3326718863243,550.2467742830897 L770.3015872564972,555.1201243596793 M545.7603967047792,685.8660701214008 L545.7727521664908,680.9818660582291 M528.751221179677,676.0194902997557 L528.7621436676222,671.1361002457486 M506.18632838967466,689.1497344062736 L506.1953594044272,684.265259008721 M523.2060062478333,694.1198543618533 L523.1955422496492,699.0051437562315 M511.9055259454736,705.5790995446002 L511.91504293754946,700.6932674911478 M-4.5595375226830015,406.1971262849462 L-4.593102717969941,401.3362585892657 M6.729840732563218,399.75669255992875 L6.697222383761471,394.89636755529733 M23.4047754341193,409.418415242737 L23.37353422202068,404.55727620042603 M45.9686194644857,396.53754731700826 L45.939269463288895,391.6774936567563 M29.262847618279295,382.0251555827231 L29.293574783634426,386.8843952146512" stroke="black"  stroke-width="4"  fill="red"/>
<path d="M270.24103977801053,67.85399220476177 L270.7367936687045,294.5057833434273 M270.24103977801053,67.85399220476177 L259.0374915780781,74.20526332820054 M259.5765926619333,300.88252685554806 L259.0374915780781,74.20526332820054 M270.7367936687045,294.5057833434273 L259.5765926619333,300.88252685554806 M292.94919136798455,307.2620835334402 L270.7367936687045,294.5057833434273 M275.81375219980936,71.02927628495814 L270.24103977801053,67.85399220476177 M275.86814429258476,97.02263537937142 L275.81375219980936,71.02927628495814 M287.0123478635634,103.37825346230784 L275.86814429258476,97.02263537937142 M286.9628786126012,77.38195356795444 L287.0123478635634,103.37825346230784 M292.53929342325074,80.55934723778807 L286.9628786126012,77.38195356795444 M292.53929342325074,80.55934723778807 L292.6361981184762,134.15454050421806 M292.6361981184762,134.15454050421806 L275.9258831688864,124.61538404623923 M275.93606674921705,129.48200062401236 L275.9258831688864,124.61538404623923 M292.6449988666565,139.02198060620208 L275.93606674921705,129.48200062401236 M292.6449988666565,139.02198060620208 L292.8119360921333,231.35014738870214 M292.8119360921333,231.35014738870214 L276.12923436919573,221.79459709374763 M276.139384251866,226.64510994501092 L276.12923436919573,221.79459709374763 M292.8207077088314,236.20147570770305 L276.139384251866,226.64510994501092 M292.8207077088314,236.20147570770305 L292.94919136798455,307.2620835334402 M276.1799669818143,246.03913247202732 L276.2340355090003,271.8778632716803 M287.2959483633057,252.41151145764337 L276.1799669818143,246.03913247202732 M276.2340355090003,271.8778632716803 L287.34512326863916,278.253131483428 M287.34512326863916,278.253131483428 L287.2959483633057,252.41151145764337 M275.81375219980936,71.02927628495814 L264.61019756531965,77.38195356795444 M259.0374915780781,74.20526332820054 L264.61019756531965,77.38195356795444 M259.5765926619333,300.88252685554806 L281.78896653235205,313.6444552390998 M281.78896653235205,313.6444552390998 L281.64689557029294,242.57590450118138 M264.96558964556795,233.01531702954514 L281.64689557029294,242.57590450118138 M264.9545121553648,228.16426053489883 L264.96558964556795,233.01531702954514 M264.9545121553648,228.16426053489883 L281.63719634170553,237.72403252823923 M281.63719634170553,237.72403252823923 L281.4526051815131,145.3854853418974 M264.74369068371755,135.8412838960744 L281.4526051815131,145.3854853418974 M264.73257640805053,130.97411830453643 L264.74369068371755,135.8412838960744 M264.73257640805053,130.97411830453643 L281.44287373361107,140.5174962119874 M281.44287373361107,140.5174962119874 L281.33572111639603,86.91624580248475 M275.7593119244692,83.73744457137309 L281.33572111639603,86.91624580248475 M275.81375219980936,109.73668532192721 L275.7593119244692,83.73744457137309 M264.66956066647435,103.37825346230784 L275.81375219980936,109.73668532192721 M264.61019756531965,77.38195356795444 L264.66956066647435,103.37825346230784 M276.1258507014578,258.78670447681446 L265.0098812661651,252.41151145764337 M276.1799669818143,284.631213761921 L276.1258507014578,258.78670447681446 M265.0098812661651,252.41151145764337 L265.06889115256536,278.253131483428 M265.06889115256536,278.253131483428 L276.1799669818143,284.631213761921 M281.78896653235205,313.6444552390998 L292.94919136798455,307.2620835334402 M275.86814429258476,97.02263537937142 L264.66956066647435,103.37825346230784 M287.0123478635634,103.37825346230784 L275.81375219980936,109.73668532192721 M286.9628786126012,77.38195356795444 L275.7593119244692,83.73744457137309 M281.33572111639603,86.91624580248475 L292.53929342325074,80.55934723778807 M281.44287373361107,140.5174962119874 L292.6361981184762,134.15454050421806 M275.9258831688864,124.61538404623923 L264.73257640805053,130.97411830453643 M275.93606674921705,129.48200062401236 L264.74369068371755,135.8412838960744 M281.4526051815131,145.3854853418974 L292.6449988666565,139.02198060620208 M281.63719634170553,237.72403252823923 L292.8119360921333,231.35014738870214 M276.12923436919573,221.79459709374763 L264.9545121553648,228.16426053489883 M276.139384251866,226.64510994501092 L264.96558964556795,233.01531702954514 M281.64689557029294,242.57590450118138 L292.8207077088314,236.20147570770305 M276.2340355090003,271.8778632716803 L265.06889115256536,278.253131483428 M276.1799669818143,246.03913247202732 L265.0098812661651,252.41151145764337 M287.2959483633057,252.41151145764337 L276.1258507014578,258.78670447681446 M287.34512326863916,278.253131483428 L276.1799669818143,284.631213761921" stroke="black"  stroke-width="4"  fill="red"/>
<path d="M259.5765926619333,300.88252685554806 L259.0374915780781,74.20526332820054 M248.4114682180797,307.2620835334402 L247.82898166503693,80.55934723778807 M259.5765926619333,300.88252685554806 L248.4114682180797,307.2620835334402 M259.0374915780781,74.20526332820054 L247.82898166503693,80.55934723778807 M281.78896653235205,313.6444552390998 L259.5765926619333,300.88252685554806 M264.61019756531965,77.38195356795444 L259.0374915780781,74.20526332820054 M264.66956066647435,103.37825346230784 L264.61019756531965,77.38195356795444 M275.81375219980936,109.73668532192721 L264.66956066647435,103.37825346230784 M275.7593119244692,83.73744457137309 L275.81375219980936,109.73668532192721 M281.33572111639603,86.91624580248475 L275.7593119244692,83.73744457137309 M281.44287373361107,140.5174962119874 L281.33572111639603,86.91624580248475 M281.44287373361107,140.5174962119874 L264.73257640805053,130.97411830453643 M264.74369068371755,135.8412838960744 L264.73257640805053,130.97411830453643 M281.4526051815131,145.3854853418974 L264.74369068371755,135.8412838960744 M281.63719634170553,237.72403252823923 L281.4526051815131,145.3854853418974 M281.63719634170553,237.72403252823923 L264.9545121553648,228.16426053489883 M264.96558964556795,233.01531702954514 L264.9545121553648,228.16426053489883 M281.64689557029294,242.57590450118138 L264.96558964556795,233.01531702954514 M281.78896653235205,313.6444552390998 L281.64689557029294,242.57590450118138 M276.1799669818143,284.631213761921 L265.06889115256536,278.253131483428 M276.1258507014578,258.78670447681446 L276.1799669818143,284.631213761921 M265.06889115256536,278.253131483428 L265.0098812661651,252.41151145764337 M265.0098812661651,252.41151145764337 L276.1258507014578,258.78670447681446 M248.4114682180797,307.2620835334402 L270.6238160761366,320.0296438361665 M270.6238160761366,320.0296438361665 L270.4681458214414,248.9531500992525 M253.78685907257474,239.38833812052206 L270.4681458214414,248.9531500992525 M253.7748531561728,234.53673797541634 L253.78685907257474,239.38833812052206 M253.7748531561728,234.53673797541634 L270.4575181618893,244.10073446551797 M270.4575181618893,244.10073446551797 L270.2552574657466,151.75180672237985 M253.54636223942802,142.20338101029222 L270.2552574657466,151.75180672237985 M253.53431644567223,137.3356663955115 L253.54636223942802,142.20338101029222 M253.53431644567223,137.3356663955115 L270.2445944949581,146.88326855528933 M270.2445944949581,146.88326855528933 L270.12718488738494,93.27596089290819 M264.5507818664455,90.09575116500253 L270.12718488738494,93.27596089290819 M264.61019756531965,116.09793282722796 L264.5507818664455,90.09575116500253 M253.46601917268225,109.73668532192721 L264.61019756531965,116.09793282722796 M253.40168066546212,83.73744457137309 L253.46601917268225,109.73668532192721 M247.82898166503693,80.55934723778807 L253.40168066546212,83.73744457137309 M264.95081925089,265.16471339396224 L253.83486285644864,258.78670447681446 M265.0098812661651,291.01211197077987 L264.95081925089,265.16471339396224 M253.83486285644864,258.78670447681446 L253.89881846050622,284.631213761921 M253.89881846050622,284.631213761921 L265.0098812661651,291.01211197077987 M270.6238160761366,320.0296438361665 L281.78896653235205,313.6444552390998 M264.61019756531965,77.38195356795444 L253.40168066546212,83.73744457137309 M264.66956066647435,103.37825346230784 L253.46601917268225,109.73668532192721 M275.81375219980936,109.73668532192721 L264.61019756531965,116.09793282722796 M275.7593119244692,83.73744457137309 L264.5507818664455,90.09575116500253 M270.12718488738494,93.27596089290819 L281.33572111639603,86.91624580248475 M270.2445944949581,146.88326855528933 L281.44287373361107,140.5174962119874 M264.73257640805053,130.97411830453643 L253.53431644567223,137.3356663955115 M264.74369068371755,135.8412838960744 L253.54636223942802,142.20338101029222 M270.2552574657466,151.75180672237985 L281.4526051815131,145.3854853418974 M270.4575181618893,244.10073446551797 L281.63719634170553,237.72403252823923 M264.9545121553648,228.16426053489883 L253.7748531561728,234.53673797541634 M264.96558964556795,233.01531702954514 L253.78685907257474,239.38833812052206 M270.4681458214414,248.9531500992525 L281.64689557029294,242.57590450118138 M276.1799669818143,284.631213761921 L265.0098812661651,291.01211197077987 M265.06889115256536,278.253131483428 L253.89881846050622,284.631213761921 M276.1258507014578,258.78670447681446 L264.95081925089,265.16471339396224 M265.0098812661651,252.41151145764337 L253.83486285644864,258.78670447681446" stroke="black"  stroke-width="4"  fill="red"/>
<path d="M528.6348287103199,728.0579846487193 L517.3649835105073,734.6274072915884 M517.3649835105073,734.6274072915884 L517.5112212622191,663.0424850696546 M528.7949221444981,656.4810062084765 L517.5112212622191,663.0424850696546 M528.6348287103199,728.0579846487193 L528.7949221444981,656.4810062084765 M517.3649835105073,734.6274072915884 L540.0260878323907,747.7750794804407 M540.0260878323907,747.7750794804407 L551.2959058489673,741.1997715767468 M551.2959058489673,741.1997715767468 L528.6348287103199,728.0579846487193 M540.0260878323907,747.7750794804407 L540.5820110719835,519.339697357668 M534.8924755316614,516.0644160977234 L540.5820110719835,519.339697357668 M534.8312841187042,542.2607796855397 L534.8924755316614,516.0644160977234 M523.4611735997123,535.7094827177639 L534.8312841187042,542.2607796855397 M523.5172405239737,509.51606188074044 L523.4611735997123,535.7094827177639 M517.8315401945695,506.24298842745395 L523.5172405239737,509.51606188074044 M517.7212358850977,560.2381115871128 L517.8315401945695,506.24298842745395 M517.7212358850977,560.2381115871128 L534.7663284744331,570.0686303655712 M534.7548721490941,574.9731430979584 L534.7663284744331,570.0686303655712 M517.7112183506913,565.1418003606816 L534.7548721490941,574.9731430979584 M517.5212051473575,658.1552679678575 L517.7112183506913,565.1418003606816 M517.5212051473575,658.1552679678575 L534.5375679946953,668.0021869242778 M534.526150164507,672.8902196815047 L534.5375679946953,668.0021869242778 M517.5112212622191,663.0424850696546 L534.526150164507,672.8902196815047 M534.480498035535,692.434134608736 L523.1397639577376,685.8660701214008 M534.4196762549855,718.4722566317097 L534.480498035535,692.434134608736 M523.1397639577376,685.8660701214008 L523.0840356351805,711.901302560265 M523.0840356351805,711.901302560265 L534.4196762549855,718.4722566317097 M534.526150164507,672.8902196815047 L545.8098310137075,666.3243275169749 M545.8098310137075,666.3243275169749 L528.7949221444981,656.4810062084765 M545.8221947852196,661.4368385291325 L545.8098310137075,666.3243275169749 M545.8221947852196,661.4368385291325 L528.805851976012,651.59433288137 M528.805851976012,651.59433288137 L529.013868342953,558.5912494746465 M546.0575020069125,568.4181788376382 L529.013868342953,558.5912494746465 M546.0699074534441,563.5142154108469 L546.0575020069125,568.4181788376382 M546.0699074534441,563.5142154108469 L529.0248350036381,553.688110008267 M529.0248350036381,553.688110008267 L529.145590232466,499.6990475915079 M534.8312841187042,502.9706504136582 L529.145590232466,499.6990475915079 M534.7701476783809,529.1611284998894 L534.8312841187042,502.9706504136582 M546.1402444634764,535.7094827177639 L534.7701476783809,529.1611284998894 M546.2065053739673,509.51606188074044 L546.1402444634764,535.7094827177639 M551.8960336046428,512.7898710214743 L546.2065053739673,509.51606188074044 M551.2959058489673,741.1997715767468 L551.8960336046428,512.7898710214743 M545.694535959939,711.901302560265 L534.3589089498328,705.333291146264 M545.7603967047792,685.8660701214008 L545.694535959939,711.901302560265 M534.3589089498328,705.333291146264 L534.4196762549855,679.3009483152875 M534.4196762549855,679.3009483152875 L545.7603967047792,685.8660701214008 M540.5820110719835,519.339697357668 L551.8960336046428,512.7898710214743 M546.2065053739673,509.51606188074044 L534.8924755316614,516.0644160977234 M546.1402444634764,535.7094827177639 L534.8312841187042,542.2607796855397 M534.7701476783809,529.1611284998894 L523.4611735997123,535.7094827177639 M534.8312841187042,502.9706504136582 L523.5172405239737,509.51606188074044 M529.145590232466,499.6990475915079 L517.8315401945695,506.24298842745395 M529.0248350036381,553.688110008267 L517.7212358850977,560.2381115871128 M534.7663284744331,570.0686303655712 L546.0699074534441,563.5142154108469 M534.7548721490941,574.9731430979584 L546.0575020069125,568.4181788376382 M529.013868342953,558.5912494746465 L517.7112183506913,565.1418003606816 M528.805851976012,651.59433288137 L517.5212051473575,658.1552679678575 M534.5375679946953,668.0021869242778 L545.8221947852196,661.4368385291325 M534.4196762549855,679.3009483152875 L523.1397639577376,685.8660701214008 M545.7603967047792,685.8660701214008 L534.480498035535,692.434134608736 M545.694535959939,711.901302560265 L534.4196762549855,718.4722566317097 M534.3589089498328,705.333291146264 L523.0840356351805,711.901302560265" stroke="black"  stroke-width="4"  fill="red"/>
<path d="M517.3649835105073,734.6274072915884 L506.0900919230537,741.1997715767468 M506.0900919230537,741.1997715767468 L506.2224615586527,669.6069056384595 M517.5112212622191,663.0424850696546 L506.2224615586527,669.6069056384595 M517.3649835105073,734.6274072915884 L517.5112212622191,663.0424850696546 M506.0900919230537,741.1997715767468 L528.751221179677,754.3533329806868 M528.751221179677,754.3533329806868 L540.0260878323907,747.7750794804407 M540.0260878323907,747.7750794804407 L517.3649835105073,734.6274072915884 M528.751221179677,754.3533329806868 L529.2629001550056,525.8924694219195 M523.5733578737995,522.615715049599 L529.2629001550056,525.8924694219195 M523.5172405239737,548.8150213873162 L523.5733578737995,522.615715049599 M512.1471174070882,542.2607796855397 L523.5172405239737,548.8150213873162 M512.1981102512193,516.0644160977234 L512.1471174070882,542.2607796855397 M506.51240404741776,512.7898710214743 L512.1981102512193,516.0644160977234 M506.4125600623918,566.7910549210537 L506.51240404741776,512.7898710214743 M506.4125600623918,566.7910549210537 L523.4576710896808,576.6259900494472 M523.4471647396774,581.5310520861584 L523.4576710896808,576.6259900494472 M506.40349250797846,571.6952930007915 L523.4471647396774,581.5310520861584 M506.23149864799353,664.7191447654668 L506.40349250797846,571.6952930007915 M506.23149864799353,664.7191447654668 L523.2478798404322,674.5704799995544 M523.2374088014153,679.4590565224173 L523.2478798404322,674.5704799995544 M506.2224615586527,669.6069056384595 L523.2374088014153,679.4590565224173 M523.1955422496492,699.0051437562315 L511.8547956711139,692.434134608736 M523.1397639577374,725.0461553386333 L523.1955422496492,699.0051437562315 M511.8547956711139,692.434134608736 L511.80411085398924,718.4722566317097 M511.80411085398924,718.4722566317097 L523.1397639577374,725.0461553386333 M523.2374088014153,679.4590565224173 L534.526150164507,672.8902196815047 M534.526150164507,672.8902196815047 L517.5112212622191,663.0424850696546 M534.5375679946953,668.0021869242778 L534.526150164507,672.8902196815047 M534.5375679946953,668.0021869242778 L517.5212051473575,658.1552679678575 M517.5212051473575,658.1552679678575 L517.7112183506913,565.1418003606816 M534.7548721490941,574.9731430979584 L517.7112183506913,565.1418003606816 M534.7663284744331,570.0686303655712 L534.7548721490941,574.9731430979584 M534.7663284744331,570.0686303655712 L517.7212358850977,560.2381115871128 M517.7212358850977,560.2381115871128 L517.8315401945695,506.24298842745395 M523.5172405239737,509.51606188074044 L517.8315401945695,506.24298842745395 M523.4611735997123,535.7094827177639 L523.5172405239737,509.51606188074044 M534.8312841187042,542.2607796855397 L523.4611735997123,535.7094827177639 M534.8924755316614,516.0644160977234 L534.8312841187042,542.2607796855397 M540.5820110719835,519.339697357668 L534.8924755316614,516.0644160977234 M540.0260878323907,747.7750794804407 L540.5820110719835,519.339697357668 M534.4196762549855,718.4722566317097 L523.0840356351805,711.901302560265 M534.480498035535,692.434134608736 L534.4196762549855,718.4722566317097 M523.0840356351805,711.901302560265 L523.1397639577376,685.8660701214008 M523.1397639577376,685.8660701214008 L534.480498035535,692.434134608736 M529.2629001550056,525.8924694219195 L540.5820110719835,519.339697357668 M534.8924755316614,516.0644160977234 L523.5733578737995,522.615715049599 M534.8312841187042,542.2607796855397 L523.5172405239737,548.8150213873162 M523.4611735997123,535.7094827177639 L512.1471174070882,542.2607796855397 M523.5172405239737,509.51606188074044 L512.1981102512193,516.0644160977234 M517.8315401945695,506.24298842745395 L506.51240404741776,512.7898710214743 M517.7212358850977,560.2381115871128 L506.4125600623918,566.7910549210537 M523.4576710896808,576.6259900494472 L534.7663284744331,570.0686303655712 M523.4471647396774,581.5310520861584 L534.7548721490941,574.9731430979584 M517.7112183506913,565.1418003606816 L506.40349250797846,571.6952930007915 M517.5212051473575,658.1552679678575 L506.23149864799353,664.7191447654668 M523.2478798404322,674.5704799995544 L534.5375679946953,668.0021869242778 M523.1397639577376,685.8660701214008 L511.8547956711139,692.434134608736 M534.480498035535,692.434134608736 L523.1955422496492,699.0051437562315 M534.4196762549855,718.4722566317097 L523.1397639577374,725.0461553386333 M523.0840356351805,711.901302560265 L511.80411085398924,718.4722566317097" stroke="black"  stroke-width="4"  fill="red"/>
<path d="M776.774809707109,356.4726206209916 L776.426494623397,410.3283496235807 M776.426494623397,410.3283496235807 L765.2337236967028,416.8141305215656 M765.2337236967028,416.8141305215656 L765.5717923884226,362.9523411695134 M776.774809707109,356.4726206209916 L765.5717923884226,362.9523411695134 M797.961427017847,597.284248848264 L775.3015106975297,584.2709443515635 M775.7633086345791,512.8687406725361 L775.3015106975297,584.2709443515635 M792.7773531310024,522.615715049599 L775.7633086345791,512.8687406725361 M792.8103143245851,517.7401895979187 L792.7773531310024,522.615715049599 M792.8103143245851,517.7401895979187 L775.7948361055037,507.9940309351656 M776.3948614399151,415.2194044091974 L775.7948361055037,507.9940309351656 M793.437626370416,424.9499865394848 L776.3948614399151,415.2194044091974 M793.4706981209413,420.05810782114827 L793.437626370416,424.9499865394848 M793.4706981209413,420.05810782114827 L776.426494623397,410.3283496235807 M782.4602194892088,359.7121186973459 L776.774809707109,356.4726206209916 M782.2886991246362,385.83785805199494 L782.4602194892088,359.7121186973459 M793.6582094387747,392.3219701634111 L782.2886991246362,385.83785805199494 M793.8348534846607,366.1932882804983 L793.6582094387747,392.3219701634111 M799.5240785511628,369.4349602734136 L793.8348534846607,366.1932882804983 M799.5240785511628,369.4349602734136 L797.961427017847,597.284248848264 M781.3054249882853,535.6087838803694 L781.1349351749434,561.577551129035 M792.6455634757242,542.1096638037247 L781.3054249882853,535.6087838803694 M781.1349351749434,561.577551129035 L792.4699810020772,568.0813209582075 M792.4699810020772,568.0813209582075 L792.6455634757242,542.1096638037247 M782.2779841927904,426.54823733595447 L793.4706981209413,420.05810782114827 M765.2337236967028,416.8141305215656 L782.2779841927904,426.54823733595447 M764.14183439768,590.7761472954816 L786.8018266096342,603.7952509476995 M786.8018266096342,603.7952509476995 L788.3211380186524,375.92047987803153 M782.6318933223997,372.6773573914812 L788.3211380186524,375.92047987803153 M782.4602194892088,398.8089818218866 L782.6318933223997,372.6773573914812 M771.0906708336452,392.3219701634111 L782.4602194892088,398.8089818218866 M771.2572209340519,366.1932882804983 L771.0906708336452,392.3219701634111 M765.5717923884226,362.9523411695134 L771.2572209340519,366.1932882804983 M782.2458429888511,431.44066534594464 L782.2779841927904,426.54823733595447 M765.2030210741309,421.70573459500713 L782.2458429888511,431.44066534594464 M764.6206470458103,514.4907454693436 L765.2030210741309,421.70573459500713 M764.6206470458103,514.4907454693436 L781.636181977864,524.2412527904819 M781.6041482440551,529.1173220518116 L781.636181977864,524.2412527904819 M764.5900470488882,519.3659990162116 L781.6041482440551,529.1173220518116 M764.14183439768,590.7761472954816 L764.5900470488882,519.3659990162116 M781.4760668888825,548.6134433166981 L770.1358903541975,542.1096638037247 M781.3054249882853,574.5879903726807 L781.4760668888825,548.6134433166981 M770.1358903541975,542.1096638037247 L769.970341164759,568.0813209582075 M769.970341164759,568.0813209582075 L781.3054249882853,574.5879903726807 M782.4602194892088,359.7121186973459 L771.2572209340519,366.1932882804983 M775.3015106975297,584.2709443515635 L764.14183439768,590.7761472954816 M786.8018266096342,603.7952509476995 L797.961427017847,597.284248848264 M775.7633086345791,512.8687406725361 L764.5900470488882,519.3659990162116 M781.6041482440551,529.1173220518116 L792.7773531310024,522.615715049599 M781.636181977864,524.2412527904819 L792.8103143245851,517.7401895979187 M775.7948361055037,507.9940309351656 L764.6206470458103,514.4907454693436 M776.3948614399151,415.2194044091974 L765.2030210741309,421.70573459500713 M782.2458429888511,431.44066534594464 L793.437626370416,424.9499865394848 M782.2886991246362,385.83785805199494 L771.0906708336452,392.3219701634111 M793.6582094387747,392.3219701634111 L782.4602194892088,398.8089818218866 M793.8348534846607,366.1932882804983 L782.6318933223997,372.6773573914812 M788.3211380186524,375.92047987803153 L799.5240785511628,369.4349602734136 M781.1349351749434,561.577551129035 L769.970341164759,568.0813209582075 M781.3054249882853,535.6087838803694 L770.1358903541975,542.1096638037247 M792.6455634757242,542.1096638037247 L781.4760668888825,548.6134433166981 M792.4699810020772,568.0813209582075 L781.3054249882853,574.5879903726807" stroke="black"  stroke-width="4"  fill="red"/>
<path d="M764.14183439768,590.7761472954816 L752.9771855340339,597.284248848264 M752.9771855340339,597.284248848264 L753.411800737975,525.866155980607 M764.5900470488882,519.3659990162116 L753.411800737975,525.866155980607 M764.14183439768,590.7761472954816 L764.5900470488882,519.3659990162116 M752.9771855340339,597.284248848264 L775.6372514547779,610.3091555333042 M775.6372514547779,610.3091555333042 L786.8018266096342,603.7952509476995 M786.8018266096342,603.7952509476995 L764.14183439768,590.7761472954816 M775.6372514547779,610.3091555333042 L777.1131838631693,382.4089019304473 M771.423920089253,379.16432797650407 L777.1131838631693,382.4089019304473 M771.2572209340519,405.29889497277344 L771.423920089253,379.16432797650407 M759.8876350397852,398.8089818218866 L771.2572209340519,405.29889497277344 M760.0492104122004,372.6773573914812 L759.8876350397852,398.8089818218866 M754.3637636551452,369.4349602734136 L760.0492104122004,372.6773573914812 M754.0359505540139,423.3028100116111 L754.3637636551452,369.4349602734136 M754.0359505540139,423.3028100116111 L771.0802663968914,433.04126835882846 M771.0490565749299,437.9342456628231 L771.0802663968914,433.04126835882846 M754.0061793273321,428.1949633754705 L771.0490565749299,437.9342456628231 M753.4414724300825,520.9903586240995 L754.0061793273321,428.1949633754705 M753.4414724300825,520.9903586240995 L770.4570624315681,530.7452175147773 M770.4259569887547,535.6218305856553 L770.4570624315681,530.7452175147773 M753.411800737975,525.866155980607 L770.4259569887547,535.6218305856553 M770.3015872564972,555.1201243596793 L758.9613737688901,548.6134433166981 M770.1358903541975,581.0975613119764 L770.3015872564972,555.1201243596793 M758.9613737688901,548.6134433166981 L758.8007696271513,574.5879903726807 M758.8007696271513,574.5879903726807 L770.1358903541975,581.0975613119764 M770.4259569887547,535.6218305856553 L781.6041482440551,529.1173220518116 M781.6041482440551,529.1173220518116 L764.5900470488882,519.3659990162116 M781.636181977864,524.2412527904819 L781.6041482440551,529.1173220518116 M781.636181977864,524.2412527904819 L764.6206470458103,514.4907454693436 M764.6206470458103,514.4907454693436 L765.2030210741309,421.70573459500713 M782.2458429888511,431.44066534594464 L765.2030210741309,421.70573459500713 M782.2779841927904,426.54823733595447 L782.2458429888511,431.44066534594464 M782.2779841927904,426.54823733595447 L765.2337236967028,416.8141305215656 M765.2337236967028,416.8141305215656 L765.5717923884226,362.9523411695134 M771.2572209340519,366.1932882804983 L765.5717923884226,362.9523411695134 M771.0906708336452,392.3219701634111 L771.2572209340519,366.1932882804983 M782.4602194892088,398.8089818218866 L771.0906708336452,392.3219701634111 M782.6318933223997,372.6773573914812 L782.4602194892088,398.8089818218866 M788.3211380186524,375.92047987803153 L782.6318933223997,372.6773573914812 M786.8018266096342,603.7952509476995 L788.3211380186524,375.92047987803153 M781.3054249882853,574.5879903726807 L769.970341164759,568.0813209582075 M781.4760668888825,548.6134433166981 L781.3054249882853,574.5879903726807 M769.970341164759,568.0813209582075 L770.1358903541975,542.1096638037247 M770.1358903541975,542.1096638037247 L781.4760668888825,548.6134433166981 M777.1131838631693,382.4089019304473 L788.3211380186524,375.92047987803153 M782.6318933223997,372.6773573914812 L771.423920089253,379.16432797650407 M782.4602194892088,398.8089818218866 L771.2572209340519,405.29889497277344 M771.0906708336452,392.3219701634111 L759.8876350397852,398.8089818218866 M771.2572209340519,366.1932882804983 L760.0492104122004,372.6773573914812 M765.5717923884226,362.9523411695134 L754.3637636551452,369.4349602734136 M765.2337236967028,416.8141305215656 L754.0359505540139,423.3028100116111 M771.0802663968914,433.04126835882846 L782.2779841927904,426.54823733595447 M771.0490565749299,437.9342456628231 L782.2458429888511,431.44066534594464 M765.2030210741309,421.70573459500713 L754.0061793273321,428.1949633754705 M764.6206470458103,514.4907454693436 L753.4414724300825,520.9903586240995 M770.4570624315681,530.7452175147773 L781.636181977864,524.2412527904819 M770.1358903541975,542.1096638037247 L758.9613737688901,548.6134433166981 M781.4760668888825,548.6134433166981 L770.3015872564972,555.1201243596793 M781.3054249882853,574.5879903726807 L770.1358903541975,581.0975613119764 M769.970341164759,568.0813209582075 L758.8007696271513,574.5879903726807" stroke="black"  stroke-width="4"  fill="red"/>
<path d="M24.070017943772314,435.44686144814904 L22.611725093829705,208.2346008837234 M12.800744095367008,441.8859272728175 L11.298253117460774,214.64818759634898 M24.070017943772314,435.44686144814904 L12.800744095367008,441.8859272728175 M22.611725093829705,208.2346008837234 L11.298253117460774,214.64818759634898 M46.2813825493883,448.3278476096548 L24.070017943772314,435.44686144814904 M28.184167248903577,211.4410375729962 L22.611725093829705,208.2346008837234 M28.34894417679692,237.4991060342804 L28.184167248903577,211.4410375729962 M39.492625848174896,243.91706150595894 L28.34894417679692,237.4991060342804 M39.33277106655248,217.85605119185067 L39.492625848174896,243.91706150595894 M44.908933556788554,221.06462859767626 L39.33277106655248,217.85605119185067 M45.23340132279219,274.79310183437224 L44.908933556788554,221.06462859767626 M45.23340132279219,274.79310183437224 L28.52385916344656,265.160422186334 M28.554709365503697,270.03911902530893 L28.52385916344656,265.160422186334 M45.26286888552363,279.6726224569175 L28.554709365503697,270.03911902530893 M45.82182060290239,372.22918903878576 L45.26286888552363,279.6726224569175 M45.82182060290239,372.22918903878576 L29.1398878258737,362.5801111250135 M29.170635446175083,367.44258553256424 L29.1398878258737,362.5801111250135 M45.85119014877847,377.09247909378297 L29.170635446175083,367.44258553256424 M46.2813825493883,448.3278476096548 L45.85119014877847,377.09247909378297 M40.56793724130381,419.2243061363641 L29.457366718489368,412.78669541180085 M40.40903824103418,393.31911617019307 L40.56793724130381,419.2243061363641 M29.457366718489368,412.78669541180085 L29.293574783634426,386.8843952146512 M29.293574783634426,386.8843952146512 L40.40903824103418,393.31911617019307 M12.800744095367008,441.8859272728175 L35.01203616288507,454.77262435723895 M35.01203616288507,454.77262435723895 L34.5679899115479,383.52931153583893 M17.887489407469502,373.87513413078926 L34.5679899115479,383.52931153583893 M17.855795979543018,369.0121159592099 L17.887489407469502,373.87513413078926 M17.855795979543018,369.0121159592099 L34.53767454451372,378.66547771129615 M34.53767454451372,378.66547771129615 L33.9607220506183,286.09852802552786 M17.252617000643227,276.46074089492305 L33.9607220506183,286.09852802552786 M17.220817811987104,271.5814948684435 L17.252617000643227,276.46074089492305 M17.220817811987104,271.5814948684435 L33.93030548766433,281.2184582063217 M33.93030548766433,281.2184582063217 L33.595388191706036,227.48392579352898 M28.019243640758418,224.27392005210663 L33.595388191706036,227.48392579352898 M28.184167248903577,250.33787225757152 L28.019243640758418,224.27392005210663 M17.040522223122707,243.91706150595894 L28.184167248903577,250.33787225757152 M16.870676517648974,217.85605119185067 L17.040522223122707,243.91706150595894 M11.298253117460774,214.64818759634898 L16.870676517648974,217.85605119185067 M29.12963748207443,399.75669255992875 L18.01421039053571,393.31911617019307 M29.293574783634426,425.6647723103505 L29.12963748207443,399.75669255992875 M18.01421039053571,393.31911617019307 L18.18304057832222,419.2243061363641 M18.18304057832222,419.2243061363641 L29.293574783634426,425.6647723103505 M35.01203616288507,454.77262435723895 L46.2813825493883,448.3278476096548 M28.184167248903577,211.4410375729962 L16.870676517648974,217.85605119185067 M28.34894417679692,237.4991060342804 L17.040522223122707,243.91706150595894 M39.492625848174896,243.91706150595894 L28.184167248903577,250.33787225757152 M39.33277106655248,217.85605119185067 L28.019243640758418,224.27392005210663 M33.595388191706036,227.48392579352898 L44.908933556788554,221.06462859767626 M33.93030548766433,281.2184582063217 L45.23340132279219,274.79310183437224 M28.52385916344656,265.160422186334 L17.220817811987104,271.5814948684435 M28.554709365503697,270.03911902530893 L17.252617000643227,276.46074089492305 M33.9607220506183,286.09852802552786 L45.26286888552363,279.6726224569175 M34.53767454451372,378.66547771129615 L45.82182060290239,372.22918903878576 M29.1398878258737,362.5801111250135 L17.855795979543018,369.0121159592099 M29.170635446175083,367.44258553256424 L17.887489407469502,373.87513413078926 M34.5679899115479,383.52931153583893 L45.85119014877847,377.09247909378297 M40.56793724130381,419.2243061363641 L29.293574783634426,425.6647723103505 M29.457366718489368,412.78669541180085 L18.18304057832222,419.2243061363641 M40.40903824103418,393.31911617019307 L29.12963748207443,399.75669255992875 M29.293574783634426,386.8843952146512 L18.01421039053571,393.31911617019307" stroke="black"  stroke-width="4"  fill="red"/>
<path d="M12.800744095367008,441.8859272728175 L11.298253117460774,214.64818759634898 M11.298253117460774,214.64818759634898 L-0.02025378190620586,221.06462859767626 M1.5264744478490684,448.3278476096548 L-0.02025378190620586,221.06462859767626 M12.800744095367008,441.8859272728175 L1.5264744478490684,448.3278476096548 M35.01203616288507,454.77262435723895 L12.800744095367008,441.8859272728175 M16.870676517648974,217.85605119185067 L11.298253117460774,214.64818759634898 M17.040522223122707,243.91706150595894 L16.870676517648974,217.85605119185067 M28.184167248903577,250.33787225757152 L17.040522223122707,243.91706150595894 M28.019243640758418,224.27392005210663 L28.184167248903577,250.33787225757152 M33.595388191706036,227.48392579352898 L28.019243640758418,224.27392005210663 M33.93030548766433,281.2184582063217 L33.595388191706036,227.48392579352898 M33.93030548766433,281.2184582063217 L17.220817811987104,271.5814948684435 M17.252617000643227,276.46074089492305 L17.220817811987104,271.5814948684435 M33.9607220506183,286.09852802552786 L17.252617000643227,276.46074089492305 M34.53767454451372,378.66547771129615 L33.9607220506183,286.09852802552786 M34.53767454451372,378.66547771129615 L17.855795979543018,369.0121159592099 M17.887489407469502,373.87513413078926 L17.855795979543018,369.0121159592099 M34.5679899115479,383.52931153583893 L17.887489407469502,373.87513413078926 M35.01203616288507,454.77262435723895 L34.5679899115479,383.52931153583893 M29.293574783634426,425.6647723103505 L18.18304057832222,419.2243061363641 M29.12963748207443,399.75669255992875 L29.293574783634426,425.6647723103505 M18.18304057832222,419.2243061363641 L18.01421039053571,393.31911617019307 M18.01421039053571,393.31911617019307 L29.12963748207443,399.75669255992875 M16.870676517648974,217.85605119185067 L5.552150294803823,224.27392005210663 M-0.02025378190620586,221.06462859767626 L5.552150294803823,224.27392005210663 M1.5264744478490684,448.3278476096548 L23.73769172942025,461.22025941583206 M23.73769172942025,461.22025941583206 L23.27977937225819,389.96900225162585 M6.599334758825705,380.31053814954396 L23.27977937225819,389.96900225162585 M6.5666946864838565,375.44697621021913 L6.599334758825705,380.31053814954396 M6.5666946864838565,375.44697621021913 L23.24851734685012,385.1046246540544 M23.24851734685012,385.1046246540544 L22.653548129385797,292.5272917751985 M5.945499250115972,282.8852180877339 L22.653548129385797,292.5272917751985 M5.912750233862937,278.0054228676068 L5.945499250115972,282.8852180877339 M5.912750233862937,278.0054228676068 L22.62218172478299,287.6466727534206 M22.62218172478299,287.6466727534206 L22.27680562922143,233.90608109142795 M16.70067958617136,230.69464606043616 L22.27680562922143,233.90608109142795 M16.87067651764886,256.7615401949675 L16.70067958617136,230.69464606043616 M5.727069273139591,250.33787225757152 L16.87067651764886,256.7615401949675 M5.552150294803823,224.27392005210663 L5.727069273139591,250.33787225757152 M17.845230331299774,406.1971262849462 L6.729840732563218,399.75669255992875 M18.014210390535652,432.1080958340149 L17.845230331299774,406.1971262849462 M6.729840732563218,399.75669255992875 L6.903713628157163,425.6647723103505 M6.903713628157163,425.6647723103505 L18.014210390535652,432.1080958340149 M23.73769172942025,461.22025941583206 L35.01203616288507,454.77262435723895 M17.040522223122707,243.91706150595894 L5.727069273139591,250.33787225757152 M28.184167248903577,250.33787225757152 L16.87067651764886,256.7615401949675 M28.019243640758418,224.27392005210663 L16.70067958617136,230.69464606043616 M22.27680562922143,233.90608109142795 L33.595388191706036,227.48392579352898 M22.62218172478299,287.6466727534206 L33.93030548766433,281.2184582063217 M17.220817811987104,271.5814948684435 L5.912750233862937,278.0054228676068 M17.252617000643227,276.46074089492305 L5.945499250115972,282.8852180877339 M22.653548129385797,292.5272917751985 L33.9607220506183,286.09852802552786 M23.24851734685012,385.1046246540544 L34.53767454451372,378.66547771129615 M17.855795979543018,369.0121159592099 L6.5666946864838565,375.44697621021913 M17.887489407469502,373.87513413078926 L6.599334758825705,380.31053814954396 M23.27977937225819,389.96900225162585 L34.5679899115479,383.52931153583893 M29.293574783634426,425.6647723103505 L18.014210390535652,432.1080958340149 M18.18304057832222,419.2243061363641 L6.903713628157163,425.6647723103505 M29.12963748207443,399.75669255992875 L17.845230331299774,406.1971262849462 M18.01421039053571,393.31911617019307 L6.729840732563218,399.75669255992875" stroke="black"  stroke-width="4"  fill="red"/>
<path d="M-15.302502024603882,412.78669541180085 L545.8263165043111,738.2027945799277 M-15.302502024603882,412.78669541180085 L-26.5867527476409,419.2243061363641 M534.5413743647666,744.7855390792436 L-26.5867527476409,419.2243061363641 M545.8263165043111,738.2027945799277 L534.5413743647666,744.7855390792436 M534.602305316097,718.7358589756964 L-26.77544531046101,393.31911617019307 M534.5413743647666,744.7855390792436 L534.602305316097,718.7358589756964 M-26.5867527476409,419.2243061363641 L-26.77544531046101,393.31911617019307 M-26.77544531046101,393.31911617019307 L-15.486147527320043,386.8843952146512 M545.8922954379982,712.1560039563324 L-15.486147527320043,386.8843952146512 M534.602305316097,718.7358589756964 L545.8922954379982,712.1560039563324 M545.8922954379982,712.1560039563324 L545.8263165043111,738.2027945799277 M-15.486147527320043,386.8843952146512 L-15.302502024603882,412.78669541180085" stroke="black"  stroke-width="4"  fill="red"/>
<path d="M826.3147357105534,574.5879903726807 L265.1867548145551,252.7689244253575 M265.1867548145551,252.7689244253575 L254.0265604365931,259.13576160215877 M815.1552365972507,581.0975613119764 L254.0265604365931,259.13576160215877 M826.3147357105534,574.5879903726807 L815.1552365972507,581.0975613119764 M815.1552365972507,581.0975613119764 L815.3410179725565,555.1201243596793 M254.0265604365931,259.13576160215877 L253.96271762899877,233.3028091520006 M815.3410179725565,555.1201243596793 L253.96271762899877,233.3028091520006 M253.96271762899877,233.3028091520006 L265.1278489790746,226.9388610969674 M826.5054531288679,548.6134433166981 L265.1278489790746,226.9388610969674 M815.3410179725565,555.1201243596793 L826.5054531288679,548.6134433166981 M826.5054531288679,548.6134433166981 L826.3147357105534,574.5879903726807 M265.1278489790746,226.9388610969674 L265.1867548145551,252.7689244253575" stroke="black"  stroke-width="4"  fill="red"/>
<path d="M781.3054249882853,535.6087838803694 L511.8547956711139,692.434134608736 M781.1349351749434,561.577551129035 L511.80411085398924,718.4722566317097 M781.3054249882853,535.6087838803694 L781.1349351749434,561.577551129035 M511.8547956711139,692.434134608736 L511.80411085398924,718.4722566317097 M792.4699810020772,568.0813209582075 L523.1397639577374,725.0461553386333 M781.1349351749434,561.577551129035 L792.4699810020772,568.0813209582075 M511.80411085398924,718.4722566317097 L523.1397639577374,725.0461553386333 M792.6455634757242,542.1096638037247 L523.1955422496492,699.0051437562315 M792.4699810020772,568.0813209582075 L792.6455634757242,542.1096638037247 M523.1397639577374,725.0461553386333 L523.1955422496492,699.0051437562315 M792.6455634757242,542.1096638037247 L781.3054249882853,535.6087838803694 M523.1955422496492,699.0051437562315 L511.8547956711139,692.434134608736" stroke="black"  stroke-width="4"  fill="red"/>
<path d="M276.1799669818143,246.03913247202732 L6.729840732563218,399.75669255992875 M276.2340355090003,271.8778632716803 L6.903713628157163,425.6647723103505 M276.1799669818143,246.03913247202732 L276.2340355090003,271.8778632716803 M6.729840732563218,399.75669255992875 L6.903713628157163,425.6647723103505 M287.34512326863916,278.253131483428 L18.014210390535652,432.1080958340149 M276.2340355090003,271.8778632716803 L287.34512326863916,278.253131483428 M6.903713628157163,425.6647723103505 L18.014210390535652,432.1080958340149 M287.2959483633057,252.41151145764337 L17.845230331299774,406.1971262849462 M287.34512326863916,278.253131483428 L287.2959483633057,252.41151145764337 M18.014210390535652,432.1080958340149 L17.845230331299774,406.1971262849462 M287.2959483633057,252.41151145764337 L276.1799669818143,246.03913247202732 M17.845230331299774,406.1971262849462 L6.729840732563218,399.75669255992875" stroke="black"  stroke-width="4"  fill="red"/>
<path d="M782.2886991246362,385.83785805199494 L782.4602194892088,359.7121186973459 M782.2886991246362,385.83785805199494 L512.1471174070882,542.2607796855397 M512.1981102512193,516.0644160977234 L512.1471174070882,542.2607796855397 M782.4602194892088,359.7121186973459 L512.1981102512193,516.0644160977234 M793.8348534846607,366.1932882804983 L793.6582094387747,392.3219701634111 M793.8348534846607,366.1932882804983 L782.4602194892088,359.7121186973459 M793.6582094387747,392.3219701634111 L782.2886991246362,385.83785805199494 M793.6582094387747,392.3219701634111 L523.5172405239737,548.8150213873162 M523.5172405239737,548.8150213873162 L512.1471174070882,542.2607796855397 M523.5172405239737,548.8150213873162 L523.5733578737995,522.615715049599 M523.5733578737995,522.615715049599 L512.1981102512193,516.0644160977234 M793.8348534846607,366.1932882804983 L523.5733578737995,522.615715049599" stroke="black"  stroke-width="4"  fill="red"/>
<path d="M275.86814429258476,97.02263537937142 L275.81375219980936,71.02927628495814 M275.86814429258476,97.02263537937142 L5.727069273139591,250.33787225757152 M5.552150294803823,224.27392005210663 L5.727069273139591,250.33787225757152 M275.81375219980936,71.02927628495814 L5.552150294803823,224.27392005210663 M286.9628786126012,77.38195356795444 L287.0123478635634,103.37825346230784 M286.9628786126012,77.38195356795444 L275.81375219980936,71.02927628495814 M287.0123478635634,103.37825346230784 L275.86814429258476,97.02263537937142 M287.0123478635634,103.37825346230784 L16.87067651764886,256.7615401949675 M16.87067651764886,256.7615401949675 L5.727069273139591,250.33787225757152 M16.87067651764886,256.7615401949675 L16.70067958617136,230.69464606043616 M16.70067958617136,230.69464606043616 L5.552150294803823,224.27392005210663 M286.9628786126012,77.38195356795444 L16.70067958617136,230.69464606043616" stroke="black"  stroke-width="4"  fill="red"/>
<path d="M527.4822631575967,390.1013988819001 L258.0251410933407,545.3611909902754 M527.4251714917907,416.00514396160474 L258.08786310058724,571.3342930961019 M527.4822631575967,390.1013988819001 L527.4251714917907,416.00514396160474 M258.0251410933407,545.3611909902754 L258.08786310058724,571.3342930961019 M538.6474003115416,422.444182173453 L269.31009106943685,577.8424130304379 M527.4251714917907,416.00514396160474 L538.6474003115416,422.444182173453 M258.08786310058724,571.3342930961019 L269.31009106943685,577.8424130304379 M538.709484001597,396.5375473170083 L269.2523610849249,551.8664210255956 M538.6474003115416,422.444182173453 L538.709484001597,396.5375473170083 M269.31009106943685,577.8424130304379 L269.2523610849249,551.8664210255956 M538.709484001597,396.5375473170083 L527.4822631575967,390.1013988819001 M269.2523610849249,551.8664210255956 L258.0251410933407,545.3611909902754" stroke="black"  stroke-width="4"  fill="red"/>
<path d="M527.8115257242075,240.70772697917727 L527.8689607595245,214.64818759634898 M527.8115257242075,240.70772697917727 L257.66340106613524,395.5651134277227 M257.6002997989543,369.4349602734136 L257.66340106613524,395.5651134277227 M527.8689607595245,214.64818759634898 L257.6002997989543,369.4349602734136 M539.1299942824292,221.06462859767626 L539.0675371158663,247.12710985269763 M539.1299942824292,221.06462859767626 L527.8689607595245,214.64818759634898 M539.0675371158663,247.12710985269763 L527.8115257242075,240.70772697917727 M539.0675371158663,247.12710985269763 L268.91941159660047,402.0535755891261 M268.91941159660047,402.0535755891261 L257.66340106613524,395.5651134277227 M268.91941159660047,402.0535755891261 L268.86133245912737,375.92047987803153 M268.86133245912737,375.92047987803153 L257.6002997989543,369.4349602734136 M539.1299942824292,221.06462859767626 L268.86133245912737,375.92047987803153" stroke="black"  stroke-width="4"  fill="red"/>
<path d="M242.46510360570778,77.97264512547576 L-27.674026265671728,231.08400393838104 M253.59452543359242,84.31983307582288 L-16.545278813774246,237.4991060342804 M242.46510360570778,77.97264512547576 L253.59452543359242,84.31983307582288 M-27.674026265671728,231.08400393838104 L-16.545278813774246,237.4991060342804 M253.5303007368713,58.33235540935084 L-16.730028702624338,211.4410375729962 M253.59452543359242,84.31983307582288 L253.5303007368713,58.33235540935084 M-16.545278813774246,237.4991060342804 L-16.730028702624338,211.4410375729962 M242.395969138174,51.98810808543129 L-27.863685026981557,205.02887729056735 M253.5303007368713,58.33235540935084 L242.395969138174,51.98810808543129 M-16.730028702624338,211.4410375729962 L-27.863685026981557,205.02887729056735 M242.395969138174,51.98810808543129 L242.46510360570778,77.97264512547576 M-27.863685026981557,205.02887729056735 L-27.674026265671728,231.08400393838104" stroke="black"  stroke-width="4"  fill="red"/>
<path d="M816.4124860352695,405.29889497277344 L546.2728258783068,561.93234693819 M827.7972591427988,411.79171156316403 L557.658295015168,568.4954347644143 M816.4124860352695,405.29889497277344 L827.7972591427988,411.79171156316403 M546.2728258783068,561.93234693819 L557.658295015168,568.4954347644143 M827.9893016516023,385.65420198351865 L557.7298135262113,542.2873001912919 M827.7972591427988,411.79171156316403 L827.9893016516023,385.65420198351865 M557.658295015168,568.4954347644143 L557.7298135262113,542.2873001912919 M816.5993911486764,379.16432797650407 L546.3392060569277,535.7271551069234 M827.9893016516023,385.65420198351865 L816.5993911486764,379.16432797650407 M557.7298135262113,542.2873001912919 L546.3392060569277,535.7271551069234 M816.5993911486764,379.16432797650407 L816.4124860352695,405.29889497277344 M546.3392060569277,535.7271551069234 L546.2728258783068,561.93234693819" stroke="black"  stroke-width="4"  fill="red"/>
<path d="M557.658295015168,568.4954347644143 L-27.674026265671728,231.08400393838104 M546.3392060569277,575.061475278897 L-38.992390309059886,237.4991060342804 M557.658295015168,568.4954347644143 L546.3392060569277,575.061475278897 M-27.674026265671728,231.08400393838104 L-38.992390309059886,237.4991060342804 M546.405645990407,548.8503979683956 L-39.187126678388324,211.4410375729962 M546.3392060569277,575.061475278897 L546.405645990407,548.8503979683956 M-38.992390309059886,237.4991060342804 L-39.187126678388324,211.4410375729962 M-39.187126678388324,211.4410375729962 L-27.863685026981557,205.02887729056735 M557.7298135262113,542.2873001912919 L-27.863685026981557,205.02887729056735 M546.405645990407,548.8503979683956 L557.7298135262113,542.2873001912919 M-27.863685026981557,205.02887729056735 L-27.674026265671728,231.08400393838104 M557.7298135262113,542.2873001912919 L557.658295015168,568.4954347644143" stroke="black"  stroke-width="4"  fill="red"/>
<path d="M838.9901185858782,405.29889497277344 L253.6586933382748,71.62826349233899 M827.7972591427988,411.79171156316403 L242.46510360570778,77.97264512547576 M838.9901185858782,405.29889497277344 L827.7972591427988,411.79171156316403 M253.6586933382748,71.62826349233899 L242.46510360570778,77.97264512547576 M242.46510360570778,77.97264512547576 L242.395969138174,51.98810808543129 M827.9893016516023,385.65420198351865 L242.395969138174,51.98810808543129 M827.7972591427988,411.79171156316403 L827.9893016516023,385.65420198351865 M242.395969138174,51.98810808543129 L253.59452543359242,45.646667019313156 M839.1871266783883,379.16432797650407 L253.59452543359242,45.646667019313156 M827.9893016516023,385.65420198351865 L839.1871266783883,379.16432797650407 M839.1871266783883,379.16432797650407 L838.9901185858782,405.29889497277344 M253.59452543359242,45.646667019313156 L253.6586933382748,71.62826349233899" stroke="black"  stroke-width="4"  fill="red"/>
<path d="M287.3082461599601,220.27771500354444 L287.2990230669697,215.42774578843884 M-4.693831835494109,386.7487994905403 L-4.7274193898763315,381.8846937799088 M287.3082461599601,220.27771500354444 L-4.693831835494109,386.7487994905403 M287.2990230669697,215.42774578843884 L-4.7274193898763315,381.8846937799088 M803.9455749853319,516.1170076379772 L803.9794628083021,511.2420259958858 M803.9455749853319,516.1170076379772 L287.3082461599601,220.27771500354444 M803.9794628083021,511.2420259958858 L287.2990230669697,215.42774578843884 M511.94360351935376,686.0308400211032 L511.9531269164941,681.1417197365218 M-4.693831835494109,386.7487994905403 L511.94360351935376,686.0308400211032 M-4.7274193898763315,381.8846937799088 L511.9531269164941,681.1417197365218 M511.94360351935376,686.0308400211032 L803.9455749853319,516.1170076379772 M679.8151688864482,483.66689662338035 L651.8472320188384,499.88291209529467 M314.91300848645034,306.4754253709393 L651.8472320188384,499.88291209529467 M314.91300848645034,306.4754253709393 L342.881674959725,290.4740352294748 M679.8151688864482,483.66689662338035 L342.881674959725,290.4740352294748 M511.9531269164941,681.1417197365218 L803.9794628083021,511.2420259958858 M342.8770409369145,285.6180856439918 L679.838649705514,478.79463402265674 M679.838649705514,478.79463402265674 L651.8683883123917,495.009289975846 M651.8683883123917,495.009289975846 L606.2300859370305,468.8163187099408 M623.0161255551891,459.1028548508639 L606.2300859370305,468.8163187099408 M601.3514725988487,446.6772318173361 L623.0161255551891,459.1028548508639 M601.3514725988487,446.6772318173361 L584.5653744443341,456.38239509584355 M584.5653744443341,456.38239509584355 L493.6124021376922,404.18219337531053 M510.39867856004446,394.5118389606028 L493.6124021376922,404.18219337531053 M488.83013661932904,382.14133978490605 L510.39867856004446,394.5118389606028 M488.83013661932904,382.14133978490605 L472.04383391112066,391.8034488032886 M472.04383391112066,391.8034488032886 L381.4940552853308,339.83465009179594 M398.28040146445477,330.2071187711799 L381.4940552853308,339.83465009179594 M376.80733770869864,317.89138049733657 L398.28040146445477,330.2071187711799 M376.80733770869864,317.89138049733657 L360.0209970680681,327.5107211198122 M360.0209970680681,327.5107211198122 L314.9060497554818,301.61811650664504 M314.9060497554818,301.61811650664504 L342.8770409369145,285.6180856439918 M584.5653744443341,456.38239509584355 L591.743994153361,461.94749006103945 M591.743994153361,461.94749006103945 L599.0376361310373,466.13370291364225 M599.0376361310373,466.13370291364225 L606.2300859370305,468.8163187099408 M651.8683883123917,495.009289975846 L651.8472320188384,499.88291209529467 M314.91300848645034,306.4754253709393 L314.9060497554818,301.61811650664504 M360.0209970680681,327.5107211198122 L367.1416278814017,333.03612927715994 M367.1416278814017,333.03612927715994 L374.37074945261037,337.18531040327593 M374.37074945261037,337.18531040327593 L381.4940552853308,339.83465009179594 M472.04383391112066,391.8034488032886 L479.19336196308626,397.3486374596115 M479.19336196308626,397.3486374596115 L486.45464628706407,401.51627851691546 M486.45464628706407,401.51627851691546 L493.6124021376922,404.18219337531053 M679.838649705514,478.79463402265674 L679.8151688864482,483.66689662338035 M342.881674959725,290.4740352294748 L342.8770409369145,285.6180856439918 M376.80733770869864,317.89138049733657 L383.92755779783516,323.41383168576897 M383.92755779783516,323.41383168576897 L391.1566812337346,327.5602552616882 M391.1566812337346,327.5602552616882 L398.28040146445477,330.2071187711799 M488.83013661932904,382.14133978490605 L495.9792434046473,387.6835533250932 M495.9792434046473,387.6835533250932 L503.24051887984757,391.8484184140053 M503.24051887984757,391.8484184140053 L510.39867856004446,394.5118389606028 M601.3514725988487,446.6772318173361 L608.5296603699071,452.23933336154585 M608.5296603699071,452.23933336154585 L615.8232826419028,456.42275167091793 M615.8232826419028,456.42275167091793 L623.0161255551891,459.1028548508639" stroke="black"  stroke-width="4"  fill="red"/>
<path d="M287.12349372072333,123.12552932775043 L287.1142400137947,118.25946175411576 M-5.366647238570408,289.31255250856026 L-5.4003469242585425,284.4322080887973 M287.12349372072333,123.12552932775043 L-5.366647238570408,289.31255250856026 M287.1142400137947,118.25946175411576 L-5.4003469242585425,284.4322080887973 M804.6244100721137,418.46220729916587 L804.6584115346741,413.57087786997084 M804.6244100721137,418.46220729916587 L287.12349372072333,123.12552932775043 M804.6584115346741,413.57087786997084 L287.1142400137947,118.25946175411576 M512.1343763563627,588.091907787002 L512.1439318760238,583.1862964474064 M-5.366647238570408,289.31255250856026 L512.1343763563627,588.091907787002 M-5.4003469242585425,284.4322080887973 L512.1439318760238,583.1862964474064 M512.1343763563627,588.091907787002 L804.6244100721137,418.46220729916587 M484.63104734111545,287.0864997398618 L467.8181825495606,296.73137713328765 M385.79382975867867,249.80587619298348 L467.8181825495606,296.73137713328765 M402.6067340450765,240.192270325449 L385.79382975867867,249.80587619298348 M372.4500759307278,222.95136714492133 L402.6067340450765,240.192270325449 M372.4500759307278,222.95136714492133 L355.637179446306,232.55348864659885 M355.637179446306,232.55348864659885 L314.77361397148877,209.1757573403681 M314.77361397148877,209.1757573403681 L342.78884814973617,193.2016807503256 M680.2855318132176,386.06673666142865 L342.78884814973617,193.2016807503256 M680.2855318132176,386.06673666142865 L652.271030905159,402.2554320565787 M652.271030905159,402.2554320565787 L610.9255687205859,378.6020113515613 M627.738152018384,368.90245317975837 L610.9255687205859,378.6020113515613 M597.3119987210355,351.5074765491785 L627.738152018384,368.90245317975837 M597.3119987210355,351.5074765491785 L580.4993329521642,361.19539604060566 M498.1091676852474,314.0606165981971 L580.4993329521642,361.19539604060566 M514.9219954429379,304.404178028008 L498.1091676852474,314.0606165981971 M484.63104734111545,287.0864997398618 L514.9219954429379,304.404178028008 M512.1439318760238,583.1862964474064 L804.6584115346741,413.57087786997084 M342.78419870781954,188.32957362630134 L680.309091285058,381.1781536346339 M680.309091285058,381.1781536346339 L652.2922581047005,397.36547583819095 M652.2922581047005,397.36547583819095 L314.7666320734034,204.30227744688432 M314.7666320734034,204.30227744688432 L342.78419870781954,188.32957362630134 M652.2922581047005,397.36547583819095 L652.271030905159,402.2554320565787 M580.4993329521642,361.19539604060566 L587.980360659612,363.0343037172579 M587.980360659612,363.0343037172579 L595.7188655656635,366.6380417936401 M595.7188655656635,366.6380417936401 L603.4541953157775,371.8860199676419 M603.4541953157775,371.8860199676419 L610.9255687205859,378.6020113515613 M467.8181825495606,296.73137713328765 L475.2612908657404,298.5540217449384 M475.2612908657404,298.5540217449384 L482.96382399757067,302.1390136706782 M482.96382399757067,302.1390136706782 L490.6663411653961,307.3663903080932 M490.6663411653961,307.3663903080932 L498.1091676852474,314.0606165981971 M355.637179446306,232.55348864659885 L363.04263761548555,234.360000117874 M363.04263761548555,234.360000117874 L370.7094431013684,237.92637741372278 M370.7094431013684,237.92637741372278 L378.3793638465546,243.13328429880295 M378.3793638465546,243.13328429880295 L385.79382975867867,249.80587619298348 M314.77361397148877,209.1757573403681 L314.7666320734034,204.30227744688432 M484.63104734111545,287.0864997398618 L492.0748457233463,288.90671608527254 M492.0748457233463,288.90671608527254 L499.7776051580695,292.4889074527927 M499.7776051580695,292.4889074527927 L507.4798771878519,297.71320524556023 M507.4798771878519,297.71320524556023 L514.9219954429379,304.404178028008 M597.3119987210355,351.5074765491785 L604.7937053182648,353.34393696792955 M604.7937053182648,353.34393696792955 L612.5324249682071,356.9448547967626 M612.5324249682071,356.9448547967626 L620.2674980294155,362.18973440062314 M620.2674980294155,362.18973440062314 L627.738152018384,368.90245317975837 M680.309091285058,381.1781536346339 L680.2855318132176,386.06673666142865 M342.78884814973617,193.2016807503256 L342.78419870781954,188.32957362630134 M372.4500759307278,222.95136714492133 L379.85623517372295,224.75546915891601 M379.85623517372295,224.75546915891601 L387.52327836157065,228.31906540691517 M387.52327836157065,228.31906540691517 L395.1929653736379,233.52291300159817 M395.1929653736379,233.52291300159817 L402.6067340450765,240.192270325449" stroke="black"  stroke-width="4"  fill="red"/>
<path d="M539.3176997776611,318.06607563256034 L567.3420570647643,301.9548943899364 M539.0051354914701,448.10488491280313 L566.9673969754058,431.95726656079705 M539.3176997776611,318.06607563256034 L539.0051354914701,448.10488491280313 M567.3420570647643,301.9548943899364 L566.9673969754058,431.95726656079705 M426.78205417750087,253.7288062950747 L454.80665489114097,237.68916265622147 M426.78205417750087,253.7288062950747 L539.3176997776611,318.06607563256034 M454.80665489114097,237.68916265622147 L567.3420570647643,301.9548943899364 M426.71981866213156,383.62187125423765 L454.682321954566,367.54579346706186 M539.0051354914701,448.10488491280313 L426.71981866213156,383.62187125423765 M566.9673969754058,431.95726656079705 L454.682321954566,367.54579346706186 M426.71981866213156,383.62187125423765 L426.78205417750087,253.7288062950747 M482.8234826745043,399.61341275361553 L473.4544977752559,393.0153001843157 M473.4544977752559,393.0153001843157 L464.56091589283005,384.31038029895194 M464.56091589283005,384.31038029895194 L456.5870728762635,373.93444007223366 M456.5870728762635,373.93444007223366 L449.931274999458,362.4062568856108 M449.931274999458,362.4062568856108 L444.92611682697594,350.3019169193874 M444.92611682697594,350.3019169193874 L441.8220416074344,338.22627970849345 M441.8220416074344,338.22627970849345 L440.77488326175643,326.78310218362526 M440.77488326175643,326.78310218362526 L441.83802153876707,316.5450900283363 M441.83802153876707,316.5450900283363 L444.95952759795057,308.0254084556005 M444.95952759795057,308.0254084556005 L449.9845012839186,301.65196780902033 M449.9845012839186,301.65196780902033 L456.6625119974614,297.7458936788572 M456.6625119974614,297.7458936788572 L464.6598566346372,296.505016360491 M464.6598566346372,296.505016360491 L473.57605239097677,297.9936783614445 M473.57605239097677,297.9936783614445 L482.9638239975709,302.13901367067837 M482.9638239975709,302.13901367067837 L492.3515571731115,308.7342455505649 M492.3515571731115,308.7342455505649 L501.267123087072,317.448896453369 M501.267123087072,317.448896453369 L509.2618316774534,327.84525824451777 M509.2618316774534,327.84525824451777 L515.9332440251237,339.40047404799145 M515.9332440251237,339.40047404799145 L520.945672851424,351.5331506910561 M520.945672851424,351.5331506910561 L524.047234931101,363.63277525472125 M524.047234931101,363.63277525472125 L525.0825940718519,375.0908633916447 M525.0825940718519,375.0908633916447 L524.0007075163469,385.3317499907944 M524.0007075163469,385.3317499907944 L520.8572174336532,393.84170673321313 M520.8572174336532,393.84170673321313 L515.811378203698,400.1947258366335 M515.811378203698,400.1947258366335 L509.1177530460485,404.07376738332385 M509.1177530460485,404.07376738332385 L501.113137746007,405.2863080525796 M501.113137746007,405.2863080525796 L492.1994551122879,403.7736524952943 M492.1994551122879,403.7736524952943 L482.8234826745043,399.61341275361553 M454.682321954566,367.54579346706186 L454.80665489114097,237.68916265622147 M482.8234826745043,399.61341275361553 L499.60930783728605,389.9469104213703 M499.60930783728605,389.9469104213703 L490.2406836616811,383.3525843982325 M490.2406836616811,383.3525843982325 L481.348143193848,374.6516685544286 M481.348143193848,374.6516685544286 L473.3759705415918,364.27974990960683 M473.3759705415918,364.27974990960683 L466.7223889157644,352.7554053812623 M466.7223889157644,352.7554053812623 L461.7198825125741,340.65452999119265 M461.7198825125741,340.65452999119265 L458.6187623038143,328.58181074875415 M458.6187623038143,328.58181074875415 L457.5747145088371,317.14085910100096 M457.5747145088371,317.14085910100096 L458.6409630697693,306.9042694222453 M458.6409630697693,306.9042694222453 L461.76542300920283,298.38513531131036 M461.76542300920283,298.38513531131036 L466.79304557600403,292.01133884179916 M466.79304557600403,292.01133884179916 L473.47326664195845,288.1040222471918 M473.47326664195845,288.1040222471918 L481.4722715066514,286.86107679752104 M481.4722715066514,286.86107679752104 L490.38949341344284,288.3469474949677 M490.38949341344284,288.3469474949677 L499.77760515806966,292.4889074527928 M499.77760515806966,292.4889074527928 L509.16497523968025,299.0803488822305 M509.16497523968025,299.0803488822305 L518.0794932043193,307.7909845879609 M518.0794932043193,307.7909845879609 L526.0725220237302,318.1833085989167 M526.0725220237302,318.1833085989167 L532.7417077149105,329.73466771716437 M532.7417077149105,329.73466771716437 L537.7514754149772,341.86386349100405 M537.7514754149772,341.86386349100405 L540.8500760405029,353.960558760966 M540.8500760405029,353.960558760966 L541.8823223701781,365.4164169024848 M541.8823223701781,365.4164169024848 L540.7973279028379,375.6558849304836 M540.7973279028379,375.6558849304836 L537.6508904728348,384.1653053655865 M537.6508904728348,384.1653053655865 L532.6024117686757,390.51869649020637 M532.6024117686757,390.51869649020637 L525.9065866640985,394.39899852824016 M525.9065866640985,394.39899852824016 L517.9003204934775,395.6136236218384 M517.9003204934775,395.6136236218384 L508.98561815447647,394.1037706943582 M508.98561815447647,394.1037706943582 L499.60930783728605,389.9469104213703" stroke="black"  stroke-width="4"  fill="red"/>
<path d="M652.3559610348118,382.6906932029065 L680.3797933625863,366.50749469516677 M651.7908325205831,512.8752560297401 L679.7525725419346,496.6556185014034 M652.3559610348118,382.6906932029065 L651.7908325205831,512.8752560297401 M680.3797933625863,366.50749469516677 L679.7525725419346,496.6556185014034 M539.3176997776611,318.06607563256034 L567.3420570647643,301.9548943899364 M539.3176997776611,318.06607563256034 L652.3559610348118,382.6906932029065 M567.3420570647643,301.9548943899364 L680.3797933625863,366.50749469516677 M539.0051354914701,448.10488491280313 L566.9673969754058,431.95726656079705 M651.7908325205831,512.8752560297401 L539.0051354914701,448.10488491280313 M679.7525725419346,496.6556185014034 L566.9673969754058,431.95726656079705 M539.0051354914701,448.10488491280313 L539.3176997776611,318.06607563256034 M595.3899415688081,464.2217526770799 L585.9815485038703,457.59830426841404 M585.9815485038703,457.59830426841404 L577.0552709487802,448.86660546695674 M577.0552709487802,448.86660546695674 L569.0570657291667,438.4637763822437 M569.0570657291667,438.4637763822437 L562.3864523553814,426.9099351011993 M562.3864523553814,426.9099351011993 L557.3767710594213,414.7824500683736 M557.3767710594213,414.7824500683736 L554.2786811569474,402.68732727792747 M554.2786811569474,402.68732727792747 L553.2477292002795,391.229299711431 M553.2477292002795,391.229299711431 L554.33648851112,380.9818141211008 M554.33648851112,380.9818141211008 L557.4917593792409,372.45851421703685 M557.4917593792409,372.45851421703685 L562.5569519396424,366.0874927225043 M562.5569519396424,366.0874927225043 L569.279638554905,362.18976803335795 M569.279638554905,362.18976803335795 L577.323873214809,360.9627561128732 M577.323873214809,360.9627561128732 L586.2868212962492,362.4701119067304 M586.2868212962492,362.4701119067304 L595.7188655656635,366.6380417936401 M595.7188655656635,366.6380417936401 L605.146158816912,373.2586357910907 M605.146158816912,373.2586357910907 L614.0945732074197,382.00014038676 M614.0945732074197,382.00014038676 L622.113772832834,392.4235025914755 M622.113772832834,392.4235025914755 L628.8000595842543,404.0044909589103 M628.8000595842543,404.0044909589103 L633.8170243483291,416.1604278126098 M633.8170243483291,416.1604278126098 L636.9125351845751,428.2796136322383 M636.9125351845751,428.2796136322383 L637.9315616478036,439.7525761323708 M637.9315616478036,439.7525761323708 L636.8239075538277,450.002912971347 M636.8239075538277,450.002912971347 L633.6464998292035,458.5164132700317 M633.6464998292035,458.5164132700317 L628.5603075128683,464.86689857522174 M628.5603075128683,464.86689857522174 L621.821947541307,468.73747621493345 M621.821947541307,468.73747621493345 L613.770434798198,469.9360394253485 M613.770434798198,469.9360394253485 L604.8100657864347,468.4046144016997 M604.8100657864347,468.4046144016997 L595.3899415688081,464.2217526770799 M566.9673969754058,431.95726656079705 L567.3420570647643,301.9548943899364 M595.3899415688081,464.2217526770799 L612.1755460813449,454.51216849245446 M612.1755460813449,454.51216849245446 L602.7675277324838,447.8925306106494 M602.7675277324838,447.8925306106494 L593.8423048457555,439.1648586323592 M593.8423048457555,439.1648586323592 L585.8457818482464,428.76607158030447 M585.8457818482464,428.76607158030447 L579.1773945995269,417.2160860609779 M579.1773945995269,417.2160860609779 L574.170372473231,405.092078508649 M574.170372473231,405.092078508649 L571.0752421395116,392.9998817556383 M571.0752421395116,392.9998817556383 L570.0474022196995,381.5440828955138 M570.0474022196995,381.5440828955138 L571.1392701503726,371.298017229568 M571.1392701503726,371.298017229568 L574.2974901616494,362.77525697590744 M574.2974901616494,362.77525697590744 L579.3653240230612,356.4038669747127 M579.3653240230612,356.4038669747127 L586.0902109413321,352.50488288772135 M586.0902109413321,352.50488288772135 L594.1360938085218,351.2757824960655 M594.1360938085218,351.2757824960655 L603.1000546496921,352.78032425346805 M603.1000546496921,352.78032425346805 L612.5324249682071,356.9448547967626 M612.5324249682071,356.9448547967626 L621.9593410488005,363.5616342977249 M621.9593410488005,363.5616342977249 L630.9066941375925,372.29910080857206 M630.9066941375925,372.29910080857206 L638.9242020407992,382.7184046543451 M638.9242020407992,382.7184046543451 L645.6082521919504,394.2955191164771 M645.6082521919504,394.2955191164771 L650.6225483971782,406.44796210079795 M650.6225483971782,406.44796210079795 L653.7150932329814,418.56421051329255 M653.7150932329814,418.56421051329255 L654.7310054522595,430.0349402024257 M654.7310054522595,430.0349402024257 L653.6202451948111,440.2838610856745 M653.6202451948111,440.2838610856745 L650.4398949586011,448.7968329945899 M650.4398949586011,448.7968329945899 L645.3510708413426,455.1477031347609 M645.3510708413426,455.1477031347609 L638.6105210419482,459.01955831585303 M638.6105210419482,459.01955831585303 L630.5573694807163,460.22022638422493 M630.5573694807163,460.22022638422493 L621.5959941427082,458.6916267677722 M621.5959941427082,458.6916267677722 L612.1755460813449,454.51216849245446" stroke="black"  stroke-width="4"  fill="red"/>
<path d="M426.78205417750087,253.7288062950747 L454.80665489114097,237.68916265622147 M426.71981866213156,383.62187125423765 L454.682321954566,367.54579346706186 M426.78205417750087,253.7288062950747 L426.71981866213156,383.62187125423765 M454.80665489114097,237.68916265622147 L454.682321954566,367.54579346706186 M314.74567940963954,189.67697293512893 L342.7702457434511,173.7083914888904 M314.74567940963954,189.67697293512893 L426.78205417750087,253.7288062950747 M342.7702457434511,173.7083914888904 L454.80665489114097,237.68916265622147 M314.93155945487945,319.42430696999077 L342.8940285951391,303.4192953676578 M426.71981866213156,383.62187125423765 L314.93155945487945,319.42430696999077 M454.682321954566,367.54579346706186 L342.8940285951391,303.4192953676578 M314.93155945487945,319.42430696999077 L314.74567940963954,189.67697293512893 M370.75601622833847,335.29147318444154 L361.4261816193861,328.718536401904 M361.4261816193861,328.718536401904 L352.56510024796,320.04024790832057 M352.56510024796,320.04024790832057 L344.6154769579637,309.69105757615296 M344.6154769579637,309.69105757615296 L337.9744342399474,298.1884218318388 M337.9744342399474,298.1884218318388 L332.9738030108528,286.1071380503869 M332.9738030108528,286.1071380503869 L329.863820567025,274.0509296252508 M329.863820567025,274.0509296252508 L328.8006147973332,262.6225862539925 M328.8006147973332,262.6225862539925 L329.8383429333542,252.39406128099452 M329.8383429333542,252.39406128099452 L332.92635760631265,243.8780528349472 M332.92635760631265,243.8780528349472 L337.91142430505266,237.5022801923961 M337.91142430505266,237.5022801923961 L344.5450835979327,233.5879659320193 M344.5450835979327,233.5879659320193 L352.4958800473062,232.33336127562436 M352.4958800473062,232.33336127562436 L361.3656430974303,233.80347658946243 M361.3656430974303,233.80347658946243 L370.7094431013684,237.92637741372278 M370.7094431013684,237.92637741372278 L380.05787554030707,244.49640766092998 M380.05787554030707,244.49640766092998 L388.94078949764565,253.18435310030745 M388.94078949764565,253.18435310030745 L396.9111506140536,263.5538543042903 M396.9111506140536,263.5538543042903 L403.5677492445511,275.0834089385859 M403.5677492445511,275.0834089385859 L408.5756382409609,287.1929149215915 M408.5756382409609,287.1929149215915 L411.6831726909871,299.27303532788477 M411.6831726909871,299.27303532788477 L412.73470422282867,310.7162648774412 M412.73470422282867,310.7162648774412 L411.67837291562716,320.94768709498817 M411.67837291562716,320.94768709498817 L408.56852565935475,329.4540447704614 M408.56852565935475,329.4540447704614 L403.5627265037571,335.80950961425845 M403.5627265037571,335.80950961425845 L396.91351131941366,339.69690502095744 M396.91351131941366,339.69690502095744 L388.9554517672542,340.9232844433893 M388.9554517672542,340.9232844433893 L380.08813669101767,339.4292509616872 M380.08813669101767,339.4292509616872 L370.75601622833847,335.29147318444154 M342.8940285951391,303.4192953676578 L342.7702457434511,173.7083914888904 M370.75601622833847,335.29147318444154 L387.5418952210745,325.6677666052957 M387.5418952210745,325.6677666052957 L378.21240751794073,319.0985925948416 M378.21240751794073,319.0985925948416 L369.3523544521357,310.42428554250915 M369.3523544521357,310.42428554250915 L361.4043897764941,300.07909649597957 M361.4043897764941,300.07909649597957 L354.7655535009298,288.58028241802384 M354.7655535009298,288.58028241802384 L349.7675666607605,276.50245037938504 M349.7675666607605,276.50245037938504 L346.6605346432286,264.4491518767916 M346.6605346432286,264.4491518767916 L345.6004378663218,253.02303152338064 M345.6004378663218,253.02303152338064 L346.64127783685575,242.79593150547637 M346.64127783685575,242.79593150547637 L349.7322509775252,234.2804782110553 M349.7322509775252,234.2804782110553 L354.71997395857034,227.90436226975072 M354.71997395857034,227.90436226975072 L361.35585345502074,223.98882229260715 M361.35585345502074,223.98882229260715 L369.30832194393605,222.73216963413654 M369.30832194393605,222.73216963413654 L378.17912432749375,224.19951616091066 M378.17912432749375,224.19951616091066 L387.52327836157065,228.31906540691517 M387.52327836157065,228.31906540691517 L396.8713616073498,234.88532904216973 M396.8713616073498,234.88532904216973 L405.753240821612,243.56928198971343 M405.753240821612,243.56928198971343 L413.7219340093355,253.93476583645034 M413.7219340093355,253.93476583645034 L420.3763158609796,265.46048089307055 M420.3763158609796,265.46048089307055 L425.38155114370863,277.5665189352818 M425.38155114370863,277.5665189352818 L428.4861287129678,289.64371813810726 M428.4861287129678,289.64371813810726 L429.53454893946287,301.0847205383479 M429.53454893946287,301.0847205383479 L428.47510808688463,311.314721643794 M428.47510808688463,311.314721643794 L425.36230879857277,319.82053521720263 M425.36230879857277,319.82053521720263 L420.3538626749718,326.1763594293014 M420.3538626749718,326.1763594293014 L413.70243762343136,330.06499846403585 M413.70243762343136,330.06499846403585 L405.74271535647904,331.29344208852444 M405.74271535647904,331.29344208852444 L396.87436740307606,329.80218867585387 M396.87436740307606,329.80218867585387 L387.5418952210745,325.6677666052957" stroke="black"  stroke-width="4"  fill="red"/>
<path d="M264.6695606664743,64.67941085425025 L264.65843408826026,59.80364576261667 M-5.591418031254534,217.85605119185067 L-5.62515521885058,212.96702943244028 M264.6695606664743,64.67941085425025 L-5.591418031254534,217.85605119185067 M264.65843408826026,59.80364576261667 L-5.62515521885058,212.96702943244028 M534.9537219914309,529.169960723144 L534.9652118369263,524.2544146693476 M-5.591418031254534,217.85605119185067 L534.9537219914309,529.169960723144 M-5.62515521885058,212.96702943244028 L534.9652118369263,524.2544146693476 M805.2145762325995,372.6773573914812 L805.2486766458189,367.77507458626087 M534.9537219914309,529.169960723144 L805.2145762325995,372.6773573914812 M534.9652118369263,524.2544146693476 L805.2486766458189,367.77507458626087 M805.2145762325995,372.6773573914812 L264.6695606664743,64.67941085425025 M805.2486766458189,367.77507458626087 L264.65843408826026,59.80364576261667" stroke="black"  stroke-width="4"  fill="red"/></svg>