<svg viewBox="0 0 800 800" xmlns="http://www.w3.org/2000/svg"><path d="M333.4954336282856,306.70981057066024 L322.7945782400667,312.8254370170445 M322.7945782400667,312.8254370170445 L322.7333361695503,288.07746874399777 M333.43892742556415,281.9646041500802 L322.7333361695503,288.07746874399777 M333.43892742556415,281.9646041500802 L333.4954336282856,306.70981057066024 M322.7945782400667,312.8254370170445 L344.08797506578924,325.0647882895702 M344.08797506578924,325.0647882895702 L354.7888543538206,318.9437623277035 M354.7888543538206,318.9437623277035 L333.4954336282856,306.70981057066024 M344.08797506578924,325.0647882895702 L343.63258922469845,107.72792144609758 M322.2568706909109,95.53739867239096 L343.63258922469845,107.72792144609758 M322.67204001021025,263.30764313531563 L322.2568706909109,95.53739867239096 M333.32576526870054,269.42043741844833 L322.67204001021025,263.30764313531563 M333.38237132774094,294.1930321743804 L333.32576526870054,269.42043741844833 M322.7333361695503,288.07746874399777 L333.38237132774094,294.1930321743804 M344.0879750657892,288.07746874399777 L333.43892742556415,281.9646041500802 M344.0879750657892,288.07746874399777 L333.38237132774094,294.1930321743804 M344.03610908480914,263.30764313531563 L344.0879750657892,288.07746874399777 M333.38237132774094,257.19754765760587 L344.03610908480914,263.30764313531563 M332.99930754195344,89.44618594803302 L333.38237132774094,257.19754765760587 M354.3750502545356,101.63130990720362 L332.99930754195344,89.44618594803302 M354.7888543538206,318.9437623277035 L354.3750502545356,101.63130990720362 M343.63258922469845,107.72792144609758 L354.3750502545356,101.63130990720362 M332.99930754195344,89.44618594803302 L322.2568706909109,95.53739867239096 M333.38237132774094,257.19754765760587 L322.67204001021025,263.30764313531563 M344.03610908480914,263.30764313531563 L333.32576526870054,269.42043741844833" stroke="black"  stroke-width="4"  fill="red"/>
<path d="M322.7945782400667,312.8254370170445 L312.08900049730755,318.9437623277035 M312.08900049730755,318.9437623277035 L312.02301838318056,294.1930321743804 M322.7333361695503,288.07746874399777 L312.02301838318056,294.1930321743804 M322.7333361695503,288.07746874399777 L322.7945782400667,312.8254370170445 M312.08900049730755,318.9437623277035 L333.38237132774094,331.18851669115503 M333.38237132774094,331.18851669115503 L344.08797506578924,325.0647882895702 M344.08797506578924,325.0647882895702 L322.7945782400667,312.8254370170445 M333.38237132774094,331.18851669115503 L332.8853669932969,113.82723508428825 M311.5096747583084,101.63130990720362 L332.8853669932969,113.82723508428825 M311.9569779809667,269.42043741844833 L311.5096747583084,101.63130990720362 M322.61068969035824,275.53593229547687 L311.9569779809667,269.42043741844833 M322.6720400102102,300.31129622893195 L322.61068969035824,275.53593229547687 M312.02301838318056,294.1930321743804 L322.6720400102102,300.31129622893195 M333.38237132774094,294.1930321743804 L322.7333361695503,288.07746874399777 M333.38237132774094,294.1930321743804 L322.6720400102102,300.31129622893195 M333.32576526870054,269.42043741844833 L333.38237132774094,294.1930321743804 M322.67204001021025,263.30764313531563 L333.32576526870054,269.42043741844833 M322.2568706909109,95.53739867239096 L322.67204001021025,263.30764313531563 M343.63258922469845,107.72792144609758 L322.2568706909109,95.53739867239096 M344.08797506578924,325.0647882895702 L343.63258922469845,107.72792144609758 M332.8853669932969,113.82723508428825 L343.63258922469845,107.72792144609758 M322.67204001021025,263.30764313531563 L311.9569779809667,269.42043741844833 M322.2568706909109,95.53739867239096 L311.5096747583084,101.63130990720362 M333.32576526870054,269.42043741844833 L322.61068969035824,275.53593229547687" stroke="black"  stroke-width="4"  fill="red"/>
<path d="M591.4148230069945,703.6262802828455 L580.6184349816159,709.9183033643342 M580.6184349816159,709.9183033643342 L581.0328818577337,516.165939275028 M591.8667442500486,509.89551817048994 L581.0328818577337,516.165939275028 M591.4148230069945,703.6262802828455 L591.8667442500486,509.89551817048994 M580.6184349816159,709.9183033643342 L602.3323433610274,722.5108008679177 M602.3323433610274,722.5108008679177 L613.128704275321,716.2131429288493 M613.128704275321,716.2131429288493 L591.4148230069945,703.6262802828455 M602.3323433610274,722.5108008679177 L602.3954089172944,697.5805268438476 M591.5311475336509,691.2856308748073 L602.3954089172944,697.5805268438476 M591.5893879720643,666.3357823404301 L591.5311475336509,691.2856308748073 M602.4585309965784,672.6279088591912 L591.5893879720643,666.3357823404301 M602.4585309965784,672.6279088591912 L602.8860892766143,503.61100464859135 M586.5346125231732,494.2022080156308 L602.8860892766143,503.61100464859135 M586.4784723374431,519.3022059278649 L586.5346125231732,494.2022080156308 M581.0328818577337,516.165939275028 L586.4784723374431,519.3022059278649 M597.3123282952535,513.030376768274 L586.4784723374431,519.3022059278649 M597.3123282952535,513.030376768274 L591.8667442500486,509.89551817048994 M597.3733228322257,487.93319923779933 L597.3123282952535,513.030376768274 M613.7247785967239,497.33776886035673 L597.3733228322257,487.93319923779933 M613.2645378015577,666.3357823404301 L613.7247785967239,497.33776886035673 M602.3954089172944,660.0464742434021 L613.2645378015577,666.3357823404301 M602.3323433610275,684.9935533055742 L602.3954089172944,660.0464742434021 M613.1965906234088,691.2856308748073 L602.3323433610275,684.9935533055742 M613.128704275321,716.2131429288493 L613.1965906234088,691.2856308748073 M613.1965906234088,691.2856308748073 L602.3954089172944,697.5805268438476 M602.3323433610275,684.9935533055742 L591.5311475336509,691.2856308748073 M602.3954089172944,660.0464742434021 L591.5893879720643,666.3357823404301 M613.2645378015577,666.3357823404301 L602.4585309965784,672.6279088591912 M602.8860892766143,503.61100464859135 L613.7247785967239,497.33776886035673 M597.3733228322257,487.93319923779933 L586.5346125231732,494.2022080156308" stroke="black"  stroke-width="4"  fill="red"/>
<path d="M580.6184349816159,709.9183033643342 L569.8172141952589,716.2131429288493 M569.8172141952589,716.2131429288493 L570.1941530477243,522.4391769640038 M581.0328818577337,516.165939275028 L570.1941530477243,522.4391769640038 M580.6184349816159,709.9183033643342 L581.0328818577337,516.165939275028 M569.8172141952589,716.2131429288493 L591.5311475336509,728.8112790747601 M591.5311475336509,728.8112790747601 L602.3323433610274,722.5108008679177 M602.3323433610274,722.5108008679177 L580.6184349816159,709.9183033643342 M591.5311475336509,728.8112790747601 L592.0425269928899,509.8870608193317 M575.6910308836448,500.4740343254972 L592.0425269928899,509.8870608193317 M575.639749418286,525.5768526207708 L575.6910308836448,500.4740343254972 M570.1941530477243,522.4391769640038 L575.639749418286,525.5768526207708 M586.4784723374431,519.3022059278649 L575.639749418286,525.5768526207708 M586.4784723374431,519.3022059278649 L581.0328818577337,516.165939275028 M586.5346125231732,494.2022080156308 L586.4784723374431,519.3022059278649 M602.8860892766143,503.61100464859135 L586.5346125231732,494.2022080156308 M602.3323433610274,722.5108008679177 L602.8860892766143,503.61100464859135 M592.0425269928899,509.8870608193317 L602.8860892766143,503.61100464859135 M586.5346125231732,494.2022080156308 L575.6910308836448,500.4740343254972" stroke="black"  stroke-width="4"  fill="red"/>
<path d="M806.3326763941549,578.3743820593594 L795.632266451622,584.6104701085796 M795.632266451622,584.6104701085796 L796.7898507928705,391.2901560620412 M807.5270690424251,385.07567063865275 L796.7898507928705,391.2901560620412 M806.3326763941549,578.3743820593594 L807.5270690424251,385.07567063865275 M795.632266451622,584.6104701085796 L817.3452275378203,597.0909850811663 M817.3452275378203,597.0909850811663 L828.0455679301748,590.8493371631693 M828.0455679301748,590.8493371631693 L806.3326763941549,578.3743820593594 M817.3452275378203,597.0909850811663 L817.5038927501025,572.2159542787033 M806.6401165969182,565.9770686734495 L817.5038927501025,572.2159542787033 M806.7940423897825,541.0826126114819 L806.6401165969182,565.9770686734495 M817.6626995329509,547.3187284900233 L806.7940423897825,541.0826126114819 M817.6626995329509,547.3187284900233 L818.7383627709554,378.6796437557024 M802.3876131758295,369.3548491298987 L818.7383627709554,378.6796437557024 M802.2352102586908,394.39844077330343 L802.3876131758295,369.3548491298987 M796.7898507928705,391.2901560620412 L802.2352102586908,394.39844077330343 M812.9724113534976,388.1825660947913 L802.2352102586908,394.39844077330343 M812.9724113534976,388.1825660947913 L807.5270690424251,385.07567063865275 M813.1295821595613,363.1417946307887 L812.9724113534976,388.1825660947913 M829.4802785624,372.4624187216691 L813.1295821595613,363.1417946307887 M828.37251447695,541.0826126114819 L829.4802785624,372.4624187216691 M817.5038927501025,534.8492776095864 L828.37251447695,541.0826126114819 M817.3452275378203,559.7409639398717 L817.5038927501025,534.8492776095864 M828.2089683220316,565.9770686734495 L817.3452275378203,559.7409639398717 M828.0455679301748,590.8493371631693 L828.2089683220316,565.9770686734495 M828.2089683220316,565.9770686734495 L817.5038927501025,572.2159542787033 M817.3452275378203,559.7409639398717 L806.6401165969182,565.9770686734495 M817.5038927501025,534.8492776095864 L806.7940423897825,541.0826126114819 M828.37251447695,541.0826126114819 L817.6626995329509,547.3187284900233 M818.7383627709554,378.6796437557024 L829.4802785624,372.4624187216691 M813.1295821595613,363.1417946307887 L802.3876131758295,369.3548491298987" stroke="black"  stroke-width="4"  fill="red"/>
<path d="M795.632266451622,584.6104701085796 L784.9270880554604,590.8493371631693 M784.9270880554604,590.8493371631693 L786.0478311041883,397.50742046158325 M796.7898507928705,391.2901560620412 L786.0478311041883,397.50742046158325 M795.632266451622,584.6104701085796 L796.7898507928705,391.2901560620412 M784.9270880554604,590.8493371631693 L806.6401165969181,603.3354157222655 M806.6401165969181,603.3354157222655 L817.3452275378203,597.0909850811663 M817.3452275378203,597.0909850811663 L795.632266451622,584.6104701085796 M806.6401165969181,603.3354157222655 L806.7940423897824,578.4576226161628 M795.930231916466,572.2159542787033 L806.7940423897824,578.4576226161628 M796.0794140458087,547.3187284900233 L795.930231916466,572.2159542787033 M806.9481055550634,553.5576271065739 L796.0794140458087,547.3187284900233 M806.9481055550634,553.5576271065739 L807.9916391398367,384.8996514796915 M791.6408379419931,375.5706835191648 L807.9916391398367,384.8996514796915 M791.4932071955947,400.61709535999023 L791.6408379419931,375.5706835191648 M786.0478311041883,397.50742046158325 L791.4932071955947,400.61709535999023 M802.2352102586908,394.39844077330343 L791.4932071955947,400.61709535999023 M802.2352102586908,394.39844077330343 L796.7898507928705,391.2901560620412 M802.3876131758295,369.3548491298987 L802.2352102586908,394.39844077330343 M818.7383627709554,378.6796437557024 L802.3876131758295,369.3548491298987 M817.6626995329509,547.3187284900233 L818.7383627709554,378.6796437557024 M806.7940423897825,541.0826126114819 L817.6626995329509,547.3187284900233 M806.6401165969182,565.9770686734495 L806.7940423897825,541.0826126114819 M817.5038927501025,572.2159542787033 L806.6401165969182,565.9770686734495 M817.3452275378203,597.0909850811663 L817.5038927501025,572.2159542787033 M817.5038927501025,572.2159542787033 L806.7940423897824,578.4576226161628 M806.6401165969182,565.9770686734495 L795.930231916466,572.2159542787033 M806.7940423897825,541.0826126114819 L796.0794140458087,547.3187284900233 M817.6626995329509,547.3187284900233 L806.9481055550634,553.5576271065739 M807.9916391398367,384.8996514796915 L818.7383627709554,378.6796437557024 M802.3876131758295,369.3548491298987 L791.6408379419931,375.5706835191648" stroke="black"  stroke-width="4"  fill="red"/>
<path d="M118.57750064292361,429.5371684858593 L107.78160092925611,435.70711354222436 M107.78160092925611,435.70711354222436 L107.6247590369635,410.90390341317874 M118.42547892822853,404.7367206174555 L107.6247590369635,410.90390341317874 M118.42547892822853,404.7367206174555 L118.57750064292361,429.5371684858593 M107.78160092925611,435.70711354222436 L129.07407600412353,448.05521018794906 M129.07407600412353,448.05521018794906 L139.8700420574081,441.87979350331295 M139.8700420574081,441.87979350331295 L118.57750064292361,429.5371684858593 M129.07407600412353,448.05521018794906 L127.77928859401067,230.2299924034175 M106.40450259955918,217.93073542942432 L127.77928859401067,230.2299924034175 M107.4677780079291,386.07868999282323 L106.40450259955918,217.93073542942432 M118.1210308270156,392.2458380764263 L107.4677780079291,386.07868999282323 M118.27332238274425,417.0738211014942 L118.1210308270156,392.2458380764263 M107.6247590369635,410.90390341317874 L118.27332238274425,417.0738211014942 M129.07407600412353,410.90390341317874 L118.42547892822853,404.7367206174555 M129.07407600412353,410.90390341317874 L118.27332238274425,417.0738211014942 M128.92660897684874,386.07868999282323 L129.07407600412353,410.90390341317874 M118.27332238274431,379.91427678641907 L128.92660897684874,386.07868999282323 M117.24272530740416,211.78520988593064 L118.27332238274431,379.91427678641907 M138.617578419315,224.07899565999924 L117.24272530740416,211.78520988593064 M139.8700420574081,441.87979350331295 L138.617578419315,224.07899565999924 M127.77928859401067,230.2299924034175 L138.617578419315,224.07899565999924 M117.24272530740416,211.78520988593064 L106.40450259955918,217.93073542942432 M118.27332238274431,379.91427678641907 L107.4677780079291,386.07868999282323 M128.92660897684874,386.07868999282323 L118.1210308270156,392.2458380764263" stroke="black"  stroke-width="4"  fill="red"/>
<path d="M107.78160092925611,435.70711354222436 L96.98091579904872,441.87979350331307 M106.40450259955918,217.93073542942432 L107.78160092925611,435.70711354222436 M106.40450259955918,217.93073542942432 L95.56145700920979,224.07899565999924 M96.98091579904872,441.87979350331307 L95.56145700920979,224.07899565999924 M95.56145700920979,224.07899565999924 L116.93617370924034,236.3837274870665 M118.27332238274431,454.2333654165694 L116.93617370924034,236.3837274870665 M96.98091579904872,441.87979350331307 L118.27332238274431,454.2333654165694 M129.07407600412353,448.05521018794906 L127.77928859401067,230.2299924034175 M118.27332238274431,454.2333654165694 L129.07407600412353,448.05521018794906 M116.93617370924034,236.3837274870665 L127.77928859401067,230.2299924034175 M129.07407600412353,448.05521018794906 L107.78160092925611,435.70711354222436 M127.77928859401067,230.2299924034175 L106.40450259955918,217.93073542942432" stroke="black"  stroke-width="4"  fill="red"/>
<path d="M333.1130464482276,102.18151625079554 L343.78911879624894,108.27015578772233 M343.78911879624894,108.27015578772233 L84.88123069679881,255.21013591012476 M79.54289916197547,252.1328855757386 L84.88123069679881,255.21013591012476 M209.3412931529139,178.4836635088384 L79.54289916197547,252.1328855757386 M204.00395953601395,175.42345406729484 L209.3412931529139,178.4836635088384 M333.1130464482276,102.18151625079554 L204.00395953601395,175.42345406729484 M343.78911879624894,108.27015578772233 L343.73698847186654,83.35766994209234 M343.73698847186654,83.35766994209234 L333.0562021669188,77.27184886411675 M333.0562021669188,77.27184886411675 L333.1130464482276,102.18151625079554 M343.73698847186654,83.35766994209234 L84.71358531645012,230.2299924034175 M84.88123069679881,255.21013591012476 L84.71358531645012,230.2299924034175 M79.37289667428831,227.15415185342945 L79.54289916197547,252.1328855757386 M84.71358531645012,230.2299924034175 L79.37289667428831,227.15415185342945 M209.3412931529139,178.4836635088384 L209.22935476150593,153.5387616463903 M209.22935476150593,153.5387616463903 L79.37289667428831,227.15415185342945 M209.22935476150593,153.5387616463903 L203.88966483748555,150.47996173154095 M203.88966483748555,150.47996173154095 L204.00395953601395,175.42345406729484 M333.0562021669188,77.27184886411675 L203.88966483748555,150.47996173154095" stroke="black"  stroke-width="4"  fill="red"/>
<path d="M840.0480910248407,391.2901560620412 L581.1403046179204,541.2758085279011 M850.9496995260052,397.50742046158325 L592.0425269928899,547.5603315535093 M840.0480910248407,391.2901560620412 L850.9496995260052,397.50742046158325 M581.1403046179204,541.2758085279011 L592.0425269928899,547.5603315535093 M851.1239132428293,372.4624187216691 L592.1012266613923,522.4476419198418 M850.9496995260052,397.50742046158325 L851.1239132428293,372.4624187216691 M592.0425269928899,547.5603315535093 L592.1012266613923,522.4476419198418 M840.2173897398266,366.24797451064126 L581.1940884585601,516.165939275028 M851.1239132428293,372.4624187216691 L840.2173897398266,366.24797451064126 M592.1012266613923,522.4476419198418 L581.1940884585601,516.165939275028 M840.2173897398266,366.24797451064126 L840.0480910248407,391.2901560620412 M581.1940884585601,516.165939275028 L581.1403046179204,541.2758085279011" stroke="black"  stroke-width="4"  fill="red"/>
<path d="M79.54289916197547,252.1328855757386 L592.0425269928899,547.5603315535093 M592.0425269928899,547.5603315535093 L581.1940884585601,553.8476806715403 M581.1940884585601,553.8476806715403 L68.69508380952556,258.28807083857856 M79.54289916197547,252.1328855757386 L68.69508380952556,258.28807083857856 M592.1012266613923,522.4476419198418 L592.0425269928899,547.5603315535093 M79.37289667428831,227.15415185342945 L79.54289916197547,252.1328855757386 M592.1012266613923,522.4476419198418 L79.37289667428831,227.15415185342945 M581.1940884585601,553.8476806715403 L581.247920693163,528.7321706596483 M581.247920693163,528.7321706596483 L592.1012266613923,522.4476419198418 M581.247920693163,528.7321706596483 L68.52021472197362,233.30651753843793 M68.69508380952556,258.28807083857856 L68.52021472197362,233.30651753843793 M79.37289667428831,227.15415185342945 L68.52021472197362,233.30651753843793" stroke="black"  stroke-width="4"  fill="red"/>
<path d="M861.6772111408256,391.2901560620412 L343.84120300290556,96.09556990840031 M343.84120300290556,96.09556990840031 L333.1130464482276,102.18151625079554 M850.9496995260052,397.50742046158325 L333.1130464482276,102.18151625079554 M861.6772111408256,391.2901560620412 L850.9496995260052,397.50742046158325 M850.9496995260052,397.50742046158325 L851.1239132428293,372.4624187216691 M333.1130464482276,102.18151625079554 L333.0562021669188,77.27184886411675 M851.1239132428293,372.4624187216691 L333.0562021669188,77.27184886411675 M333.0562021669188,77.27184886411675 L343.78911879624894,71.18872092523992 M861.8561840680964,366.24797451064126 L343.78911879624894,71.18872092523992 M851.1239132428293,372.4624187216691 L861.8561840680964,366.24797451064126 M861.8561840680964,366.24797451064126 L861.6772111408256,391.2901560620412 M343.78911879624894,71.18872092523992 L343.84120300290556,96.09556990840031" stroke="black"  stroke-width="4"  fill="red"/>
<path d="M828.2089683220316,528.6187216246333 L591.5893879720643,666.3357823404301 M828.0455679301748,553.5076382190987 L591.5311475336509,691.2856308748073 M828.2089683220316,528.6187216246333 L828.0455679301748,553.5076382190987 M591.5893879720643,666.3357823404301 L591.5311475336509,691.2856308748073 M838.909272297985,559.7409639398717 L602.3954089172944,697.5805268438476 M828.0455679301748,553.5076382190987 L838.909272297985,559.7409639398717 M591.5311475336509,691.2856308748073 L602.3954089172944,697.5805268438476 M839.0775535837388,534.8492776095864 L602.4585309965784,672.6279088591912 M838.909272297985,559.7409639398717 L839.0775535837388,534.8492776095864 M602.3954089172944,697.5805268438476 L602.4585309965784,672.6279088591912 M839.0775535837388,534.8492776095864 L828.2089683220316,528.6187216246333 M602.4585309965784,672.6279088591912 L591.5893879720643,666.3357823404301" stroke="black"  stroke-width="4"  fill="red"/>
<path d="M344.08797506578924,251.09014919842528 L107.4677780079291,386.07868999282323 M344.1397952793031,275.8544366065021 L107.6247590369635,410.90390341317874 M344.08797506578924,251.09014919842528 L344.1397952793031,275.8544366065021 M107.4677780079291,386.07868999282323 L107.6247590369635,410.90390341317874 M354.7888543538206,281.9646041500802 L118.27332238274425,417.0738211014942 M344.1397952793031,275.8544366065021 L354.7888543538206,281.9646041500802 M107.6247590369635,410.90390341317874 L118.27332238274425,417.0738211014942 M354.7417242723014,257.19754765760587 L118.1210308270156,392.2458380764263 M354.7888543538206,281.9646041500802 L354.7417242723014,257.19754765760587 M118.27332238274425,417.0738211014942 L118.1210308270156,392.2458380764263 M354.7417242723014,257.19754765760587 L344.08797506578924,251.09014919842528 M118.1210308270156,392.2458380764263 L107.4677780079291,386.07868999282323" stroke="black"  stroke-width="4"  fill="red"/>
<path d="M812.9724113534976,350.7240178469172 L553.9476895715418,500.4740343254972 M812.8153810039184,375.7591490094541 L553.9061760043465,525.5768526207708 M812.9724113534976,350.7240178469172 L812.8153810039184,375.7591490094541 M553.9476895715418,500.4740343254972 L553.9061760043465,525.5768526207708 M823.7048136992117,381.9694694608283 L564.7961562574219,531.8543187460259 M812.8153810039184,375.7591490094541 L823.7048136992117,381.9694694608283 M553.9061760043465,525.5768526207708 L564.7961562574219,531.8543187460259 M823.8667481166963,356.93151815738827 L564.8425746288592,506.7486800672853 M823.7048136992117,381.9694694608283 L823.8667481166963,356.93151815738827 M564.7961562574219,531.8543187460259 L564.8425746288592,506.7486800672853 M823.8667481166963,356.93151815738827 L812.9724113534976,350.7240178469172 M564.8425746288592,506.7486800672853 L553.9476895715418,500.4740343254972" stroke="black"  stroke-width="4"  fill="red"/>
<path d="M198.55115966827412,147.42184049428528 L-61.85618406809641,294.9811358485611 M198.6678096258376,172.36392331491552 L-61.622786220576586,319.9908867621646 M198.55115966827412,147.42184049428528 L198.6678096258376,172.36392331491552 M-61.85618406809641,294.9811358485611 L-61.622786220576586,319.9908867621646 M209.3412931529139,178.4836635088384 L-50.95022307512306,326.176305084567 M198.6678096258376,172.36392331491552 L209.3412931529139,178.4836635088384 M-61.622786220576586,319.9908867621646 L-50.95022307512306,326.176305084567 M209.22935476150593,153.5387616463903 L-51.178910586086886,301.1637342436389 M209.3412931529139,178.4836635088384 L209.22935476150593,153.5387616463903 M-50.95022307512306,326.176305084567 L-51.178910586086886,301.1637342436389 M209.22935476150593,153.5387616463903 L198.55115966827412,147.42184049428528 M-51.178910586086886,301.1637342436389 L-61.85618406809641,294.9811358485611" stroke="black"  stroke-width="4"  fill="red"/></svg>