<svg viewBox="0 0 800 800" xmlns="http://www.w3.org/2000/svg"><path d="M230.90389712145034,213.28795463780796 L13.462418551272208,337.1776476628196 M13.430352749680935,331.94651181937934 L13.462418551272208,337.1776476628196 M230.88997972202756,208.06736111627185 L13.430352749680935,331.94651181937934 M230.90389712145034,213.28795463780796 L230.88997972202756,208.06736111627185 M544.7713583153072,644.2260363966208 L520.5027845774739,658.3266921846691 M544.7713583153072,644.2260363966208 L569.1707844370992,658.3266921846691 M569.1707844370992,658.3266921846691 L786.6121642005683,531.8741097797242 M786.6121642005683,531.8741097797242 L762.2136991924745,517.8865310108329 M786.2661771712044,503.9114323300662 L762.2136991924745,517.8865310108329 M786.2661771712044,503.9114323300662 L278.8835793520103,213.28795463780796 M254.83009298228603,227.00478268958653 L278.8835793520103,213.28795463780796 M254.83009298228603,227.00478268958653 L230.90389712145034,213.28795463780796 M13.462418551272208,337.1776476628196 L37.387679611698445,351.0042790421109 M13.120107999683512,364.84319211773135 L37.387679611698445,351.0042790421109 M13.120107999683512,364.84319211773135 L520.5027845774739,658.3266921846691 M13.430352749680935,331.94651181937934 L37.35759122481443,345.7719717161005 M37.387679611698445,351.0042790421109 L37.35759122481443,345.7719717161005 M37.35759122481443,345.7719717161005 L13.087985204635174,359.60971329131854 M13.087985204635174,359.60971329131854 L520.5130128627827,653.0686101473491 M520.5130128627827,653.0686101473491 L544.7836212594709,638.9691259170486 M544.7836212594709,638.9691259170486 L569.1851040365316,653.0686101473491 M569.1851040365316,653.0686101473491 L786.6446321691758,526.6265720502859 M786.6446321691758,526.6265720502859 L762.244110747617,512.6401648898538 M762.244110747617,512.6401648898538 L786.2985872256747,498.66623781611855 M786.2985872256747,498.66623781611855 L278.87363835242263,208.06736111627185 M278.87363835242263,208.06736111627185 L254.81815323058814,221.78301790549523 M254.81815323058814,221.78301790549523 L230.88997972202756,208.06736111627185 M254.83009298228603,227.00478268958653 L254.81815323058814,221.78301790549523 M544.7836212594709,638.9691259170486 L544.7713583153072,644.2260363966208 M520.5027845774739,658.3266921846691 L520.5130128627827,653.0686101473491 M13.120107999683512,364.84319211773135 L13.087985204635174,359.60971329131854 M278.8835793520103,213.28795463780796 L278.87363835242263,208.06736111627185 M786.2985872256747,498.66623781611855 L786.2661771712044,503.9114323300662 M762.2136991924745,517.8865310108329 L762.244110747617,512.6401648898538 M786.6121642005683,531.8741097797242 L786.6446321691758,526.6265720502859 M569.1707844370992,658.3266921846691 L569.1851040365316,653.0686101473491" stroke="black"  stroke-width="4"  fill="red"/>
<path d="M255.17416646831134,294.541512381821 L243.16828222094733,301.40297350354075 M243.16828222094733,301.40297350354075 L243.00212701732826,234.2595266394644 M255.0208601178976,227.4055679391658 L243.00212701732826,234.2595266394644 M255.0208601178976,227.4055679391658 L255.17416646831134,294.541512381821 M243.16828222094733,301.40297350354075 L267.0585272759609,315.13498176921166 M267.0585272759609,315.13498176921166 L279.0644383378526,308.26746263105116 M279.0644383378526,308.26746263105116 L255.17416646831134,294.541512381821 M267.0585272759609,315.13498176921166 L266.9178102012574,247.97652981953726 M266.9178102012574,247.97652981953726 L243.00212701732826,234.2595266394644 M266.9178102012574,247.97652981953726 L278.9365702023202,241.11651326393948 M278.9365702023202,241.11651326393948 L255.0208601178976,227.4055679391658 M279.0644383378526,308.26746263105116 L278.9365702023202,241.11651326393948" stroke="black"  stroke-width="4"  fill="red"/>
<path d="M242.933269341775,206.4340864547022 L254.95732725710212,199.58324615578425 M242.933269341775,206.4340864547022 L242.5649982441163,57.6154497907371 M254.6175350450739,50.78137978029423 L242.5649982441163,57.6154497907371 M254.6175350450739,50.78137978029423 L254.95732725710212,199.58324615578425 M278.8835793520103,213.28795463780796 L266.8594945005102,220.1448527129088 M278.8835793520103,213.28795463780796 L254.95732725710212,199.58324615578425 M266.8594945005102,220.1448527129088 L242.933269341775,206.4340864547022 M266.8594945005102,220.1448527129088 L266.5476045975699,71.29267465045325 M242.5649982441163,57.6154497907371 L266.5476045975699,71.29267465045325 M266.5476045975699,71.29267465045325 L278.60016852606066,64.4525474100003 M278.60016852606066,64.4525474100003 L254.6175350450739,50.78137978029423 M278.8835793520103,213.28795463780796 L278.60016852606066,64.4525474100003" stroke="black"  stroke-width="4"  fill="red"/>
<path d="M243.16828222094733,301.40297350354075 L231.15709970162956,308.26746263105116 M242.5649982441163,57.6154497907371 L243.16828222094733,301.40297350354075 M242.5649982441163,57.6154497907371 L230.5071219651208,64.4525474100003 M231.15709970162956,308.26746263105116 L230.5071219651208,64.4525474100003 M230.5071219651208,64.4525474100003 L254.4896988124903,78.13583352624778 M255.04731559108387,322.00553292465145 L254.4896988124903,78.13583352624778 M231.15709970162956,308.26746263105116 L255.04731559108387,322.00553292465145 M255.04731559108387,322.00553292465145 L267.0585272759609,315.13498176921166 M254.4896988124903,78.13583352624778 L266.5476045975699,71.29267465045325 M267.0585272759609,315.13498176921166 L266.5476045975699,71.29267465045325 M267.0585272759609,315.13498176921166 L243.16828222094733,301.40297350354075 M266.5476045975699,71.29267465045325 L242.5649982441163,57.6154497907371" stroke="black"  stroke-width="4"  fill="red"/>
<path d="M544.5482605655668,739.8641542038237 L532.4351929443533,746.9235245118517 M545.1209772019847,494.3505118314688 L544.5482605655668,739.8641542038237 M545.1209772019847,494.3505118314688 L532.9604186301399,501.3824813393212 M532.4351929443533,746.9235245118517 L532.9604186301399,501.3824813393212 M532.4351929443533,746.9235245118517 L556.7972332769507,761.0517471565284 M532.9604186301399,501.3824813393212 L557.4185115882442,515.4559027276628 M556.7972332769507,761.0517471565284 L557.4185115882442,515.4559027276628 M556.7972332769507,761.0517471565284 L568.9102704807315,753.9860547886838 M557.4185115882442,515.4559027276628 L569.5790393824652,508.4176109278422 M568.9102704807315,753.9860547886838 L569.5790393824652,508.4176109278422 M569.5790393824652,508.4176109278422 L545.1209772019847,494.3505118314688 M568.9102704807315,753.9860547886838 L544.5482605655668,739.8641542038237" stroke="black"  stroke-width="4"  fill="red"/>
<path d="M532.4351929443533,746.9235245118517 L520.3167031800683,753.9860547886838 M520.3167031800683,753.9860547886838 L520.4482627508246,686.3548737116581 M532.5798436802133,679.299846653109 L520.4482627508246,686.3548737116581 M532.5798436802133,679.299846653109 L532.4351929443533,746.9235245118517 M520.3167031800683,753.9860547886838 L544.6787715155331,768.1206037394954 M544.6787715155331,768.1206037394954 L556.7972332769507,761.0517471565284 M556.7972332769507,761.0517471565284 L532.4351929443533,746.9235245118517 M544.6787715155331,768.1206037394954 L544.8367845072864,700.4744164144821 M544.8367845072864,700.4744164144821 L520.4482627508246,686.3548737116581 M544.8367845072864,700.4744164144821 L556.9683373427229,693.4130629232983 M556.9683373427229,693.4130629232983 L532.5798436802133,679.299846653109 M556.7972332769507,761.0517471565284 L556.9683373427229,693.4130629232983" stroke="black"  stroke-width="4"  fill="red"/>
<path d="M520.5027845774739,658.3266921846691 L532.639790817444,651.2747842672121 M520.5027845774739,658.3266921846691 L520.7943952527353,508.4176109278422 M532.9604186301399,501.3824813393212 L520.7943952527353,508.4176109278422 M532.9604186301399,501.3824813393212 L532.639790817444,651.2747842672121 M557.0392474966425,665.3817622745042 L544.9022693884306,672.4399966641367 M557.0392474966425,665.3817622745042 L532.639790817444,651.2747842672121 M544.9022693884306,672.4399966641367 L520.5027845774739,658.3266921846691 M544.9022693884306,672.4399966641367 L545.2525165453801,522.4973588713295 M520.7943952527353,508.4176109278422 L545.2525165453801,522.4973588713295 M545.2525165453801,522.4973588713295 L557.4185115882442,515.4559027276628 M557.4185115882442,515.4559027276628 L532.9604186301399,501.3824813393212 M557.0392474966425,665.3817622745042 L557.4185115882442,515.4559027276628" stroke="black"  stroke-width="4"  fill="red"/>
<path d="M787.1901845024529,354.3714743168566 L786.2661771712044,503.9114323300662 M774.2426213125402,510.8974227035792 L786.2661771712044,503.9114323300662 M774.2426213125402,510.8974227035792 L775.1381533551271,361.34068671240414 M787.1901845024529,354.3714743168566 L775.1381533551271,361.34068671240414 M810.6644877610163,517.8865310108329 L786.2661771712044,503.9114323300662 M811.6471231332166,368.31301697503386 L787.1901845024529,354.3714743168566 M810.6644877610163,517.8865310108329 L811.6471231332166,368.31301697503386 M810.6644877610163,517.8865310108329 L798.6410102920413,524.8787593396514 M798.6410102920413,524.8787593396514 L774.2426213125402,510.8974227035792 M798.6410102920413,524.8787593396514 L799.5951709379742,375.28846719750806 M775.1381533551271,361.34068671240414 L799.5951709379742,375.28846719750806 M799.5951709379742,375.28846719750806 L811.6471231332166,368.31301697503386" stroke="black"  stroke-width="4"  fill="red"/>
<path d="M786.0934150773737,531.870989991596 L785.6765420764962,599.3370900319862 M785.6765420764962,599.3370900319862 L773.6711575993982,606.3337037193121 M773.6711575993982,606.3337037193121 L774.0751833628369,538.8600996909404 M786.0934150773737,531.870989991596 L774.0751833628369,538.8600996909404 M810.037441555992,613.333435327176 L785.6765420764962,599.3370900319862 M810.480764186379,545.8523273246462 L786.0934150773737,531.870989991596 M810.037441555992,613.333435327176 L810.480764186379,545.8523273246462 M773.6711575993982,606.3337037193121 L798.032135111104,620.3362869402138 M798.032135111104,620.3362869402138 L810.037441555992,613.333435327176 M798.032135111104,620.3362869402138 L798.4626107566778,552.8476749796071 M798.4626107566778,552.8476749796071 L774.0751833628369,538.8600996909404 M798.4626107566778,552.8476749796071 L810.480764186379,545.8523273246462" stroke="black"  stroke-width="4"  fill="red"/>
<path d="M773.6711575993982,606.3337037193121 L761.6604231292179,613.333435327176 M775.1381533551271,361.34068671240414 L773.6711575993982,606.3337037193121 M775.1381533551271,361.34068671240414 L763.0807304032396,368.31301697503386 M761.6604231292179,613.333435327176 L763.0807304032396,368.31301697503386 M763.0807304032396,368.31301697503386 L787.5378245602567,382.26703947446254 M786.021476322727,627.3422606449204 L787.5378245602567,382.26703947446254 M761.6604231292179,613.333435327176 L786.021476322727,627.3422606449204 M786.021476322727,627.3422606449204 L798.032135111104,620.3362869402138 M787.5378245602567,382.26703947446254 L799.5951709379742,375.28846719750806 M798.032135111104,620.3362869402138 L799.5951709379742,375.28846719750806 M798.032135111104,620.3362869402138 L773.6711575993982,606.3337037193121 M799.5951709379742,375.28846719750806 L775.1381533551271,361.34068671240414" stroke="black"  stroke-width="4"  fill="red"/>
<path d="M14.045795651736796,432.34835006350244 L1.9332758945647015,439.27075425194414 M12.548237036737987,188.0403284388242 L14.045795651736796,432.34835006350244 M12.548237036737987,188.0403284388242 L0.38823276074361956,194.9353350189181 M1.9332758945647015,439.27075425194414 L0.38823276074361956,194.9353350189181 M1.9332758945647015,439.27075425194414 L25.822486786077434,453.1247699941856 M0.38823276074361956,194.9353350189181 L24.369792846500047,208.73455481969376 M25.822486786077434,453.1247699941856 L24.369792846500047,208.73455481969376 M25.822486786077434,453.1247699941856 L37.935080973352,446.19622688195864 M24.369792846500047,208.73455481969376 L36.529872425301335,201.83340979640008 M37.935080973352,446.19622688195864 L36.529872425301335,201.83340979640008 M36.529872425301335,201.83340979640008 L12.548237036737987,188.0403284388242 M37.935080973352,446.19622688195864 L14.045795651736796,432.34835006350244" stroke="black"  stroke-width="4"  fill="red"/>
<path d="M1.9332758945647015,439.27075425194414 L-10.18461288732243,446.19622688195864 M-10.18461288732243,446.19622688195864 L-10.623229347298945,378.8952135563594 M1.507748660992263,371.9772446184254 L-10.623229347298945,378.8952135563594 M1.507748660992263,371.9772446184254 L1.9332758945647015,439.27075425194414 M-10.18461288732243,446.19622688195864 L13.704521160138825,460.05638563107425 M13.704521160138825,460.05638563107425 L25.822486786077434,453.1247699941856 M25.822486786077434,453.1247699941856 L1.9332758945647015,439.27075425194414 M13.704521160138825,460.05638563107425 L13.291339257251025,392.7403648124862 M13.291339257251025,392.7403648124862 L-10.623229347298945,378.8952135563594 M13.291339257251025,392.7403648124862 L25.42239435710087,385.8162529395077 M25.42239435710087,385.8162529395077 L1.507748660992263,371.9772446184254 M25.822486786077434,453.1247699941856 L25.42239435710087,385.8162529395077" stroke="black"  stroke-width="4"  fill="red"/>
<path d="M-10.805001097196453,351.004279042111 L1.331401417016309,344.08942916249816 M-10.805001097196453,351.004279042111 L-11.777182575113216,201.83340979640008 M0.38823276074361956,194.9353350189181 L-11.777182575113216,201.83340979640008 M0.38823276074361956,194.9353350189181 L1.331401417016309,344.08942916249816 M25.25658770818268,357.92219934535217 L13.120107999683512,364.84319211773135 M25.25658770818268,357.92219934535217 L1.331401417016309,344.08942916249816 M13.120107999683512,364.84319211773135 L-10.805001097196453,351.004279042111 M13.120107999683512,364.84319211773135 L12.204299765382018,215.6387721390467 M-11.777182575113216,201.83340979640008 L12.204299765382018,215.6387721390467 M12.204299765382018,215.6387721390467 L24.369792846500047,208.73455481969376 M24.369792846500047,208.73455481969376 L0.38823276074361956,194.9353350189181 M25.25658770818268,357.92219934535217 L24.369792846500047,208.73455481969376" stroke="black"  stroke-width="4"  fill="red"/>
<path d="M254.68136828614206,78.73524414654281 L-11.59454720649154,229.85685738427097 M-11.59454720649154,229.85685738427097 L-23.571998533385624,222.95561922757105 M242.70330362009528,71.9010374872841 L-23.571998533385624,222.95561922757105 M254.68136828614206,78.73524414654281 L242.70330362009528,71.9010374872841 M254.6175350450739,50.78137978029423 L-11.777182575113216,201.83340979640008 M-11.59454720649154,229.85685738427097 L-11.777182575113216,201.83340979640008 M254.6175350450739,50.78137978029423 L254.68136828614206,78.73524414654281 M-23.759921916084636,194.9353350189181 L-23.571998533385624,222.95561922757105 M-11.777182575113216,201.83340979640008 L-23.759921916084636,194.9353350189181 M242.63418154757358,43.95033536808535 L-23.759921916084636,194.9353350189181 M242.70330362009528,71.9010374872841 L242.63418154757358,43.95033536808535 M254.6175350450739,50.78137978029423 L242.63418154757358,43.95033536808535" stroke="black"  stroke-width="4"  fill="red"/>
<path d="M823.6936847650263,403.39101040762984 L557.4185115882442,557.7141390245954 M557.4185115882442,557.7141390245954 L545.1867173176001,550.6663520587718 M811.4625219758307,396.41239603920474 L545.1867173176001,550.6663520587718 M823.6936847650263,403.39101040762984 L811.4625219758307,396.41239603920474 M823.6936847650263,403.39101040762984 L823.8838003930994,375.28846719750806 M823.8838003930994,375.28846719750806 L557.4898261364892,529.541981493307 M557.4898261364892,529.541981493307 L557.4185115882442,557.7141390245954 M545.2525165453801,522.4973588713295 L545.1867173176001,550.6663520587718 M557.4898261364892,529.541981493307 L545.2525165453801,522.4973588713295 M811.6471231332166,368.31301697503386 L545.2525165453801,522.4973588713295 M811.4625219758307,396.41239603920474 L811.6471231332166,368.31301697503386 M823.8838003930994,375.28846719750806 L811.6471231332166,368.31301697503386" stroke="black"  stroke-width="4"  fill="red"/>
<path d="M835.7348594492082,396.41239603920474 L254.74514504386454,65.06985447879799 M254.74514504386454,65.06985447879799 L242.70330362009528,71.9010374872841 M823.6936847650263,403.39101040762984 L242.70330362009528,71.9010374872841 M835.7348594492082,396.41239603920474 L823.6936847650263,403.39101040762984 M823.6936847650263,403.39101040762984 L823.8838003930994,375.28846719750806 M242.70330362009528,71.9010374872841 L242.63418154757358,43.95033536808535 M823.8838003930994,375.28846719750806 L242.63418154757358,43.95033536808535 M242.63418154757358,43.95033536808535 L254.68136828614206,37.12231454530297 M835.9303194982056,368.31301697503386 L254.68136828614206,37.12231454530297 M823.8838003930994,375.28846719750806 L835.9303194982056,368.31301697503386 M835.9303194982056,368.31301697503386 L835.7348594492082,396.41239603920474 M254.68136828614206,37.12231454530297 L254.74514504386454,65.06985447879799" stroke="black"  stroke-width="4"  fill="red"/>
<path d="M-23.571998533385624,222.95561922757105 L557.4185115882442,557.7141390245954 M-23.571998533385624,222.95561922757105 L-35.73733144972118,229.85685738427097 M545.2525165453801,564.7650946031947 L-35.73733144972118,229.85685738427097 M557.4185115882442,557.7141390245954 L545.2525165453801,564.7650946031947 M545.3183749650887,536.58977272998 L-35.930710075320576,201.83340979640008 M545.2525165453801,564.7650946031947 L545.3183749650887,536.58977272998 M-35.73733144972118,229.85685738427097 L-35.930710075320576,201.83340979640008 M-35.930710075320576,201.83340979640008 L-23.759921916084636,194.9353350189181 M557.4898261364892,529.541981493307 L-23.759921916084636,194.9353350189181 M545.3183749650887,536.58977272998 L557.4898261364892,529.541981493307 M557.4898261364892,529.541981493307 L557.4185115882442,557.7141390245954 M-23.759921916084636,194.9353350189181 L-23.571998533385624,222.95561922757105" stroke="black"  stroke-width="4"  fill="red"/>
<path d="M774.9699157924015,347.4053776975003 L508.57357613891634,501.3824813393212 M774.8018285928197,375.49526444603333 L508.52429319686604,529.541981493307 M774.9699157924015,347.4053776975003 L774.8018285928197,375.49526444603333 M508.57357613891634,501.3824813393212 L508.52429319686604,529.541981493307 M787.0165975543807,382.46452514931184 L520.7396118230556,536.5802754256747 M774.8018285928197,375.49526444603333 L787.0165975543807,382.46452514931184 M508.52429319686604,529.541981493307 L520.7396118230556,536.5802754256747 M787.1901845024529,354.3714743168566 L520.7943952527353,508.4176109278422 M787.0165975543807,382.46452514931184 L787.1901845024529,354.3714743168566 M520.7396118230556,536.5802754256747 L520.7943952527353,508.4176109278422 M787.1901845024529,354.3714743168566 L774.9699157924015,347.4053776975003 M520.7943952527353,508.4176109278422 L508.57357613891634,501.3824813393212" stroke="black"  stroke-width="4"  fill="red"/>
<path d="M278.60016852606066,64.4525474100003 L12.204299765382018,215.6387721390467 M278.65341002562997,92.41273645099102 L12.376344925094145,243.66854660877112 M278.60016852606066,64.4525474100003 L278.65341002562997,92.41273645099102 M12.204299765382018,215.6387721390467 L12.376344925094145,243.66854660877112 M290.64739414697596,99.25602611743432 L24.369792846500047,250.57900177712148 M278.65341002562997,92.41273645099102 L290.64739414697596,99.25602611743432 M12.376344925094145,243.66854660877112 L24.369792846500047,250.57900177712148 M290.5994555668136,71.29267465045325 L24.203049891103433,222.54606380653257 M290.64739414697596,99.25602611743432 L290.5994555668136,71.29267465045325 M24.369792846500047,250.57900177712148 L24.203049891103433,222.54606380653257 M290.5994555668136,71.29267465045325 L278.60016852606066,64.4525474100003 M24.203049891103433,222.54606380653257 L12.204299765382018,215.6387721390467" stroke="black"  stroke-width="4"  fill="red"/>
<path d="M798.4626107566778,552.8476749796071 L556.9683373427229,693.4130629232983 M557.0392474966425,665.3817622745042 L556.9683373427229,693.4130629232983 M798.6410102920413,524.8787593396514 L557.0392474966425,665.3817622745042 M798.4626107566778,552.8476749796071 L798.6410102920413,524.8787593396514 M810.6644877610163,559.8461447445787 L569.1707844370992,700.4744164144821 M569.1707844370992,700.4744164144821 L556.9683373427229,693.4130629232983 M810.6644877610163,559.8461447445787 L798.4626107566778,552.8476749796071 M569.2471834651005,672.4399966641367 L569.1707844370992,700.4744164144821 M569.2471834651005,672.4399966641367 L557.0392474966425,665.3817622745042 M810.8483754050783,531.8741097797242 L798.6410102920413,524.8787593396514 M810.8483754050783,531.8741097797242 L569.2471834651005,672.4399966641367 M810.6644877610163,559.8461447445787 L810.8483754050783,531.8741097797242" stroke="black"  stroke-width="4"  fill="red"/>
<path d="M231.05220598281215,227.4055679391658 L-10.441618843825268,365.0623440829034 M-10.623229347299059,337.1776476628196 L-10.441618843825268,365.0623440829034 M230.97808431188406,199.58324615578425 L-10.623229347299059,337.1776476628196 M231.05220598281215,227.4055679391658 L230.97808431188406,199.58324615578425 M243.00212701732826,234.2595266394644 L1.507748660992263,371.9772446184254 M1.507748660992263,371.9772446184254 L-10.441618843825268,365.0623440829034 M243.00212701732826,234.2595266394644 L231.05220598281215,227.4055679391658 M1.507748660992263,371.9772446184254 L1.331401417016309,344.08942916249816 M1.331401417016309,344.08942916249816 L-10.623229347299059,337.1776476628196 M242.933269341775,206.4340864547022 L230.97808431188406,199.58324615578425 M242.933269341775,206.4340864547022 L1.331401417016309,344.08942916249816 M242.933269341775,206.4340864547022 L243.00212701732826,234.2595266394644" stroke="black"  stroke-width="4"  fill="red"/>
<path d="M761.8896256930634,531.870989991596 L520.393789766094,672.2479796231031 M520.4482627508246,644.2260363966208 L520.393789766094,672.2479796231031 M762.0515901560298,503.9114323300662 L520.4482627508246,644.2260363966208 M761.8896256930634,531.870989991596 L762.0515901560298,503.9114323300662 M774.0751833628369,538.8600996909404 L532.5798436802133,679.299846653109 M532.5798436802133,679.299846653109 L520.393789766094,672.2479796231031 M774.0751833628369,538.8600996909404 L761.8896256930634,531.870989991596 M532.5798436802133,679.299846653109 L532.639790817444,651.2747842672121 M532.639790817444,651.2747842672121 L520.4482627508246,644.2260363966208 M774.2426213125402,510.8974227035792 L762.0515901560298,503.9114323300662 M774.2426213125402,510.8974227035792 L532.639790817444,651.2747842672121 M774.2426213125402,510.8974227035792 L774.0751833628369,538.8600996909404" stroke="black"  stroke-width="4"  fill="red"/>
<path d="M266.9178102012574,247.97652981953726 L25.42239435710087,385.8162529395077 M25.25658770818268,357.92219934535217 L25.42239435710087,385.8162529395077 M266.8594945005102,220.1448527129088 L25.25658770818268,357.92219934535217 M266.9178102012574,247.97652981953726 L266.8594945005102,220.1448527129088 M278.8835793520103,254.8395783149778 L37.387679611698445,392.7403648124862 M37.387679611698445,392.7403648124862 L25.42239435710087,385.8162529395077 M278.8835793520103,254.8395783149778 L266.9178102012574,247.97652981953726 M37.387679611698445,392.7403648124862 L37.22715030772889,364.84319211773135 M37.22715030772889,364.84319211773135 L25.25658770818268,357.92219934535217 M278.83054163997343,227.00478268958653 L266.8594945005102,220.1448527129088 M278.83054163997343,227.00478268958653 L37.22715030772889,364.84319211773135 M278.83054163997343,227.00478268958653 L278.8835793520103,254.8395783149778" stroke="black"  stroke-width="4"  fill="red"/>
<path d="M380.76387192080693,122.6904017260594 L114.36426466552939,274.4489537756118 M380.77188829747405,150.67747317570496 L114.49108968570903,302.50561917706153 M380.76387192080693,122.6904017260594 L380.77188829747405,150.67747317570496 M114.36426466552939,274.4489537756118 L114.49108968570903,302.50561917706153 M392.8111502850955,157.54659658940557 L126.5300357235235,309.4422897169837 M380.77188829747405,150.67747317570496 L392.8111502850955,157.54659658940557 M114.49108968570903,302.50561917706153 L126.5300357235235,309.4422897169837 M392.80847697337816,129.5563622486119 L126.40855334600633,281.3824605135439 M392.8111502850955,157.54659658940557 L392.80847697337816,129.5563622486119 M126.5300357235235,309.4422897169837 L126.40855334600633,281.3824605135439 M392.80847697337816,129.5563622486119 L380.76387192080693,122.6904017260594 M126.40855334600633,281.3824605135439 L114.36426466552939,274.4489537756118" stroke="black"  stroke-width="4"  fill="red"/>
<path d="M671.317798356326,288.31906118576336 L404.9178762596706,441.71125353964396 M671.1962617758497,316.3820542223563 L404.91514874226533,469.8438569442551 M671.317798356326,288.31906118576336 L671.1962617758497,316.3820542223563 M404.9178762596706,441.71125353964396 L404.91514874226533,469.8438569442551 M683.364760136699,323.32491476364476 L417.08396672896214,476.85535786542033 M671.1962617758497,316.3820542223563 L683.364760136699,323.32491476364476 M404.91514874226533,469.8438569442551 L417.08396672896214,476.85535786542033 M683.4917549928509,295.2587578636387 L417.0921529508955,448.71959016353117 M683.364760136699,323.32491476364476 L683.4917549928509,295.2587578636387 M417.08396672896214,476.85535786542033 L417.0921529508955,448.71959016353117 M683.4917549928509,295.2587578636387 L671.317798356326,288.31906118576336 M417.0921529508955,448.71959016353117 L404.9178762596706,441.71125353964396" stroke="black"  stroke-width="4"  fill="red"/>
<path d="M513.3285230889876,361.3823115449842 L271.7203797304254,500.41960571652663 M513.2777000935753,389.27792468690876 L271.77705465286095,528.3776037156642 M513.3285230889876,361.3823115449842 L513.2777000935753,389.27792468690876 M271.7203797304254,500.41960571652663 L271.77705465286095,528.3776037156642 M525.3526134261028,396.20357357210077 L283.85196745496097,535.3651552298311 M513.2777000935753,389.27792468690876 L525.3526134261028,396.20357357210077 M271.77705465286095,528.3776037156642 L283.85196745496097,535.3651552298311 M525.4088111586325,368.30484131956644 L283.80066726869785,507.4040379055213 M525.3526134261028,396.20357357210077 L525.4088111586325,368.30484131956644 M283.85196745496097,535.3651552298311 L283.80066726869785,507.4040379055213 M525.4088111586325,368.30484131956644 L513.3285230889876,361.3823115449842 M283.80066726869785,507.4040379055213 L271.7203797304254,500.41960571652663" stroke="black"  stroke-width="4"  fill="red"/>
<path d="M822.6826002008152,552.8476749796071 L243.0709238936388,220.55463515786965 M810.6644877610163,559.8461447445787 L231.05220598281215,227.4055679391658 M822.6826002008152,552.8476749796071 L810.6644877610163,559.8461447445787 M243.0709238936388,220.55463515786965 L231.05220598281215,227.4055679391658 M810.8483754050783,531.8741097797242 L230.97808431188406,199.58324615578425 M810.6644877610163,559.8461447445787 L810.8483754050783,531.8741097797242 M231.05220598281215,227.4055679391658 L230.97808431188406,199.58324615578425 M822.8718118292311,524.8787593396514 L243.00212701732818,192.73543173502145 M810.8483754050783,531.8741097797242 L822.8718118292311,524.8787593396514 M230.97808431188406,199.58324615578425 L243.00212701732818,192.73543173502145 M822.8718118292311,524.8787593396514 L822.6826002008152,552.8476749796071 M243.00212701732818,192.73543173502145 L243.0709238936388,220.55463515786965" stroke="black"  stroke-width="4"  fill="red"/>
<path d="M569.1707844370992,700.4744164144821 L-10.441618843825268,365.0623440829034 M557.0392474966425,707.538936313569 L-22.572556567336164,371.9772446184254 M569.1707844370992,700.4744164144821 L557.0392474966425,707.538936313569 M-10.441618843825268,365.0623440829034 L-22.572556567336164,371.9772446184254 M557.1102212732656,679.5013974828948 L-22.759591523068195,344.08942916249816 M557.0392474966425,707.538936313569 L557.1102212732656,679.5013974828948 M-22.572556567336164,371.9772446184254 L-22.759591523068195,344.08942916249816 M569.2471834651005,672.4399966641367 L-10.623229347299059,337.1776476628196 M557.1102212732656,679.5013974828948 L569.2471834651005,672.4399966641367 M-22.759591523068195,344.08942916249816 L-10.623229347299059,337.1776476628196 M569.2471834651005,672.4399966641367 L569.1707844370992,700.4744164144821 M-10.623229347299059,337.1776476628196 L-10.441618843825268,365.0623440829034" stroke="black"  stroke-width="4"  fill="red"/>
<path d="M254.68136828614206,37.12231454530297 L254.66940385814573,31.879396260504564 M-35.930710075320576,201.83340979640008 L-35.96698772906319,196.57623659476764 M254.68136828614206,37.12231454530297 L-35.930710075320576,201.83340979640008 M254.66940385814573,31.879396260504564 L-35.96698772906319,196.57623659476764 M545.3183749650887,536.58977272998 L545.3307300149947,531.3040779106293 M-35.930710075320576,201.83340979640008 L545.3183749650887,536.58977272998 M-35.96698772906319,196.57623659476764 L545.3307300149947,531.3040779106293 M835.9303194982056,368.31301697503386 L835.9669877290632,363.0415841488613 M545.3183749650887,536.58977272998 L835.9303194982056,368.31301697503386 M545.3307300149947,531.3040779106293 L835.9669877290632,363.0415841488613 M835.9303194982056,368.31301697503386 L254.68136828614206,37.12231454530297 M835.9669877290632,363.0415841488613 L254.66940385814573,31.879396260504564" stroke="black"  stroke-width="4"  fill="red"/></svg>