<svg viewBox="0 0 800 800" xmlns="http://www.w3.org/2000/svg"><path d="M309.55638381167915,277.8842484423796 L32.25650893180375,436.534064836232 M309.55638381167915,277.8842484423796 L309.54895407982,271.8923962829675 M32.225948778706424,430.5288093701502 L309.54895407982,271.8923962829675 M32.25650893180375,436.534064836232 L32.225948778706424,430.5288093701502 M489.8090893295267,701.4103957810751 L489.8166963193482,695.3830230534988 M32.25650893180375,436.534064836232 L489.8090893295267,701.4103957810751 M32.225948778706424,430.5288093701502 L489.8166963193482,695.3830230534988 M489.8090893295267,701.4103957810751 L767.1089295202567,540.4144449491127 M767.1396669197403,534.4004766094718 L489.8166963193482,695.3830230534988 M767.1089295202567,540.4144449491127 L767.1396669197403,534.4004766094718 M767.1089295202567,540.4144449491127 L309.55638381167915,277.8842484423796 M767.1396669197403,534.4004766094718 L309.54895407982,271.8923962829675" stroke="black"  stroke-width="4"  fill="red"/>
<path d="M282.1438835195848,325.9334702443155 L254.54881146275326,341.7355641965824 M254.54881146275326,341.7355641965824 L253.9875900378986,61.54968200420649 M253.9875900378986,61.54968200420649 L267.84184793725683,53.678350441185046 M267.9000525792621,85.80598833495753 L267.84184793725683,53.678350441185046 M281.742018159489,77.93451444717584 L267.9000525792621,85.80598833495753 M282.0404399242426,262.0964089393776 L281.742018159489,77.93451444717584 M268.23373045674634,269.98858359974315 L282.0404399242426,262.0964089393776 M268.2915882801224,301.92478550238025 L268.23373045674634,269.98858359974315 M282.0921845748012,294.0290425546888 L268.2915882801224,301.92478550238025 M282.1438835195848,325.9334702443155 L282.0921845748012,294.0290425546888 M254.54881146275326,341.7355641965824 L282.0404399242426,357.55162839435906 M282.0404399242426,357.55162839435906 L309.6355576868492,341.7355641965824 M309.6355576868492,341.7355641965824 L282.1438835195848,325.9334702443155 M253.9875900378986,61.54968200420649 L281.5857152944238,77.30282393863206 M282.0404399242426,357.55162839435906 L281.5857152944238,77.30282393863206 M295.43999768147995,69.42450572852505 L267.84184793725683,53.678350441185046 M281.5857152944238,77.30282393863206 L295.43999768147995,69.42450572852505 M295.43999768147995,69.42450572852505 L295.4859894875197,101.55940813786617 M295.4859894875197,101.55940813786617 L267.9000525792621,85.80598833495753 M295.4859894875197,101.55940813786617 L309.3279767911455,93.68095212470666 M309.3279767911455,93.68095212470666 L281.742018159489,77.93451444717584 M309.55638381167915,277.8842484423796 L282.0404399242426,262.0964089393776 M309.3279767911455,93.68095212470666 L309.55638381167915,277.8842484423796 M309.55638381167915,277.8842484423796 L295.7496527860612,285.7834057830113 M295.7496527860612,285.7834057830113 L268.23373045674634,269.98858359974315 M295.7496527860612,285.7834057830113 L295.7953704239588,317.72674436287593 M295.7953704239588,317.72674436287593 L268.2915882801224,301.92478550238025 M295.7953704239588,317.72674436287593 L309.5959882481867,309.82401866686826 M309.5959882481867,309.82401866686826 L282.0921845748012,294.0290425546888 M309.6355576868492,341.7355641965824 L309.5959882481867,309.82401866686826" stroke="black"  stroke-width="4"  fill="red"/>
<path d="M517.5447910338087,749.4608357422046 L489.72802745937713,765.6394951824486 M518.009547031526,467.67013350950515 L517.5447910338087,749.4608357422046 M518.009547031526,467.67013350950515 L504.0497801100291,475.72618596647914 M504.0497801100291,475.72618596647914 L504.00272998228337,508.04639374976045 M504.00272998228337,508.04639374976045 L490.0429525066976,516.1096961411856 M489.8090893295267,701.4103957810751 L490.0429525066976,516.1096961411856 M489.8090893295267,701.4103957810751 L503.7330087181441,693.3263859246822 M503.7330087181441,693.3263859246822 L503.6862422616133,725.4517310573226 M503.6862422616133,725.4517310573226 L489.7685402658888,733.5393095876327 M489.72802745937713,765.6394951824486 L489.7685402658888,733.5393095876327 M489.72802745937713,765.6394951824486 L517.6507002550837,781.8326273136825 M517.6507002550837,781.8326273136825 L545.4674164799138,765.6394951824486 M545.4674164799138,765.6394951824486 L517.5447910338087,749.4608357422046 M517.6507002550837,781.8326273136825 L517.7037259536872,749.7253236727927 M517.7037259536872,749.7253236727927 L489.7685402658888,733.5393095876327 M531.6214056293812,741.6305063165917 L517.7037259536872,749.7253236727927 M531.6214056293812,741.6305063165917 L503.6862422616133,725.4517310573226 M531.68069616774,709.4980238582832 L531.6214056293812,741.6305063165917 M531.68069616774,709.4980238582832 L503.7330087181441,693.3263859246822 M517.7567991291332,717.5892725860017 L531.68069616774,709.4980238582832 M517.7567991291332,717.5892725860017 L489.8090893295267,701.4103957810751 M517.7567991291332,717.5892725860017 L518.0628944402921,532.2471581534678 M518.0628944402921,532.2471581534678 L490.0429525066976,516.1096961411856 M518.0628944402921,532.2471581534678 L532.0226493924355,524.1766167970898 M532.0226493924355,524.1766167970898 L504.00272998228337,508.04639374976045 M532.0226493924355,524.1766167970898 L532.0822997309726,491.8491407827261 M532.0822997309726,491.8491407827261 L504.0497801100291,475.72618596647914 M546.0420412965949,483.78585424592035 L518.009547031526,467.67013350950515 M532.0822997309726,491.8491407827261 L546.0420412965949,483.78585424592035 M546.0420412965949,483.78585424592035 L545.4674164799138,765.6394951824486" stroke="black"  stroke-width="4"  fill="red"/>
<path d="M766.7813831450753,604.5009832767801 L739.1870786441298,620.5502570830809 M766.7813831450753,604.5009832767801 L766.9450834068338,572.4719825173386 M766.9450834068338,572.4719825173386 L753.1448950908921,580.4912738322793 M753.1448950908921,580.4912738322793 L753.3026285763727,548.4301673757973 M753.3026285763727,548.4301673757973 L767.1089295202567,540.4144449491127 M768.0538849034682,355.52789460762233 L767.1089295202567,540.4144449491127 M768.0538849034682,355.52789460762233 L754.212330998791,363.5229099218575 M754.212330998791,363.5229099218575 L754.3710173946336,331.2681137078373 M754.3710173946336,331.2681137078373 L740.5171238544572,339.2630676150638 M739.1870786441298,620.5502570830809 L740.5171238544572,339.2630676150638 M739.1870786441298,620.5502570830809 L767.1089295202567,636.613830275778 M767.1089295202567,636.613830275778 L794.7030881695379,620.5502570830809 M794.7030881695379,620.5502570830809 L766.7813831450753,604.5009832767801 M740.5171238544572,339.2630676150638 L768.5488344087489,355.2637021118611 M767.1089295202567,636.613830275778 L768.5488344087489,355.2637021118611 M782.4026555314259,347.2615962837065 L754.3710173946336,331.2681137078373 M768.5488344087489,355.2637021118611 L782.4026555314259,347.2615962837065 M782.4026555314259,347.2615962837065 L782.2313701078593,379.5236601239337 M782.2313701078593,379.5236601239337 L754.212330998791,363.5229099218575 M782.2313701078593,379.5236601239337 L796.072848960861,371.5214976289946 M796.072848960861,371.5214976289946 L768.0538849034682,355.52789460762233 M795.0556689542675,556.4494622693013 L767.1089295202567,540.4144449491127 M795.0556689542675,556.4494622693013 L796.072848960861,371.5214976289946 M781.2494424866003,564.472332018436 L795.0556689542675,556.4494622693013 M781.2494424866003,564.472332018436 L753.3026285763727,548.4301673757973 M781.0791860881661,596.5405762455825 L781.2494424866003,564.472332018436 M781.0791860881661,596.5405762455825 L753.1448950908921,580.4912738322793 M794.8793000273699,588.5141376124454 L781.0791860881661,596.5405762455825 M794.8793000273699,588.5141376124454 L766.9450834068338,572.4719825173386 M794.7030881695379,620.5502570830809 L794.8793000273699,588.5141376124454" stroke="black"  stroke-width="4"  fill="red"/>
<path d="M32.907248337846056,468.65680567817503 L5.091441099160988,484.5853018400478 M5.091441099160988,484.5853018400478 L4.916555898139393,452.609691438649 M18.833754824427842,444.6472365615192 L4.916555898139393,452.609691438649 M18.664931046611173,412.6468005600851 L18.833754824427842,444.6472365615192 M4.741515398904028,420.6056866668192 L18.664931046611173,412.6468005600851 M4.741515398904028,420.6056866668192 L3.7320083754510733,236.0297300344042 M17.69127822586671,228.09154903812959 L3.7320083754510733,236.0297300344042 M17.521438403037166,195.8985223730565 L17.69127822586671,228.09154903812959 M17.521438403037166,195.8985223730565 L31.480746054437304,187.96750652849903 M31.480746054437304,187.96750652849903 L32.907248337846056,468.65680567817503 M5.091441099160988,484.5853018400478 L32.58216743518261,500.52793624327154 M32.58216743518261,500.52793624327154 L60.39811888187592,484.5853018400478 M60.39811888187592,484.5853018400478 L32.907248337846056,468.65680567817503 M32.58216743518261,500.52793624327154 L32.41941047975325,468.5452071934108 M32.41941047975325,468.5452071934108 L4.916555898139393,452.609691438649 M32.41941047975325,468.5452071934108 L46.336682992385306,460.57568086460884 M46.336682992385306,460.57568086460884 L18.833754824427842,444.6472365615192 M46.336682992385306,460.57568086460884 L46.179998263925825,428.5681073071857 M46.179998263925825,428.5681073071857 L18.664931046611173,412.6468005600851 M46.179998263925825,428.5681073071857 L32.25650893180375,436.534064836232 M32.25650893180375,436.534064836232 L4.741515398904028,420.6056866668192 M32.25650893180375,436.534064836232 L31.317009348026033,251.91669747918615 M31.317009348026033,251.91669747918615 L3.7320083754510733,236.0297300344042 M31.317009348026033,251.91669747918615 L45.276353450162105,243.9714453944348 M45.276353450162105,243.9714453944348 L17.69127822586671,228.09154903812959 M45.276353450162105,243.9714453944348 L45.11872531348024,211.77115230160737 M45.11872531348024,211.77115230160737 L17.521438403037166,195.8985223730565 M59.078104514288555,203.83307017746455 L31.480746054437304,187.96750652849903 M45.11872531348024,211.77115230160737 L59.078104514288555,203.83307017746455 M59.078104514288555,203.83307017746455 L60.39811888187592,484.5853018400478" stroke="black"  stroke-width="4"  fill="red"/>
<path d="M18.833754824427842,444.6472365615192 L531.6214056293812,741.6305063165917 M18.833754824427842,444.6472365615192 L4.916555898139393,452.609691438649 M517.7037259536872,749.7253236727927 L4.916555898139393,452.609691438649 M531.6214056293812,741.6305063165917 L517.7037259536872,749.7253236727927 M517.7567991291332,717.5892725860017 L4.741515398904028,420.6056866668192 M517.7037259536872,749.7253236727927 L517.7567991291332,717.5892725860017 M4.916555898139393,452.609691438649 L4.741515398904028,420.6056866668192 M4.741515398904028,420.6056866668192 L18.664931046611173,412.6468005600851 M531.68069616774,709.4980238582832 L18.664931046611173,412.6468005600851 M517.7567991291332,717.5892725860017 L531.68069616774,709.4980238582832 M531.68069616774,709.4980238582832 L531.6214056293812,741.6305063165917 M18.664931046611173,412.6468005600851 L18.833754824427842,444.6472365615192" stroke="black"  stroke-width="4"  fill="red"/>
<path d="M794.8793000273699,588.5141376124454 L282.0921845748012,294.0290425546888 M282.0921845748012,294.0290425546888 L268.2915882801224,301.92478550238025 M781.0791860881661,596.5405762455825 L268.2915882801224,301.92478550238025 M794.8793000273699,588.5141376124454 L781.0791860881661,596.5405762455825 M781.0791860881661,596.5405762455825 L781.2494424866003,564.472332018436 M268.2915882801224,301.92478550238025 L268.23373045674634,269.98858359974315 M781.2494424866003,564.472332018436 L268.23373045674634,269.98858359974315 M268.23373045674634,269.98858359974315 L282.0404399242426,262.0964089393776 M795.0556689542675,556.4494622693013 L282.0404399242426,262.0964089393776 M781.2494424866003,564.472332018436 L795.0556689542675,556.4494622693013 M795.0556689542675,556.4494622693013 L794.8793000273699,588.5141376124454 M282.0404399242426,262.0964089393776 L282.0921845748012,294.0290425546888" stroke="black"  stroke-width="4"  fill="red"/>
<path d="M739.3385590131434,540.4144449491127 L489.7685402658888,685.2459918615828 M739.1870786441298,572.4719825173386 L489.72802745937713,717.3677682992404 M739.3385590131434,540.4144449491127 L739.1870786441298,572.4719825173386 M489.7685402658888,685.2459918615828 L489.72802745937713,717.3677682992404 M753.1448950908921,580.4912738322793 L503.6862422616133,725.4517310573226 M739.1870786441298,572.4719825173386 L753.1448950908921,580.4912738322793 M489.72802745937713,717.3677682992404 L503.6862422616133,725.4517310573226 M753.3026285763727,548.4301673757973 L503.7330087181441,693.3263859246822 M753.1448950908921,580.4912738322793 L753.3026285763727,548.4301673757973 M503.6862422616133,725.4517310573226 L503.7330087181441,693.3263859246822 M753.3026285763727,548.4301673757973 L739.3385590131434,540.4144449491127 M503.7330087181441,693.3263859246822 L489.7685402658888,685.2459918615828" stroke="black"  stroke-width="4"  fill="red"/>
<path d="M295.7496527860612,285.7834057830113 L46.179998263925825,428.5681073071857 M295.7953704239588,317.72674436287593 L46.336682992385306,460.57568086460884 M295.7496527860612,285.7834057830113 L295.7953704239588,317.72674436287593 M46.179998263925825,428.5681073071857 L46.336682992385306,460.57568086460884 M309.55638381167915,325.63296490717374 L60.097305560602365,468.5452071934108 M295.7953704239588,317.72674436287593 L309.55638381167915,325.63296490717374 M46.336682992385306,460.57568086460884 L60.097305560602365,468.5452071934108 M309.5167443308742,293.6860579394112 L59.946698469101875,436.534064836232 M309.55638381167915,325.63296490717374 L309.5167443308742,293.6860579394112 M60.097305560602365,468.5452071934108 L59.946698469101875,436.534064836232 M309.5167443308742,293.6860579394112 L295.7496527860612,285.7834057830113 M59.946698469101875,436.534064836232 L46.179998263925825,428.5681073071857" stroke="black"  stroke-width="4"  fill="red"/>
<path d="M740.2121970089427,355.52789460762233 L740.3645923068462,323.27673216607434 M740.2121970089427,355.52789460762233 L490.00219401691936,499.98670718900405 M490.0429525066977,467.67013350950515 L490.00219401691936,499.98670718900405 M740.3645923068462,323.27673216607434 L490.0429525066977,467.67013350950515 M754.3710173946336,331.2681137078373 L754.212330998791,363.5229099218575 M754.3710173946336,331.2681137078373 L740.3645923068462,323.27673216607434 M754.212330998791,363.5229099218575 L740.2121970089427,355.52789460762233 M754.212330998791,363.5229099218575 L504.00272998228337,508.04639374976045 M504.00272998228337,508.04639374976045 L490.00219401691936,499.98670718900405 M504.00272998228337,508.04639374976045 L504.0497801100291,475.72618596647914 M504.0497801100291,475.72618596647914 L490.0429525066977,467.67013350950515 M754.3710173946336,331.2681137078373 L504.0497801100291,475.72618596647914" stroke="black"  stroke-width="4"  fill="red"/>
<path d="M295.4859894875197,101.55940813786617 L295.43999768147995,69.42450572852505 M295.4859894875197,101.55940813786617 L45.276353450162105,243.9714453944348 M45.11872531348024,211.77115230160737 L45.276353450162105,243.9714453944348 M295.43999768147995,69.42450572852505 L45.11872531348024,211.77115230160737 M309.2482576489135,77.30282393863206 L309.28813490003444,109.44135869793746 M309.2482576489135,77.30282393863206 L295.43999768147995,69.42450572852505 M309.28813490003444,109.44135869793746 L295.4859894875197,101.55940813786617 M309.28813490003444,109.44135869793746 L59.0781045142885,251.91669747918615 M59.0781045142885,251.91669747918615 L45.276353450162105,243.9714453944348 M59.0781045142885,251.91669747918615 L58.92659040611886,219.71277110747172 M58.92659040611886,219.71277110747172 L45.11872531348024,211.77115230160737 M309.2482576489135,77.30282393863206 L58.92659040611886,219.71277110747172" stroke="black"  stroke-width="4"  fill="red"/>
<path d="M516.7564660705452,412.6468005600852 L267.1834707499177,556.4494622693012 M516.7042841755837,444.6472365615192 L267.24226039221685,588.5141376124454 M516.7564660705452,412.6468005600852 L516.7042841755837,444.6472365615192 M267.1834707499177,556.4494622693012 L267.24226039221685,588.5141376124454 M530.5631751019604,452.609691438649 L281.1011508758827,596.5405762455825 M516.7042841755837,444.6472365615192 L530.5631751019604,452.609691438649 M267.24226039221685,588.5141376124454 L281.1011508758827,596.5405762455825 M530.6215219350389,420.6056866668192 L281.0485261709121,564.472332018436 M530.5631751019604,452.609691438649 L530.6215219350389,420.6056866668192 M281.1011508758827,596.5405762455825 L281.0485261709121,564.472332018436 M530.6215219350389,420.6056866668192 L516.7564660705452,412.6468005600852 M281.0485261709121,564.472332018436 L267.1834707499177,556.4494622693012" stroke="black"  stroke-width="4"  fill="red"/>
<path d="M517.0574133060479,228.09154903812959 L517.1099092512861,195.8985223730565 M517.0574133060479,228.09154903812959 L266.84441074771985,371.5214976289946 M266.7852658619115,339.2630676150638 L266.84441074771985,371.5214976289946 M517.1099092512861,195.8985223730565 L266.7852658619115,339.2630676150638 M531.0167223407525,203.83307017746455 L530.9580242761898,236.0297300344042 M531.0167223407525,203.83307017746455 L517.1099092512861,195.8985223730565 M530.9580242761898,236.0297300344042 L517.0574133060479,228.09154903812959 M530.9580242761898,236.0297300344042 L280.7450212697957,379.5236601239336 M280.7450212697957,379.5236601239336 L266.84441074771985,371.5214976289946 M280.7450212697957,379.5236601239336 L280.69207850251144,347.26159628370647 M280.69207850251144,347.26159628370647 L266.7852658619115,339.2630676150638 M531.0167223407525,203.83307017746455 L280.69207850251144,347.26159628370647" stroke="black"  stroke-width="4"  fill="red"/>
<path d="M254.11625294972055,77.93451444717584 L3.907945866852856,220.15690004674758 M267.9000525792621,85.80598833495753 L17.69127822586671,228.09154903812959 M254.11625294972055,77.93451444717584 L267.9000525792621,85.80598833495753 M3.907945866852856,220.15690004674758 L17.69127822586671,228.09154903812959 M267.84184793725683,53.678350441185046 L17.521438403037166,195.8985223730565 M267.9000525792621,85.80598833495753 L267.84184793725683,53.678350441185046 M17.69127822586671,228.09154903812959 L17.521438403037166,195.8985223730565 M254.0519500158472,45.81050871702956 L3.7320083754510733,187.96750652849894 M267.84184793725683,53.678350441185046 L254.0519500158472,45.81050871702956 M17.521438403037166,195.8985223730565 L3.7320083754510733,187.96750652849894 M254.0519500158472,45.81050871702956 L254.11625294972055,77.93451444717584 M3.7320083754510733,187.96750652849894 L3.907945866852856,220.15690004674758" stroke="black"  stroke-width="4"  fill="red"/>
<path d="M782.2313701078593,379.5236601239337 L532.0226493924355,524.1766167970898 M796.2502836182861,387.5293998037164 L546.0420412965949,532.2471581534678 M782.2313701078593,379.5236601239337 L796.2502836182861,387.5293998037164 M532.0226493924355,524.1766167970898 L546.0420412965949,532.2471581534678 M796.4278769829182,355.2637021118611 L546.1080002193589,499.9160480139803 M796.2502836182861,387.5293998037164 L796.4278769829182,355.2637021118611 M546.0420412965949,532.2471581534678 L546.1080002193589,499.9160480139803 M782.4026555314259,347.2615962837065 L532.0822997309726,491.8491407827261 M796.4278769829182,355.2637021118611 L782.4026555314259,347.2615962837065 M546.1080002193589,499.9160480139803 L532.0822997309726,491.8491407827261 M782.4026555314259,347.2615962837065 L782.2313701078593,379.5236601239337 M532.0822997309726,491.8491407827261 L532.0226493924355,524.1766167970898" stroke="black"  stroke-width="4"  fill="red"/>
<path d="M546.0420412965949,532.2471581534678 L3.907945866852856,220.15690004674758 M532.0822997309726,540.321322648502 L-10.051284834143303,228.09154903812959 M546.0420412965949,532.2471581534678 L532.0822997309726,540.321322648502 M3.907945866852856,220.15690004674758 L-10.051284834143303,228.09154903812959 M532.1420036516688,507.98657837895627 L-10.233476644087716,195.8985223730565 M532.0822997309726,540.321322648502 L532.1420036516688,507.98657837895627 M-10.051284834143303,228.09154903812959 L-10.233476644087716,195.8985223730565 M546.1080002193589,499.9160480139803 L3.7320083754510733,187.96750652849894 M532.1420036516688,507.98657837895627 L546.1080002193589,499.9160480139803 M-10.233476644087716,195.8985223730565 L3.7320083754510733,187.96750652849894 M546.1080002193589,499.9160480139803 L546.0420412965949,532.2471581534678 M3.7320083754510733,187.96750652849894 L3.907945866852856,220.15690004674758" stroke="black"  stroke-width="4"  fill="red"/>
<path d="M810.0917228210851,379.5236601239337 L267.95820564426947,70.06652814197628 M796.2502836182861,387.5293998037164 L254.11625294972055,77.93451444717584 M810.0917228210851,379.5236601239337 L796.2502836182861,387.5293998037164 M267.95820564426947,70.06652814197628 L254.11625294972055,77.93451444717584 M796.4278769829182,355.2637021118611 L254.0519500158472,45.81050871702956 M796.2502836182861,387.5293998037164 L796.4278769829182,355.2637021118611 M254.11625294972055,77.93451444717584 L254.0519500158472,45.81050871702956 M810.2754653663656,347.2615962837065 L267.900052579262,37.94615451136883 M796.4278769829182,355.2637021118611 L810.2754653663656,347.2615962837065 M254.0519500158472,45.81050871702956 L267.900052579262,37.94615451136883 M810.2754653663656,347.2615962837065 L810.0917228210851,379.5236601239337 M267.900052579262,37.94615451136883 L267.95820564426947,70.06652814197628" stroke="black"  stroke-width="4"  fill="red"/>
<path d="M278.3088799324374,24.191919520942633 L278.2988395546406,18.16737268631755 M-34.591446550112494,201.84910197610628 L-34.62766524080621,195.80920604796182 M278.3088799324374,24.191919520942633 L-34.591446550112494,201.84910197610628 M278.2988395546406,18.16737268631755 L-34.62766524080621,195.80920604796182 M521.690912149053,522.1187320278874 L521.7012364722351,516.0515392815091 M-34.591446550112494,201.84910197610628 L521.690912149053,522.1187320278874 M-34.62766524080621,195.80920604796182 L521.7012364722351,516.0515392815091 M834.5911626301657,341.2623645547028 L834.6276652408062,335.2105272611965 M521.690912149053,522.1187320278874 L834.5911626301657,341.2623645547028 M521.7012364722351,516.0515392815091 L834.6276652408062,335.2105272611965 M834.5911626301657,341.2623645547028 L278.3088799324374,24.191919520942633 M834.6276652408062,335.2105272611965 L278.2988395546406,18.16737268631755" stroke="black"  stroke-width="4"  fill="red"/>
<path d="M309.5266574890218,253.9108757846657 L309.519222825993,247.91504678731948 M32.13423776605089,412.5070390506435 L32.103657239801635,406.4977801366253 M309.5266574890218,253.9108757846657 L32.13423776605089,412.5070390506435 M309.519222825993,247.91504678731948 L32.103657239801635,406.4977801366253 M330.1864365574023,265.7568985337557 L309.5266574890218,253.9108757846657 M330.1807137888567,259.76006237573904 L309.519222825993,247.91504678731948 M330.1864365574023,265.7568985337557 L330.1807137888567,259.76006237573904 M489.8395249502838,677.294834329751 L489.84713704882466,671.263413725588 M32.13423776605089,412.5070390506435 L489.8395249502838,677.294834329751 M32.103657239801635,406.4977801366253 L489.84713704882466,671.263413725588 M746.2811516399217,504.33967545161346 L711.7422561838799,524.3655810358987 M295.64664007766675,285.5177533963621 L711.7422561838799,524.3655810358987 M295.64664007766675,285.5177533963621 L330.1864365574023,265.7568985337557 M489.8395249502838,677.294834329751 L767.2319099377765,516.3525415420797 M767.2319099377765,516.3525415420797 L746.2811516399217,504.33967545161346 M489.69474516151024,390.8932658895176 L377.87064628970916,326.7145989335333 M398.6008795748517,314.82511636795914 L377.87064628970916,326.7145989335333 M372.0828025464419,299.61584302334995 L398.6008795748517,314.82511636795914 M372.0828025464419,299.61584302334995 L351.3525761010403,311.4952105179368 M351.3525761010403,311.4952105179368 L295.63804641977316,279.5192386022352 M295.63804641977316,279.5192386022352 L330.1807137888567,259.76006237573904 M489.84713704882466,671.263413725588 L767.2626678879425,510.33455233030986 M767.2626678879425,510.33455233030986 L746.3101491866045,498.3226935985234 M746.3101491866045,498.3226935985234 L711.7683830667721,518.3469202504177 M711.7683830667721,518.3469202504177 L655.4075380750427,486.00001169872087 M676.1373927739068,474.0044070771573 L655.4075380750427,486.00001169872087 M649.3827134032932,458.65943197360474 L676.1373927739068,474.0044070771573 M649.3827134032932,458.65943197360474 L628.6527864151827,470.64478582530023 M628.6527864151827,470.64478582530023 L516.3307650667468,406.1803486183571 M537.0609122060341,394.23798183837204 L516.3307650667468,406.1803486183571 M510.42492476241364,378.96108172983156 L537.0609122060341,394.23798183837204 M510.42492476241364,378.96108172983156 L489.69474516151024,390.8932658895176 M295.64664007766675,285.5177533963621 L295.63804641977316,279.5192386022352 M767.2319099377765,516.3525415420797 L767.2626678879425,510.33455233030986 M628.6527864151827,470.64478582530023 L637.5179950582952,477.5173783270536 M637.5179950582952,477.5173783270536 L646.525250007176,482.68712569730866 M646.525250007176,482.68712569730866 L655.4075380750427,486.00001169872087 M711.7683830667721,518.3469202504177 L711.7422561838799,524.3655810358987 M351.3525761010403,311.4952105179368 L360.14617158171467,318.3187919498447 M360.14617158171467,318.3187919498447 L369.0737473041899,323.44280713271195 M369.0737473041899,323.44280713271195 L377.87064628970916,326.7145989335333 M489.69474516151024,390.8932658895176 L498.52402717525996,397.7412751721248 M498.52402717525996,397.7412751721248 L507.49132216486345,402.8880873756104 M507.49132216486345,402.8880873756104 L516.3307650667468,406.1803486183571 M746.3101491866045,498.3226935985234 L746.2811516399217,504.33967545161346 M510.42492476241364,378.96108172983156 L519.2536865345468,385.8054169042745 M519.2536865345468,385.8054169042745 L528.2209705963867,390.948800936332 M528.2209705963867,390.948800936332 L537.0609122060341,394.23798183837204 M649.3827134032932,458.65943197360474 L658.2473886262821,465.52832776168964 M658.2473886262821,465.52832776168964 L667.254619239709,470.69462402159104 M667.254619239709,470.69462402159104 L676.1373927739068,474.0044070771573 M372.0828025464419,299.61584302334995 L380.8758908048577,306.43577275793325 M380.8758908048577,306.43577275793325 L389.8034688301256,311.556382514851 M389.8034688301256,311.556382514851 L398.6008795748517,314.82511636795914" stroke="black"  stroke-width="4"  fill="red"/>
<path d="M309.3777295016306,133.8049958195487 L309.3702701089593,127.78922311967551 M31.52165745693503,292.1312923057762 L31.490974758686775,286.10195597417345 M309.3777295016306,133.8049958195487 L31.52165745693503,292.1312923057762 M309.3702701089593,127.78922311967551 L31.490974758686775,286.10195597417345 M330.0718004474562,145.63078061444335 L309.3777295016306,133.8049958195487 M330.06605863714503,139.6139907667017 L309.3702701089593,127.78922311967551 M330.0718004474562,145.63078061444335 L330.06605863714503,139.6139907667017 M489.9920101055062,556.473735902788 L489.99964782500444,550.4220146195092 M31.52165745693503,292.1312923057762 L489.9920101055062,556.473735902788 M31.490974758686775,286.10195597417345 L489.99964782500444,550.4220146195092 M505.2392757001558,261.57347468367965 L484.4762933571645,273.4843787147766 M383.1806361442526,215.53391283409215 L484.4762933571645,273.4843787147766 M403.9436672612476,203.6616274529381 L383.1806361442526,215.53391283409215 M366.70181896741235,182.3700407571163 L403.9436672612476,203.6616274529381 M366.70181896741235,182.3700407571163 L345.93879748543753,194.22814356507638 M345.93879748543753,194.22814356507638 L295.4744953605861,165.35790471236885 M295.4744953605861,165.35790471236885 L330.0718004474562,145.63078061444335 M489.9920101055062,556.473735902788 L767.8480471818956,395.8013582524078 M767.8480471818956,395.8013582524078 L746.8620245169948,383.80873541924984 M746.8620245169948,383.80873541924984 L712.2656249793083,403.8009021804078 M712.2656249793083,403.8009021804078 L661.2062063766969,374.59020177102184 M681.9688410900619,362.6117699241707 L661.2062063766969,374.59020177102184 M644.3941807623752,341.1299108171556 L681.9688410900619,362.6117699241707 M644.3941807623752,341.1299108171556 L623.6314442016773,353.09396952069443 M521.8840282864309,294.88505596331527 L623.6314442016773,353.09396952069443 M542.6469648945946,282.9598745016927 L521.8840282864309,294.88505596331527 M505.2392757001558,261.57347468367965 L542.6469648945946,282.9598745016927 M712.2918394272763,397.7620696626215 L295.4658730925513,159.3394195682931 M295.4658730925513,159.3394195682931 L330.06605863714503,139.6139907667017 M489.99964782500444,550.4220146195092 L767.8789081952781,389.76320406470035 M767.8789081952781,389.76320406470035 L746.8911191956173,377.7715987191098 M746.8911191956173,377.7715987191098 L712.2918394272763,397.7620696626215 M295.4744953605861,165.35790471236885 L295.4658730925513,159.3394195682931 M767.8480471818956,395.8013582524078 L767.8789081952781,389.76320406470035 M712.2918394272763,397.7620696626215 L712.2656249793083,403.8009021804078 M623.6314442016773,353.09396952069443 L632.8701104327405,355.36492144317117 M632.8701104327405,355.36492144317117 L642.4267471343098,359.81534384151655 M642.4267471343098,359.81534384151655 L651.9794626893356,366.29631418857707 M651.9794626893356,366.29631418857707 L661.2062063766969,374.59020177102184 M484.4762933571645,273.4843787147766 L493.66813118265156,275.7352466280344 M493.66813118265156,275.7352466280344 L503.18034468078366,280.1625185401532 M503.18034468078366,280.1625185401532 L512.6925384642298,286.61804709929146 M512.6925384642298,286.61804709929146 L521.8840282864309,294.88505596331527 M345.93879748543753,194.22814356507638 L355.0841394075155,196.45908791902949 M355.0841394075155,196.45908791902949 L364.5522311874776,200.86337176596487 M364.5522311874776,200.86337176596487 L374.02417014486684,207.29362128363337 M374.02417014486684,207.29362128363337 L383.1806361442526,215.53391283409215 M505.2392757001558,261.57347468367965 L514.4319657200435,263.82134381893695 M514.4319657200435,263.82134381893695 L523.9444586900579,268.24515719251474 M523.9444586900579,268.24515719251474 L533.456349741226,274.69688354436454 M533.456349741226,274.69688354436454 L542.6469648945946,282.9598745016927 M644.3941807623752,341.1299108171556 L653.633685385748,343.39784050795305 M653.633685385748,343.39784050795305 L663.1905872844551,347.8447800524963 M663.1905872844551,347.8447800524963 L672.7429858425099,354.3219238323458 M672.7429858425099,354.3219238323458 L681.9688410900619,362.6117699241707 M746.8911191956173,377.7715987191098 L746.8620245169948,383.80873541924984 M366.70181896741235,182.3700407571163 L375.8480266778873,184.59800956112068 M375.8480266778873,184.59800956112068 L385.3164120069714,188.99885896377117 M385.3164120069714,188.99885896377117 L394.7880623165493,195.42533042259666 M394.7880623165493,195.42533042259666 L403.9436672612476,203.6616274529381" stroke="black"  stroke-width="4"  fill="red"/>
<path d="M572.774345601369,299.83158210488233 L607.3829172362327,279.93514114656557 M572.388345545121,460.42250664175924 L606.9202322080465,440.481067816148 M572.774345601369,299.83158210488233 L572.388345545121,460.42250664175924 M607.3829172362327,279.93514114656557 L606.9202322080465,440.481067816148 M433.7988853498283,220.3785201899679 L468.4077576033523,200.57042431872378 M433.7988853498283,220.3785201899679 L572.774345601369,299.83158210488233 M468.4077576033523,200.57042431872378 L607.3829172362327,279.93514114656557 M433.7220278408469,380.7894583412592 L468.25421312424277,360.93636825946965 M572.388345545121,460.42250664175924 L433.7220278408469,380.7894583412592 M606.9202322080465,440.481067816148 L468.25421312424277,360.93636825946965 M433.7220278408469,380.7894583412592 L433.7988853498283,220.3785201899679 M503.0070307066962,400.53815066141493 L491.4368390441452,392.38983706513517 M491.4368390441452,392.38983706513517 L480.4537444983834,381.63972992290974 M480.4537444983834,381.63972992290974 L470.6064779075096,368.8260026735537 M470.6064779075096,368.8260026735537 L462.3869260638495,354.589317437683 M462.3869260638495,354.589317437683 L456.20582533845,339.64110961539086 M456.20582533845,339.64110961539086 L452.3724596524885,324.72834814977193 M452.3724596524885,324.72834814977193 L451.07927550385074,310.5966403270873 M451.07927550385074,310.5966403270873 L452.3921940068781,297.9532468160438 M452.3921940068781,297.9532468160438 L456.2470858408339,287.4318990115057 M456.2470858408339,287.4318990115057 L462.45265765796745,279.5610431371683 M462.45265765796745,279.5610431371683 L470.6996411584381,274.7372519986273 M470.6996411584381,274.7372519986273 L480.5759309847802,273.2048353539638 M480.5759309847802,273.2048353539638 L491.5869524466622,275.0432527339693 M491.5869524466622,275.0432527339693 L503.18034468078395,280.16251854015337 M503.18034468078395,280.16251854015337 L514.7736894546246,288.3072746401847 M514.7736894546246,288.3072746401847 L525.7839330950969,299.0693990647589 M525.7839330950969,299.0693990647589 L535.6569675456465,311.90834584611866 M535.6569675456465,311.90834584611866 L543.8958024197051,326.1784149076087 M543.8958024197051,326.1784149076087 L550.0858820109149,341.16161699936106 M550.0858820109149,341.16161699936106 L553.9161441045213,356.1040015535028 M553.9161441045213,356.1040015535028 L555.194756870673,370.25412317887145 M555.194756870673,370.25412317887145 L553.8586852536364,382.90106647324257 M553.8586852536364,382.90106647324257 L549.9766443348799,393.4104046361957 M549.9766443348799,393.4104046361957 L543.7453046949063,401.25604100479734 M543.7453046949063,401.25604100479734 L535.479038197082,406.04644835893953 M535.479038197082,406.04644835893953 L525.5937694937566,407.54387076838896 M525.5937694937566,407.54387076838896 L514.585851602934,405.6758226387972 M514.585851602934,405.6758226387972 L503.0070307066962,400.53815066141493 M468.25421312424277,360.93636825946965 L468.4077576033523,200.57042431872378 M503.0070307066962,400.53815066141493 L523.7366205647222,388.6005409957673 M523.7366205647222,388.6005409957673 L512.1668743764393,380.45690358002406 M512.1668743764393,380.45690358002406 L501.18506592160065,369.71174121343574 M501.18506592160065,369.71174121343574 L491.33986214067113,356.9029804010874 M491.33986214067113,356.9029804010874 L483.12304724758405,342.6710357014097 M483.12304724758405,342.6710357014097 L476.9452213144145,327.7271064440378 M476.9452213144145,327.7271064440378 L473.115504907588,312.8179485122763 M473.115504907588,312.8179485122763 L471.82616212150685,298.6889895279253 M471.82616212150685,298.6889895279253 L473.14292165763277,286.0473526987747 M473.14292165763277,286.0473526987747 L477.0014613745778,275.5266809800699 M477.0014613745778,275.5266809800699 L483.2103044168505,267.65538568358045 M483.2103044168505,267.65538568358045 L491.4600175834823,262.83006016837953 M491.4600175834823,262.83006016837953 L501.338357701375,261.29508949296087 M501.338357701375,261.29508949296087 L512.3506464037887,263.13005976349734 M512.3506464037887,263.13005976349734 L523.9444586900581,268.2451571925149 M523.9444586900581,268.2451571925149 L535.5373550624544,276.3852322904256 M535.5373550624544,276.3852322904256 L546.5463045419656,287.1423981629042 M546.5463045419656,287.1423981629042 L556.4172645658524,299.9763585032328 M556.4172645658524,299.9763585032328 L564.653349639091,314.2416647662202 M564.653349639091,314.2416647662202 L570.8401428827518,329.22056817198705 M570.8401428827518,329.22056817198705 L574.6667477400092,344.15933520620047 M574.6667477400092,344.15933520620047 L575.9415163521631,358.3067029073697 M575.9415163521631,358.3067029073697 L574.6016066314268,370.95189434278495 M574.6016066314268,370.95189434278495 L570.7159258975108,381.46057019509294 M570.7159258975108,381.46057019509294 L564.4813266490783,389.3066659898358 M564.4813266490783,389.3066659898358 L556.2123433353049,394.09862998288696 M556.2123433353049,394.09862998288696 L546.3250358957428,395.59862654411575 M546.3250358957428,395.59862654411575 L535.3158587238264,393.73403951136135 M535.3158587238264,393.73403951136135 L523.7366205647222,388.6005409957673" stroke="black"  stroke-width="4"  fill="red"/>
<path d="M712.3705091144172,379.639503608519 L746.9784324527886,359.6541252072067 M711.6726058416601,540.4104259239906 L746.2038485263845,520.3800472951366 M712.3705091144172,379.639503608519 L711.6726058416601,540.4104259239906 M746.9784324527886,359.6541252072067 L746.2038485263845,520.3800472951366 M572.774345601369,299.83158210488233 L607.3829172362327,279.93514114656557 M572.774345601369,299.83158210488233 L712.3705091144172,379.639503608519 M607.3829172362327,279.93514114656557 L746.9784324527886,359.6541252072067 M572.388345545121,460.42250664175924 L606.9202322080465,440.481067816148 M711.6726058416601,540.4104259239906 L572.388345545121,460.42250664175924 M746.2038485263845,520.3800472951366 L606.9202322080465,440.481067816148 M572.388345545121,460.42250664175924 L572.774345601369,299.83158210488233 M642.0205437166552,480.3259701479961 L630.4016850923148,472.146368154889 M630.4016850923148,472.146368154889 L619.3782131520616,461.3631904938135 M619.3782131520616,461.3631904938135 L609.5008605527668,448.5162569532815 M609.5008605527668,448.5162569532815 L601.2630123684172,434.2478853529492 M601.2630123684172,434.2478853529492 L595.0763258291736,419.27109462018046 M595.0763258291736,419.27109462018046 L591.250351687374,404.3342695134628 M591.250351687374,404.3342695134628 L589.9771815561588,390.1842226893086 M589.9771815561588,390.1842226893086 L591.3217406558134,377.5291299963038 M591.3217406558134,377.5291299963038 L595.2183302099655,367.0033137474876 M595.2183302099655,367.0033137474876 L601.4735701705164,359.1354453956143 M601.4735701705164,359.1354453956143 L609.7757260030114,354.32196536696154 M609.7757260030114,354.32196536696154 L619.7099224815536,352.8066717417811 M619.7099224815536,352.8066717417811 L630.778680546483,354.6681749490265 M630.778680546483,354.6681749490265 L642.4267471343098,359.81534384151655 M642.4267471343098,359.81534384151655 L654.0689464706297,367.9914207905341 M654.0689464706297,367.9914207905341 L665.1197562101578,378.78670807924345 M665.1197562101578,378.78670807924345 L675.0230357696908,391.6589989169013 M675.0230357696908,391.6589989169013 L683.2802397311269,405.9608957065679 M683.2802397311269,405.9608957065679 L689.4759209611466,420.9728229054744 M689.4759209611466,420.9728229054744 L693.298710095084,435.9393645570062 M693.298710095084,435.9393645570062 L694.5571528843036,450.10785521968654 M694.5571528843036,450.10785521968654 L693.1892597452995,462.7664690511783 M693.1892597452995,462.7664690511783 L689.2653323658329,473.28018331523594 M689.2653323658329,473.28018331523594 L682.984158837918,481.1226905795135 M682.984158837918,481.1226905795135 L674.6626472546856,485.9026454644704 M674.6626472546856,485.9026454644704 L664.7194627354407,487.3828064651885 M664.7194627354407,487.3828064651885 L653.6538896826331,485.4915790557106 M653.6538896826331,485.4915790557106 L642.0205437166552,480.3259701479961 M606.9202322080465,440.481067816148 L607.3829172362327,279.93514114656557 M642.0205437166552,480.3259701479961 L662.7498610835146,468.33515671538987 M662.7498610835146,468.33515671538987 L651.1314652133437,460.1602605176906 M651.1314652133437,460.1602605176906 L640.1092957317044,449.3820557663099 M640.1092957317044,449.3820557663099 L630.2340205860909,436.5401139183749 M630.2340205860909,436.5401139183749 L621.9989215462807,422.27650397606203 M621.9989215462807,422.27650397606203 L615.8155189383284,407.30400774438215 M615.8155189383284,407.30400774438215 L611.9931997045145,392.3707961362776 M611.9931997045145,392.3707961362776 L610.7238727711771,378.223501644437 M610.7238727711771,378.223501644437 L612.0722708488703,365.57016248155855 M612.0722708488703,365.57016248155855 L615.9725024359557,355.0450126719205 M615.9725024359557,355.0450126719205 L622.2310042609728,347.1766892341701 M622.2310042609728,347.1766892341701 L630.5358773491572,342.36165391702013 M630.5358773491572,342.36165391702013 L640.4721092749115,340.84378114244504 M640.4721092749115,340.84378114244504 L651.5421180435525,342.7018091662552 M651.5421180435525,342.7018091662552 L663.1905872844551,347.8447800524963 M663.1905872844551,347.8447800524963 L674.8323208353331,356.0161463038298 M674.8323208353331,356.0161463038298 L685.8818199244125,366.8064467753071 M685.8818199244125,366.8064467753071 L695.783010298149,379.67372575828654 M695.783010298149,379.67372575828654 L704.0374521787336,393.97083848358363 M704.0374521787336,393.97083848358363 L710.2298378823273,408.978450942015 M710.2298378823273,408.978450942015 L714.04896416549,423.9413650539686 M714.04896416549,423.9413650539686 L715.3035610311886,438.1070983153417 M715.3035610311886,438.1070983153417 L713.931831947619,450.7639635177848 M713.931831947619,450.7639635177848 L710.0042707248509,461.27702524894056 M710.0042707248509,461.27702524894056 L703.7198470645654,469.12000776368933 M703.7198470645654,469.12000776368933 L695.3956311619207,473.9015403434325 M695.3956311619207,473.9015403434325 L685.4504227905737,475.38430073034306 M685.4504227905737,475.38430073034306 L674.3836069790624,473.4965625465533 M674.3836069790624,473.4965625465533 L662.7498610835146,468.33515671538987" stroke="black"  stroke-width="4"  fill="red"/>
<path d="M433.7988853498283,220.3785201899679 L468.4077576033523,200.57042431872378 M433.7220278408469,380.7894583412592 L468.25421312424277,360.93636825946965 M433.7988853498283,220.3785201899679 L433.7220278408469,380.7894583412592 M468.4077576033523,200.57042431872378 L468.25421312424277,360.93636825946965 M295.43999768147995,141.27795633146377 L330.04882747776765,121.55761844012414 M295.43999768147995,141.27795633146377 L433.7988853498283,220.3785201899679 M330.04882747776765,121.55761844012414 L468.4077576033523,200.57042431872378 M295.6695495243741,301.5089246414697 L330.20169263167367,281.7435974697712 M433.7220278408469,380.7894583412592 L295.6695495243741,301.5089246414697 M468.25421312424277,360.93636825946965 L330.20169263167367,281.7435974697712 M295.6695495243741,301.5089246414697 L295.43999768147995,141.27795633146377 M364.60974649048677,321.10402018458217 L353.0879033275054,312.98679732878566 M353.0879033275054,312.98679732878566 L342.1449451620923,302.2695785208304 M342.1449451620923,302.2695785208304 L332.32758862886584,289.4888859502825 M332.32758862886584,289.4888859502825 L324.12625861148024,275.28375042947476 M324.12625861148024,275.28375042947476 L317.950748417307,260.3640157533859 M317.950748417307,260.3640157533859 L314.11008762756205,245.4752477915889 M314.11008762756205,245.4752477915889 L312.7970857747091,231.36185934952724 M312.7970857747091,231.36185934952724 L314.0786241224065,218.73018199755802 M314.0786241224065,218.73018199755802 L317.89215589848664,208.2133703066164 M317.89215589848664,208.2133703066164 L324.0484447361013,200.33963454287482 M324.0484447361013,200.33963454287482 L332.2406566211736,195.50566728739884 M332.2406566211736,195.50566728739884 L342.0594619430353,193.95629811973333 M342.0594619430353,193.95629811973333 L353.01314151397605,195.77181134022348 M353.01314151397605,195.77181134022348 L364.5522311874776,200.86337176596487 M364.5522311874776,200.86337176596487 L376.0970416686652,208.97700520719758 M376.0970416686652,208.97700520719758 L387.0669619016034,219.70614982300825 M387.0669619016034,219.70614982300825 L396.9099285333442,232.5119252261431 M396.9099285333442,232.5119252261431 L405.13046926467894,246.75030412601265 M405.13046926467894,246.75030412601265 L411.31494241052536,261.70489170074825 M411.31494241052536,261.70489170074825 L415.1525800597938,276.6231896711847 M415.1525800597938,276.6231896711847 L416.45116485776896,290.7549617415567 M416.45116485776896,290.7549617415567 L415.1466525957784,303.39021703447526 M415.1466525957784,303.39021703447526 L411.30615875538194,313.8951105436252 M411.30615875538194,313.8951105436252 L405.12426645036305,321.74376726984497 M405.12426645036305,321.74376726984497 L396.91284387729746,326.5444911910924 M396.91284387729746,326.5444911910924 L387.0850690147436,328.0590037152491 M387.0850690147436,328.0590037152491 L376.13441255968667,326.21395284586947 M376.13441255968667,326.21395284586947 L364.60974649048677,321.10402018458217 M330.20169263167367,281.7435974697712 L330.04882747776765,121.55761844012414 M364.60974649048677,321.10402018458217 L385.3394028256066,309.21926096869277 M385.3394028256066,309.21926096869277 L373.817988072624,301.10668493372646 M373.817988072624,301.10668493372646 L362.8762998092604,290.39438299124424 M362.8762998092604,290.39438299124424 L353.06099157541564,277.61863179291805 M353.06099157541564,277.61863179291805 L344.8623863956018,263.4182158241976 M344.8623863956018,263.4182158241976 L338.69014187930355,248.50274386454458 M338.69014187930355,248.50274386454458 L334.85312470710045,233.6175695003363 M334.85312470710045,233.6175695003363 L333.5439622928619,219.5069263655666 M333.5439622928619,219.5069263655666 L334.8293435885547,206.87700875637879 M334.8293435885547,206.87700875637879 L338.6465289128914,196.36088264779053 M338.6465289128914,196.36088264779053 L344.8060981160644,188.48672292858132 M344.8060981160644,188.48672292858132 L353.00105183294824,183.6512419789251 M353.00105183294824,183.6512419789251 L362.82192203357477,182.09934363901795 M362.82192203357477,182.09934363901795 L373.7768851253192,183.91143755663302 M373.7768851253192,183.91143755663302 L385.3164120069714,188.99885896377117 M385.3164120069714,188.99885896377117 L396.8607912534173,197.10784084214197 M396.8607912534173,197.10784084214197 L407.82943363439574,207.83205494560536 M407.82943363439574,207.83205494560536 L417.670340464059,220.63286912894824 M417.670340464059,220.63286912894824 L425.88814359292326,234.86650635721878 M425.88814359292326,234.86650635721878 L432.0693395453239,249.816811211884 M432.0693395453239,249.816811211884 L435.90332560612615,264.7315016533971 M435.90332560612615,264.7315016533971 L437.19806810959807,278.86052331433626 M437.19806810959807,278.86052331433626 L435.8897157265721,291.4940236103626 M435.8897157265721,291.4940236103626 L432.04557628562685,301.9982451827722 M432.04557628562685,301.9982451827722 L425.8604151177106,309.8473457094864 M425.8604151177106,309.8473457094864 L417.6462634776978,314.64960544436593 M417.6462634776978,314.64960544436593 L407.8164352519417,316.1666671468682 M407.8164352519417,316.1666671468682 L396.8645032492231,314.3250495129861 M396.8645032492231,314.3250495129861 L385.3394028256066,309.21926096869277" stroke="black"  stroke-width="4"  fill="red"/></svg>