<svg viewBox="0 0 800 800" xmlns="http://www.w3.org/2000/svg"><path d="M254.87319156043657,291.69529704852124 L242.8423406389327,298.57102682887694 M254.31540260185452,47.42825636146114 L254.87319156043657,291.69529704852124 M254.31540260185452,47.42825636146114 L242.23780211107047,54.27653806972506 M242.8423406389327,298.57102682887694 L242.23780211107047,54.27653806972506 M242.23780211107047,54.27653806972506 L266.2702811690676,67.98220521733748 M266.78226632980136,312.3315913065345 L266.2702811690676,67.98220521733748 M242.8423406389327,298.57102682887694 L266.78226632980136,312.3315913065345 M266.78226632980136,312.3315913065345 L278.81314412159475,305.44979091187196 M266.2702811690676,67.98220521733748 L278.3479088437975,61.12785368283261 M278.81314412159475,305.44979091187196 L278.3479088437975,61.12785368283261 M278.81314412159475,305.44979091187196 L254.87319156043657,291.69529704852124 M278.3479088437975,61.12785368283261 L254.31540260185452,47.42825636146114" stroke="black"  stroke-width="4"  fill="red"/>
<path d="M242.8423406389327,298.57102682887694 L230.80618042752522,305.44979091187196 M242.23780211107047,54.27653806972506 L242.8423406389327,298.57102682887694 M242.23780211107047,54.27653806972506 L230.1548510386091,61.12785368283261 M230.80618042752522,305.44979091187196 L230.1548510386091,61.12785368283261 M230.1548510386091,61.12785368283261 L254.1873005291632,74.83959469158032 M254.74607689218374,319.2164300236671 L254.1873005291632,74.83959469158032 M230.80618042752522,305.44979091187196 L254.74607689218374,319.2164300236671 M254.74607689218374,319.2164300236671 L266.78226632980136,312.3315913065345 M254.1873005291632,74.83959469158032 L266.2702811690676,67.98220521733748 M266.78226632980136,312.3315913065345 L266.2702811690676,67.98220521733748 M266.2702811690676,67.98220521733748 L242.23780211107047,54.27653806972506 M266.78226632980136,312.3315913065345 L242.8423406389327,298.57102682887694" stroke="black"  stroke-width="4"  fill="red"/>
<path d="M544.8490496396702,737.9440035448472 L532.7107924525818,745.0180540708818 M545.4229572612201,491.9198065994409 L544.8490496396702,737.9440035448472 M545.4229572612201,491.9198065994409 L533.2371103643367,498.9663993443367 M532.7107924525818,745.0180540708818 L533.2371103643367,498.9663993443367 M533.2371103643367,498.9663993443367 L557.7460648187194,513.0690869257048 M557.1234945365203,759.1756568697961 L557.7460648187194,513.0690869257048 M532.7107924525818,745.0180540708818 L557.1234945365203,759.1756568697961 M557.1234945365203,759.1756568697961 L569.2617212429216,752.0952711369907 M557.7460648187194,513.0690869257048 L569.931880873976,506.0161587414042 M569.2617212429216,752.0952711369907 L569.931880873976,506.0161587414042 M569.931880873976,506.0161587414042 L545.4229572612201,491.9198065994409 M569.2617212429216,752.0952711369907 L544.8490496396702,737.9440035448472" stroke="black"  stroke-width="4"  fill="red"/>
<path d="M532.7107924525818,745.0180540708818 L520.5671018468779,752.0952711369907 M533.2371103643367,498.9663993443367 L532.7107924525818,745.0180540708818 M533.2371103643367,498.9663993443367 L521.045787297631,506.0161587414042 M520.5671018468779,752.0952711369907 L521.045787297631,506.0161587414042 M520.5671018468779,752.0952711369907 L544.9798319919164,766.2592133978244 M521.045787297631,506.0161587414042 L545.5547701454772,520.12518603422 M544.9798319919164,766.2592133978244 L545.5547701454772,520.12518603422 M544.9798319919164,766.2592133978244 L557.1234945365203,759.1756568697961 M545.5547701454772,520.12518603422 L557.7460648187194,513.0690869257048 M557.1234945365203,759.1756568697961 L557.7460648187194,513.0690869257048 M557.7460648187194,513.0690869257048 L533.2371103643367,498.9663993443367 M557.1234945365203,759.1756568697961 L532.7107924525818,745.0180540708818" stroke="black"  stroke-width="4"  fill="red"/>
<path d="M787.9955563063909,351.6496775713641 L786.4787662058077,597.1247082181251 M787.9955563063909,351.6496775713641 L775.9184625207639,358.63338269825124 M774.4484160938605,604.1358716187762 L775.9184625207639,358.63338269825124 M786.4787662058077,597.1247082181251 L774.4484160938605,604.1358716187762 M775.9184625207639,358.63338269825124 L800.4263393636076,372.61016810154126 M798.8600531467323,618.1675737221516 L800.4263393636076,372.61016810154126 M774.4484160938605,604.1358716187762 L798.8600531467323,618.1675737221516 M798.8600531467323,618.1675737221516 L810.8903250641991,611.1501594237947 M800.4263393636076,372.61016810154126 L812.5033540329675,365.6202121759389 M810.8903250641991,611.1501594237947 L812.5033540329675,365.6202121759389 M810.8903250641991,611.1501594237947 L786.4787662058077,597.1247082181251 M812.5033540329675,365.6202121759389 L787.9955563063909,351.6496775713641" stroke="black"  stroke-width="4"  fill="red"/>
<path d="M774.4484160938605,604.1358716187762 L762.4127048633248,611.1501594237947 M775.9184625207639,358.63338269825124 L774.4484160938605,604.1358716187762 M775.9184625207639,358.63338269825124 L763.8359657181206,365.6202121759389 M762.4127048633248,611.1501594237947 L763.8359657181206,365.6202121759389 M763.8359657181206,365.6202121759389 L788.3439192943731,379.6032525740501 M786.8244177553834,625.188116604681 L788.3439192943731,379.6032525740501 M762.4127048633248,611.1501594237947 L786.8244177553834,625.188116604681 M786.8244177553834,625.188116604681 L798.8600531467323,618.1675737221516 M788.3439192943731,379.6032525740501 L800.4263393636076,372.61016810154126 M798.8600531467323,618.1675737221516 L800.4263393636076,372.61016810154126 M800.4263393636076,372.61016810154126 L775.9184625207639,358.63338269825124 M798.8600531467323,618.1675737221516 L774.4484160938605,604.1358716187762" stroke="black"  stroke-width="4"  fill="red"/>
<path d="M13.243385502939361,429.7887090748958 L1.1056773191958769,436.7255086553033 M11.742712660185589,184.97264000947933 L13.243385502939361,429.7887090748958 M11.742712660185589,184.97264000947933 L-0.4425787881688166,191.88198500721353 M1.1056773191958769,436.7255086553033 L-0.4425787881688166,191.88198500721353 M-0.4425787881688166,191.88198500721353 L23.588851826379198,205.70990078881425 M25.044566695982837,450.6083343285286 L23.588851826379198,205.70990078881425 M1.1056773191958769,436.7255086553033 L25.044566695982837,450.6083343285286 M25.044566695982837,450.6083343285286 L37.1823494646091,443.6653830582199 M23.588851826379198,205.70990078881425 L35.774218734135616,198.79440458276392 M37.1823494646091,443.6653830582199 L35.774218734135616,198.79440458276392 M35.774218734135616,198.79440458276392 L11.742712660185589,184.97264000947933 M37.1823494646091,443.6653830582199 L13.243385502939361,429.7887090748958" stroke="black"  stroke-width="4"  fill="red"/>
<path d="M1.1056773191958769,436.7255086553033 L-11.037411054345625,443.6653830582199 M-0.4425787881688166,191.88198500721353 L1.1056773191958769,436.7255086553033 M-0.4425787881688166,191.88198500721353 L-12.633292548882196,198.79440458276392 M-11.037411054345625,443.6653830582199 L-12.633292548882196,198.79440458276392 M-11.037411054345625,443.6653830582199 L12.901401318590047,457.5543645129261 M-12.633292548882196,198.79440458276392 L11.39806015873063,212.62847567987552 M12.901401318590047,457.5543645129261 L11.39806015873063,212.62847567987552 M12.901401318590047,457.5543645129261 L25.044566695982837,450.6083343285286 M11.39806015873063,212.62847567987552 L23.588851826379198,205.70990078881425 M25.044566695982837,450.6083343285286 L23.588851826379198,205.70990078881425 M23.588851826379198,205.70990078881425 L-0.4425787881688166,191.88198500721353 M25.044566695982837,450.6083343285286 L1.1056773191958769,436.7255086553033" stroke="black"  stroke-width="4"  fill="red"/>
<path d="M254.3793685864755,75.44025180812037 L-12.450277383350908,226.8761279518925 M-12.450277383350908,226.8761279518925 L-24.452636257089694,219.9605384187617 M242.37639509812266,68.59183316687415 L-24.452636257089694,219.9605384187617 M254.3793685864755,75.44025180812037 L242.37639509812266,68.59183316687415 M254.31540260185452,47.42825636146114 L-12.633292548882196,198.79440458276392 M-12.450277383350908,226.8761279518925 L-12.633292548882196,198.79440458276392 M254.31540260185452,47.42825636146114 L254.3793685864755,75.44025180812037 M-24.64095043331662,191.88198500721353 L-24.452636257089694,219.9605384187617 M-12.633292548882196,198.79440458276392 L-24.64095043331662,191.88198500721353 M242.30712928373032,40.583006543272745 L-24.64095043331662,191.88198500721353 M242.37639509812266,68.59183316687415 L242.30712928373032,40.583006543272745 M254.31540260185452,47.42825636146114 L242.30712928373032,40.583006543272745" stroke="black"  stroke-width="4"  fill="red"/>
<path d="M824.5749669290213,400.7711515751517 L557.7460648187196,555.4152007661498 M557.7460648187196,555.4152007661498 L545.4888340858035,548.3527576703023 M812.3183689907426,393.77802492364145 L545.4888340858035,548.3527576703023 M824.5749669290213,400.7711515751517 L812.3183689907426,393.77802492364145 M824.5749669290213,400.7711515751517 L824.7654779094768,372.61016810154126 M824.7654779094768,372.61016810154126 L557.8175276681685,527.1844582058532 M557.8175276681685,527.1844582058532 L557.7460648187196,555.4152007661498 M545.5547701454772,520.12518603422 L545.4888340858035,548.3527576703023 M557.8175276681685,527.1844582058532 L545.5547701454772,520.12518603422 M812.5033540329675,365.6202121759389 L545.5547701454772,520.12518603422 M812.3183689907426,393.77802492364145 L812.5033540329675,365.6202121759389 M824.7654779094768,372.61016810154126 L812.5033540329675,365.6202121759389" stroke="black"  stroke-width="4"  fill="red"/>
<path d="M836.6411816750938,393.77802492364145 L254.44327797029152,61.74644446419251 M254.44327797029152,61.74644446419251 L242.37639509812266,68.59183316687415 M824.5749669290213,400.7711515751517 L242.37639509812266,68.59183316687415 M836.6411816750938,393.77802492364145 L824.5749669290213,400.7711515751517 M824.5749669290213,400.7711515751517 L824.7654779094768,372.61016810154126 M242.37639509812266,68.59183316687415 L242.30712928373032,40.583006543272745 M824.7654779094768,372.61016810154126 L242.30712928373032,40.583006543272745 M242.30712928373032,40.583006543272745 L254.37936858647544,33.7407866021756 M836.837048190391,365.6202121759389 L254.37936858647544,33.7407866021756 M824.7654779094768,372.61016810154126 L836.837048190391,365.6202121759389 M836.837048190391,365.6202121759389 L836.6411816750938,393.77802492364145 M254.37936858647544,33.7407866021756 L254.44327797029152,61.74644446419251" stroke="black"  stroke-width="4"  fill="red"/>
<path d="M-24.452636257089694,219.9605384187617 L557.7460648187196,555.4152007661498 M-24.452636257089694,219.9605384187617 L-36.64326742688729,226.8761279518925 M545.5547701454772,562.480819064019 L-36.64326742688729,226.8761279518925 M557.7460648187196,555.4152007661498 L545.5547701454772,562.480819064019 M545.6207655201713,534.2469055814317 L-36.83704819039099,198.79440458276392 M545.5547701454772,562.480819064019 L545.6207655201713,534.2469055814317 M-36.64326742688729,226.8761279518925 L-36.83704819039099,198.79440458276392 M-36.83704819039099,198.79440458276392 L-24.64095043331662,191.88198500721353 M557.8175276681685,527.1844582058532 L-24.64095043331662,191.88198500721353 M545.6207655201713,534.2469055814317 L557.8175276681685,527.1844582058532 M557.8175276681685,527.1844582058532 L557.7460648187196,555.4152007661498 M-24.64095043331662,191.88198500721353 L-24.452636257089694,219.9605384187617" stroke="black"  stroke-width="4"  fill="red"/>
<path d="M775.749875101891,344.6690947000384 L508.79955454477886,498.9663993443367 M775.5814383588478,372.8173953924866 L508.7501691170533,527.1844582058532 M775.749875101891,344.6690947000384 L775.5814383588478,372.8173953924866 M508.79955454477886,498.9663993443367 L508.7501691170533,527.1844582058532 M787.8216083779298,379.8011489275625 L520.9908899438115,534.2373885271356 M775.5814383588478,372.8173953924866 L787.8216083779298,379.8011489275625 M508.7501691170533,527.1844582058532 L520.9908899438115,534.2373885271356 M787.9955563063909,351.6496775713641 L521.045787297631,506.0161587414042 M787.8216083779298,379.8011489275625 L787.9955563063909,351.6496775713641 M520.9908899438115,534.2373885271356 L521.045787297631,506.0161587414042 M787.9955563063909,351.6496775713641 L775.749875101891,344.6690947000384 M521.045787297631,506.0161587414042 L508.79955454477886,498.9663993443367" stroke="black"  stroke-width="4"  fill="red"/>
<path d="M278.3479088437975,61.12785368283261 L11.39806015873063,212.62847567987552 M278.4012610610069,89.14618695662568 L11.57046309262671,240.7165390878391 M278.3479088437975,61.12785368283261 L278.4012610610069,89.14618695662568 M11.39806015873063,212.62847567987552 L11.57046309262671,240.7165390878391 M290.42018710974673,96.00370749350111 L23.588851826379198,247.64136479973234 M278.4012610610069,89.14618695662568 L290.42018710974673,96.00370749350111 M11.57046309262671,240.7165390878391 L23.588851826379198,247.64136479973234 M290.37214883955863,67.98220521733748 L23.421762122925884,219.55013131228878 M290.42018710974673,96.00370749350111 L290.37214883955863,67.98220521733748 M23.588851826379198,247.64136479973234 L23.421762122925884,219.55013131228878 M290.37214883955863,67.98220521733748 L278.3479088437975,61.12785368283261 M23.421762122925884,219.55013131228878 L11.39806015873063,212.62847567987552" stroke="black"  stroke-width="4"  fill="red"/>
<path d="M811.5186752346746,515.5047697890333 L545.2037946367915,670.379635010637 M811.3345696001635,543.5287219961774 L545.1381735774489,698.4723533592521 M811.5186752346746,515.5047697890333 L811.3345696001635,543.5287219961774 M545.2037946367915,670.379635010637 L545.1381735774489,698.4723533592521 M823.5617797775855,550.5386167317029 L557.366012033608,705.551564185108 M811.3345696001635,543.5287219961774 L823.5617797775855,550.5386167317029 M545.1381735774489,698.4723533592521 L557.366012033608,705.551564185108 M823.7513848784831,522.5115387116641 L557.4371334027877,677.455720269923 M823.5617797775855,550.5386167317029 L823.7513848784831,522.5115387116641 M557.366012033608,705.551564185108 L557.4371334027877,677.455720269923 M823.7513848784831,522.5115387116641 L811.5186752346746,515.5047697890333 M557.4371334027877,677.455720269923 L545.2037946367915,670.379635010637" stroke="black"  stroke-width="4"  fill="red"/>
<path d="M242.67583990950803,189.67750694420886 L-23.63853981676641,341.34625052912713 M242.7447798514319,217.55456141512477 L-23.451115915022854,369.29205971434703 M242.67583990950803,189.67750694420886 L242.7447798514319,217.55456141512477 M-23.63853981676641,341.34625052912713 L-23.451115915022854,369.29205971434703 M254.71956640387623,224.41974096098906 L-11.47693963324673,376.2244148209818 M242.7447798514319,217.55456141512477 L254.71956640387623,224.41974096098906 M-23.451115915022854,369.29205971434703 L-11.47693963324673,376.2244148209818 M254.6559014241797,196.5395616447953 L-11.659089384127242,348.275480091245 M254.71956640387623,224.41974096098906 L254.6559014241797,196.5395616447953 M-11.47693963324673,376.2244148209818 L-11.659089384127242,348.275480091245 M254.6559014241797,196.5395616447953 L242.67583990950803,189.67750694420886 M-11.659089384127242,348.275480091245 L-23.63853981676641,341.34625052912713" stroke="black"  stroke-width="4"  fill="red"/>
<path d="M525.5572198375322,379.6917460576564 L259.3538029165914,533.01974144453 M259.2915735514314,505.0004779570189 L259.3538029165914,533.01974144453 M525.6134844519256,351.7412485474938 L259.2915735514314,505.0004779570189 M525.5572198375322,379.6917460576564 L525.6134844519256,351.7412485474938 M537.6572309051769,386.6287171779785 L271.45381327645987,540.0249472002051 M271.45381327645987,540.0249472002051 L259.3538029165914,533.01974144453 M537.6572309051769,386.6287171779785 L525.5572198375322,379.6917460576564 M271.45381327645987,540.0249472002051 L271.3969698074745,512.0025578996833 M271.3969698074745,512.0025578996833 L259.2915735514314,505.0004779570189 M537.7188814170058,358.6750940911886 L525.6134844519256,351.7412485474938 M537.7188814170058,358.6750940911886 L271.3969698074745,512.0025578996833 M537.7188814170058,358.6750940911886 L537.6572309051769,386.6287171779785" stroke="black"  stroke-width="4"  fill="red"/>
<path d="M525.9144081824247,202.25176797861266 L258.95874355089234,355.141139721954 M525.8578762185343,230.33507634215678 L259.02127006399274,383.2941964182007 M525.9144081824247,202.25176797861266 L525.8578762185343,230.33507634215678 M258.95874355089234,355.141139721954 L259.02127006399274,383.2941964182007 M537.9866675841055,237.2552816533128 L271.1500607150297,390.28263415433366 M525.8578762185343,230.33507634215678 L537.9866675841055,237.2552816533128 M259.02127006399274,383.2941964182007 L271.1500607150297,390.28263415433366 M538.0486111025685,209.1688032702402 L271.09294575522574,362.12640676221923 M537.9866675841055,237.2552816533128 L538.0486111025685,209.1688032702402 M271.1500607150297,390.28263415433366 L271.09294575522574,362.12640676221923 M538.0486111025685,209.1688032702402 L525.9144081824247,202.25176797861266 M271.09294575522574,362.12640676221923 L258.95874355089234,355.141139721954" stroke="black"  stroke-width="4"  fill="red"/>
<path d="M835.5995117321279,543.5287219961774 L254.78317518172943,210.69241207320184 M823.5617797775855,550.5386167317029 L242.7447798514319,217.55456141512477 M835.5995117321279,543.5287219961774 L823.5617797775855,550.5386167317029 M254.78317518172943,210.69241207320184 L242.7447798514319,217.55456141512477 M823.7513848784831,522.5115387116641 L242.67583990950803,189.67750694420886 M823.5617797775855,550.5386167317029 L823.7513848784831,522.5115387116641 M242.7447798514319,217.55456141512477 L242.67583990950803,189.67750694420886 M835.7944471098454,515.5047697890333 L254.71956640387623,182.81848240577156 M823.7513848784831,522.5115387116641 L835.7944471098454,515.5047697890333 M242.67583990950803,189.67750694420886 L254.71956640387623,182.81848240577156 M835.7944471098454,515.5047697890333 L835.5995117321279,543.5287219961774 M254.71956640387623,182.81848240577156 L254.78317518172943,210.69241207320184" stroke="black"  stroke-width="4"  fill="red"/>
<path d="M557.366012033608,705.551564185108 L-23.451115915022854,369.29205971434703 M545.2037946367916,712.6339501382267 L-35.61267451501237,376.2244148209818 M557.366012033608,705.551564185108 L545.2037946367916,712.6339501382267 M-23.451115915022854,369.29205971434703 L-35.61267451501237,376.2244148209818 M545.2694745865138,684.5349806787101 L-35.80553895712109,348.275480091245 M545.2037946367916,712.6339501382267 L545.2694745865138,684.5349806787101 M-35.61267451501237,376.2244148209818 L-35.80553895712109,348.275480091245 M557.4371334027877,677.455720269923 L-23.63853981676641,341.34625052912713 M545.2694745865138,684.5349806787101 L557.4371334027877,677.455720269923 M-35.80553895712109,348.275480091245 L-23.63853981676641,341.34625052912713 M557.4371334027877,677.455720269923 L557.366012033608,705.551564185108 M-23.63853981676641,341.34625052912713 L-23.451115915022854,369.29205971434703" stroke="black"  stroke-width="4"  fill="red"/></svg>